<svg id="Layer_1" data-name="Layer 1" xmlns="http://www.w3.org/2000/svg" viewBox="0 0 195.39 217.52"><title>icon-User</title><path d="M163.61,137c3.46.67,7,1.07,10.29,2.06,25.23,7.44,40.9,24,46.8,49.65a54,54,0,0,1,.43,22.21c-2,11-8.58,17.78-19.13,21a78.81,78.81,0,0,1-21,2.92c-8.27.18-16.55.22-24.82.23q-40.23,0-80.47,0a130.42,130.42,0,0,1-23-1.66c-5.24-1-10.29-2.46-14.77-5.48-6.24-4.21-9.59-10.31-10.58-17.57-2.93-21.58,3.59-40.08,19-55.33,9.95-9.85,22.11-15.49,35.95-17.49.81-.12,1.62-.17,2.43-.24.08,0,.15,0,.33.1.43,5.53,3.63,9.44,8,12.48a41.39,41.39,0,0,0,7.12,4c8.77,3.78,18,5,27.48,4.52a57.48,57.48,0,0,0,22.43-5.26,27.07,27.07,0,0,0,10.59-8.24,13.25,13.25,0,0,0,2.7-6.84A9,9,0,0,1,163.61,137Z" transform="translate(-26.69 -17.51)"/><path d="M70.36,71.3A53.87,53.87,0,0,1,177.08,61c1.76,9,1.07,17.86-1.07,26.65-3.75,15.48-10.5,29.49-21,41.54-5.28,6.06-11.39,11.08-18.95,14.07-10.33,4.09-20.13,2.65-29.46-3-8.14-4.94-14.35-11.85-19.59-19.68A98.1,98.1,0,0,1,71.47,81.86C70.89,78.37,70.72,74.82,70.36,71.3ZM92,47.11c-.68.73-1.28,1.34-1.84,2A50.24,50.24,0,0,0,79,71.45c-.74,3.19-1.57,6.38-1,9.75a89.25,89.25,0,0,0,13.72,34.06c4.34,6.49,9.45,12.27,16.05,16.57,8.31,5.42,17.14,7.07,26.61,3.36a41.7,41.7,0,0,0,15.46-11.08c10.36-11.33,16.72-24.73,20.06-39.62a26,26,0,0,0-2-16.9,11.54,11.54,0,0,0-13-6.92,141.4,141.4,0,0,1-31.49,2.17,59.52,59.52,0,0,1-17.59-3.2c-4.83-1.79-9.12-4.36-11.93-8.86C93.24,49.68,92.73,48.48,92,47.11Z" transform="translate(-26.69 -17.51)"/></svg>