<svg id="Layer_1" data-name="Layer 1" xmlns="http://www.w3.org/2000/svg" viewBox="0 0 181.96 230.73"><title>icon-PhoneHand</title><path d="M50.33,239.36c-3.44-1.11-6.8-2.4-9.33-5.14a17.56,17.56,0,0,1-4.69-12.51c0-14.57,0-29.14,0-43.71q0-75.57,0-151.16c0-6.11,1.92-11.17,6.86-14.89A17.24,17.24,0,0,1,53.91,8.63q38.19.06,76.38,0c6.46,0,12.92,0,19.38,0C159.74,8.71,167,15.89,167,26q.06,68.82,0,137.65c0,.51-.05,1-.07,1.42l-6.63,2.42c-1.9-3.82-3.91-7.73-5.77-11.72a6.71,6.71,0,0,1-.16-2.67q0-56.53,0-113.09V37.18H49.07V195.54h74.78c-1.08,4.31-.81,8.34,1.56,11.79,3.64,5.3,7.46,10.49,11.49,15.49,1.35,1.68,3.51,2.78,5.43,3.91,5.6,3.29,11.28,6.47,17.35,9.93l-6.59,2.7Zm71.6-18.08V208.86h-9.06c-9.83,0-19.65,0-29.48.07-.7,0-2,.6-2,1-.15,3.78-.09,7.56-.09,11.39ZM79.22,25.57h44.83V21H79.22ZM135,23.4a4,4,0,0,0,4,4.2,4.08,4.08,0,0,0,4.27-4.2,4.15,4.15,0,0,0-8.29,0Z" transform="translate(-36.3 -8.63)"/><path d="M157.67,175.89c5.71-7.27,8.18-7.86,15.11-3.83.45-.48.9-1,1.37-1.46,3.73-3.78,7.8-4.06,12.1-1a3.84,3.84,0,0,0,2.78.59c6.82-1.75,12.41.61,15.57,6.74,3.67,7.13,7.91,14,10,21.8,1.46,5.54,2,11.31,2.94,17,.31,1.89,1.22,4.16.51,5.6s-3.09,1.85-4.77,2.69q-13.36,6.7-26.75,13.37c-.79.39-1.6.73-2.43,1.11-.74-3.31-2.49-4.8-6.26-5.13a56.76,56.76,0,0,1-19.09-4.7c-3.87-1.79-7.74-3.59-11.63-5.33a16.49,16.49,0,0,1-6.18-5c-2.58-3.17-5.5-6.08-8.35-9a10.5,10.5,0,0,1-3.26-7c-.14-3,2-4.95,4.89-4.12a19.86,19.86,0,0,1,5.63,2.64c4.35,2.93,8.49,6.18,12.85,9.09,1.17.78,2.84.8,4.28,1.17,0-1.58.33-3.29-.16-4.72a67,67,0,0,0-3.84-8.83c-7.8-15-15.75-30-23.45-45.06a26.27,26.27,0,0,1-2.45-8.55c-.42-3.32,1.63-4.63,4.86-3.5a13.21,13.21,0,0,1,6.69,5.77c5,7.89,10,15.84,15,23.75C154.87,171.9,156.23,173.78,157.67,175.89Z" transform="translate(-36.3 -8.63)"/><path d="M102.05,112.78c-12.76,0-25.52,0-38.28,0-4.21,0-6.79-3.26-5.22-6.75a6.82,6.82,0,0,1,7-3.49q36.81,0,73.64,0a14.88,14.88,0,0,1,3.12.31,5,5,0,0,1,3.93,5.07,5.18,5.18,0,0,1-4.35,4.77,22.08,22.08,0,0,1-2.7.1H102.05Z" transform="translate(-36.3 -8.63)"/><path d="M101.72,124c12.76,0,25.52,0,38.28,0,4.07,0,6.5,3,5.42,6.57-.75,2.46-3.51,4.28-6,3.55a12.41,12.41,0,0,0-8.14.07,6.39,6.39,0,0,1-2,.07q-32.31,0-64.61,0a14.1,14.1,0,0,1-3.11-.33,5,5,0,0,1-4-5,5.15,5.15,0,0,1,4.51-4.85,18.73,18.73,0,0,1,2.25-.06Z" transform="translate(-36.3 -8.63)"/><path d="M116.82,145.91l3.21,10a11.68,11.68,0,0,1-1.25.12H63.42C61,156,59,155.2,58,152.84a4.36,4.36,0,0,1,1.09-5.35,7.25,7.25,0,0,1,4.22-1.69c17.7-.09,35.4,0,53.1,0A1.6,1.6,0,0,1,116.82,145.91Z" transform="translate(-36.3 -8.63)"/><path d="M93.75,55.58V87H64.65V55.58Z" transform="translate(-36.3 -8.63)"/></svg>