<svg id="Layer_1" data-name="Layer 1" xmlns="http://www.w3.org/2000/svg" viewBox="0 0 247.82 177.69"><defs><style>.cls-1{fill:#231f20;}</style></defs><title>icon-car</title><path class="cls-1" d="M20.39,132.13c-3-3.66-2.58-10.11-2.58-10.11s-3.66,8.39-.22,12.91,20,8.82,20,8.82S23.4,135.79,20.39,132.13Z" transform="translate(-1.24 -36.4)"/><path class="cls-1" d="M58.46,142.24s4.52-8.82,2.8-10.54-14.2-8-14.2-8,8.82,6.67,11.19,9S58.46,142.24,58.46,142.24Z" transform="translate(-1.24 -36.4)"/><path class="cls-1" d="M14.8,174.51s-.65,4.52,1.93,6.88,14.63,4.09,14.63,4.09-9.47-3.87-12-5.38S14.8,174.51,14.8,174.51Z" transform="translate(-1.24 -36.4)"/><path class="cls-1" d="M216.51,84.48a4.11,4.11,0,0,1,1.18-1.55c1.58-1,23.43,2.6,25.9,0s.68-12-2-14.17-23.43-3.4-25-2-1.35,12.18-2.48,12a6.35,6.35,0,0,0-2.49.62c-3.24-6.57-13.49-31.56-17.17-35.64-3.87-4.31-27.1-7.32-69.27-7.32s-65.39,3-69.27,7.32C52.21,47.8,42,72.79,38.71,79.36a6.31,6.31,0,0,0-2.49-.62c-1.12.2-.9-10.58-2.48-12s-22.3-.2-25,2-4.5,11.58-2,14.17,24.33-1,25.91,0a4.11,4.11,0,0,1,1.18,1.55c-7.08,5.28-19.93,12.41-22.23,16-3,4.73-10.33,30.55-10.33,53.78a154.5,154.5,0,0,0,5.6,41.3l3.44,18.5H47.71V198.6s38.29,1.73,77.44,1.73,77.45-1.73,77.45-1.73v15.49H240l3.44-18.5a154.76,154.76,0,0,0,5.59-41.3c0-23.23-7.31-49-10.32-53.78C236.44,96.89,223.59,89.76,216.51,84.48ZM63.2,51.46C67,49,98.14,45.25,122.77,45v2.25H110.39c-2.85,0-2.54,8.84,0,8.84h29.52c2.54,0,2.86-8.84,0-8.84H127.53V45c24.64.23,55.83,3.94,59.58,6.44s12.48,26.68,13.34,29.26-51.2,6.88-75.3,6.88S49,83.3,49.86,80.72,59.33,54,63.2,51.46Zm7.88,92.4v21.62C65.52,160.46,67,151,71.08,143.86Zm3.07-4.33a15.34,15.34,0,0,1,4.94-3.87v33.07a17.56,17.56,0,0,1-4.94-1.26Zm8-4.6H87.1v34H82.17Zm8,0h4.93v34H90.18Zm8,0h4.93v34H98.19Zm8,0h4.93v34H106.2Zm8,0h4.93v34h-4.93Zm8,0h5.86v34h-5.86Zm8.94,0h4.94v34h-4.94Zm8,0h4.94v34h-4.94Zm8,0h4.94v34h-4.94Zm8,0h4.93v34H155.2Zm8,0h4.93v34h-4.93Zm8,.73a15.31,15.31,0,0,1,4.93,3.87v27.94a17.49,17.49,0,0,1-4.93,1.26Zm8,8.2c4.07,7.09,5.55,16.6,0,21.62ZM41,187c-.65,2.58-23.88-1-26.46-4.2s-1.94-10.65-1.94-12.58,19.69,1.29,27.11,4.19C42.52,175.49,41.69,184.41,41,187Zm-26-49.8c-5.16-7.3,3-23.81,4.73-27.27s36.57,14.6,43.46,20.36c2.81,2.35-1.6,14.25-5.17,17.09C52,152.17,20.17,144.49,15,137.19ZM129.45,193l-4.3,0-4.29,0c-62.77,0-76.72-14.2-71.73-15.92s47.82,4.3,71.73,4.3c1.23,0,2.69.09,4.29.23,1.61-.14,3.07-.23,4.3-.23,23.91,0,66.75-6,71.73-4.3S192.21,193,129.45,193Zm62.82-45.64c-3.56-2.84-8-14.74-5.16-17.09,6.88-5.76,41.73-23.82,43.45-20.36s9.9,20,4.74,27.27S198.3,152.17,192.27,147.37Zm43.46,35.42c-2.59,3.23-25.82,6.78-26.46,4.2s-1.48-11.5,1.29-12.59c7.42-2.9,27.1-6.13,27.1-4.19S238.31,179.57,235.73,182.79Z" transform="translate(-1.24 -36.4)"/><path class="cls-1" d="M229.92,132.13c-3,3.66-17.21,11.62-17.21,11.62s16.56-4.3,20-8.82S232.5,122,232.5,122,232.93,128.47,229.92,132.13Z" transform="translate(-1.24 -36.4)"/><path class="cls-1" d="M191.84,142.24s-2.15-7.1.22-9.46,11.18-9,11.18-9-12.47,6.24-14.2,8S191.84,142.24,191.84,142.24Z" transform="translate(-1.24 -36.4)"/><path class="cls-1" d="M231,180.1c-2.58,1.51-12,5.38-12,5.38s12-1.72,14.63-4.09,1.93-6.88,1.93-6.88S233.58,178.6,231,180.1Z" transform="translate(-1.24 -36.4)"/></svg>