<svg id="Layer_1" data-name="Layer 1" xmlns="http://www.w3.org/2000/svg" viewBox="0 0 209.1 232.09"><title>icon-lock</title><path d="M208.4,241.43H39a2.15,2.15,0,0,0-.58-.34c-12.37-3-19.16-11.55-19.16-24.19q0-45.09,0-90.17a28,28,0,0,1,.56-6.06,23,23,0,0,1,22.69-18.42c3.75-.06,7.5,0,11.5,0,0-5.84-.16-11.41.05-17,.23-6.32.21-12.73,1.29-18.93,8.27-47.45,62.67-72.1,104-47C179.63,31.6,191,49.9,193,73.65c.69,8.55.3,17.2.4,25.8,0,.87,0,1.74,0,2.82,4.43,0,8.5-.12,12.56,0a22.89,22.89,0,0,1,21.53,17.83c.34,1.46.59,2.94.88,4.41v94.69c-.14.58-.34,1.16-.43,1.75-1.34,9.35-6.46,15.69-15.23,19.11C211.28,240.62,209.83,241,208.4,241.43ZM158.48,102.1c0-7.5.05-14.8,0-22.1a36.85,36.85,0,0,0-.58-7C154,53.67,137.39,42,117.8,44.77c-14.66,2.09-27.63,15.62-28.52,30.34-.52,8.65-.28,17.34-.36,26a4.91,4.91,0,0,0,.18,1ZM135.2,206.47v-2.62c0-6.94.07-13.89,0-20.83a4.22,4.22,0,0,1,2-4.07,22.92,22.92,0,0,0,7.89-27.56,23.14,23.14,0,1,0-34.43,27.89,3.12,3.12,0,0,1,1.56,2.94c-.06,7.24,0,14.49,0,21.74,0,.8.07,1.61.11,2.51Z" transform="translate(-19.23 -9.34)"/></svg>