<?xml version="1.0" encoding="utf-8"?>
<!-- Generator: Adobe Illustrator 24.1.3, SVG Export Plug-In . SVG Version: 6.00 Build 0)  -->
<svg version="1.1" id="Layer_1" xmlns="http://www.w3.org/2000/svg" xmlns:xlink="http://www.w3.org/1999/xlink" x="0px" y="0px"
	 viewBox="0 0 148.1 220.2" style="enable-background:new 0 0 148.1 220.2;" xml:space="preserve">
<g>
	<g>
		<path d="M74.1,1C33.7,1,1,33.7,1,74.1c0,14.6,4.3,28.1,11.6,39.5l61.5,103.9l1,1.7l60.5-105.6c3.7-5.7,6.6-11.9,8.6-18.6
			c2-6.6,3.1-13.7,3.1-21C147.3,33.7,114.6,1,74.1,1z M74.5,119.3C49.3,119.3,29,98.9,29,73.8s20.4-45.5,45.5-45.5
			s45.5,20.4,45.5,45.5S99.6,119.3,74.5,119.3z"/>
	</g>
</g>
</svg>
