<?xml version="1.0" encoding="utf-8"?>
<!-- Generator: Adobe Illustrator 24.1.3, SVG Export Plug-In . SVG Version: 6.00 Build 0)  -->
<svg version="1.1" id="Layer_1" xmlns="http://www.w3.org/2000/svg" xmlns:xlink="http://www.w3.org/1999/xlink" x="0px" y="0px"
	 viewBox="0 0 180.7 221.2" style="enable-background:new 0 0 180.7 221.2;" xml:space="preserve">
<g>
	<g>
		<g>
			<path d="M153.3,27.1c-34.8-33.7-91.1-33.7-125.9,0c-34.8,33.7-35.6,85.9,0,122.1l62.9,70.5l62.9-70.5
				C188.3,112.5,188,60.8,153.3,27.1z M90.3,143.7c-30.8,0-55.7-24.9-55.7-55.7c0-30.8,24.9-55.7,55.7-55.7
				c30.8,0,55.7,24.9,55.7,55.7C146,118.8,121.1,143.7,90.3,143.7z"/>
		</g>
	</g>
	<g>
		<path d="M86.5,92.1c-2.8-0.9-5.3-1.9-7.5-2.9c-2.3-1-4.2-2.1-5.8-3.5c-1.6-1.4-2.9-3-3.8-4.9c-0.9-1.9-1.4-4.2-1.4-7
			c0-4.3,1.3-7.9,4-10.8c2.6-2.9,6.4-4.9,11.3-6v-7.6c0.6-0.1,1.4-0.3,2.6-0.5c1.2-0.2,2.4-0.3,3.7-0.3c2.4,0,4.4,0.4,5.7,1.3
			c1.4,0.8,2.1,2.7,2.1,5.4v1.2c3.9,0.5,7,1.5,9.4,3c2.4,1.5,3.5,3.6,3.5,6.2c0,1.6-0.4,3-1.1,4.2c-0.8,1.2-1.7,2.1-2.7,3
			c-1.4-0.9-3.2-1.6-5.6-2.3c-2.3-0.7-4.9-1-7.6-1c-2.8,0-4.9,0.4-6.2,1.2c-1.3,0.8-2,1.8-2,3c0,0.9,0.4,1.7,1.2,2.3
			c0.8,0.6,2,1.1,3.7,1.6l5,1.6c5.9,1.9,10.4,4.3,13.6,7.2c3.2,2.9,4.8,6.9,4.8,11.9c0,4.3-1.3,7.9-4,10.9c-2.7,3-6.6,5-11.9,6.1
			v7.5c-0.6,0.1-1.4,0.3-2.6,0.5c-1.2,0.2-2.4,0.3-3.7,0.3c-2.4,0-4.4-0.4-5.7-1.3c-1.4-0.8-2.1-2.7-2.1-5.4V116
			c-2.3-0.3-4.3-0.7-6.2-1.2c-1.9-0.6-3.5-1.3-4.8-2.2c-1.3-0.9-2.4-1.9-3.2-3.1c-0.8-1.2-1.1-2.5-1.1-4c0-1.8,0.5-3.4,1.6-4.7
			c1.1-1.3,2.2-2.3,3.5-3c1.8,1.4,3.9,2.6,6.4,3.6c2.5,1,5.3,1.5,8.3,1.5c3.1,0,5.2-0.5,6.5-1.4c1.3-0.9,1.9-2,1.9-3.3
			c0-1.3-0.5-2.2-1.5-2.9c-1-0.7-2.4-1.3-4.2-1.9L86.5,92.1z"/>
	</g>
</g>
</svg>
