<svg id="Layer_1" data-name="Layer 1" xmlns="http://www.w3.org/2000/svg" viewBox="0 0 242.73 233.97"><defs><style>.cls-1{fill:#231f20;}</style></defs><title>icon-House2</title><path class="cls-1" d="M240.74,109.05,135,12.86a15.72,15.72,0,0,0-21.13,0L8.16,109.05a15.63,15.63,0,0,0-1,22.07h0a15.91,15.91,0,0,0,11.59,5.09,15.56,15.56,0,0,0,10.59-4.1l95.07-86.58,95.13,86.58a15.66,15.66,0,0,0,21.19-23.06Zm-200,27v97.88a8.38,8.38,0,0,0,4.45,7.15,13.16,13.16,0,0,0,6.67,1.69H197.07a13.2,13.2,0,0,0,6.68-1.69,8.5,8.5,0,0,0,4.45-7.15V136L124.42,59.87Zm49.23.46h68.79v61.16H89.94ZM29.17,24.17l43,.2-.36,16L28.89,81.53Z" transform="translate(-3.08 -8.78)"/></svg>