<?xml version="1.0" encoding="utf-8"?>
<!-- Generator: Adobe Illustrator 24.1.3, SVG Export Plug-In . SVG Version: 6.00 Build 0)  -->
<svg version="1.1" id="Layer_1" xmlns="http://www.w3.org/2000/svg" xmlns:xlink="http://www.w3.org/1999/xlink" x="0px" y="0px"
	 viewBox="0 0 188.2 151.9" style="enable-background:new 0 0 188.2 151.9;" xml:space="preserve">
<g>
	<path d="M14.7,151.6l23.8-25.4h88.8c4.5,0,8.1-3.6,8.1-8.1V99H47.5h-4.7v-4.8V35.7H7.4c-3.7,0-6.7,3-6.7,6.7v74.4
		c0,5.1,4.2,9.3,9.3,9.3h4.8V151.6z"/>
	<path d="M148.2,94l24.3,26.8V94h7.7c4.1,0,7.4-3.3,7.4-7.4V7.8c0-4-3.2-7.2-7.2-7.2H55c-3.9,0-7.1,3.2-7.1,7.1v28V94h87.4H148.2z
		 M162.7,37.7c7.3-1.2,13.5,5,12.3,12.3c-0.7,4.4-4.3,7.9-8.7,8.7c-7.3,1.2-13.5-5-12.3-12.3C154.7,42,158.3,38.4,162.7,37.7z
		 M76.9,58.7c-7.3,1.2-13.5-5-12.3-12.3c0.7-4.4,4.3-8,8.7-8.7c7.3-1.2,13.5,5,12.3,12.3C84.9,54.4,81.3,58,76.9,58.7z M106.7,58.7
		c-7.3,1.2-13.4-5-12.3-12.3c0.7-4.4,4.3-8,8.7-8.7c7.3-1.2,13.5,5,12.3,12.3C114.6,54.4,111.1,58,106.7,58.7z M134.7,58.8
		c-5.9,0-10.6-4.8-10.6-10.6c0-5.9,4.8-10.6,10.6-10.6c0.2,0,0.4,0,0.6,0c5.6,0.3,10.1,4.9,10.1,10.6c0,5.7-4.4,10.3-10.1,10.6
		C135.1,58.8,134.9,58.8,134.7,58.8z"/>
</g>
</svg>
