<svg id="Layer_1" data-name="Layer 1" xmlns="http://www.w3.org/2000/svg" viewBox="0 0 246.51 157.3"><title>icon-House</title><path d="M5.06,129.29,36.67,97.42V65.85h20.2V76.9L85,49.83a6.23,6.23,0,0,1,8.67,0l54.4,52.93,26.35-25.28a6.47,6.47,0,0,1,9.06.1l62.28,62.55A10,10,0,0,1,246,154h0a10,10,0,0,1-14.3.3l-53.31-52.48-30.3,28.73-59-57.77L19,143.15a9.83,9.83,0,0,1-14.22-.3h0A9.84,9.84,0,0,1,5.06,129.29Z" transform="translate(-2.21 -48.09)"/><path d="M178.41,115.34l-30.3,29.12L88.8,87.18,30,146.13v59.26H160.42V159h35v46.41h27.36V159.61Zm-67.24,72H65.71v-30.3h45.46Z" transform="translate(-2.21 -48.09)"/></svg>