<svg id="Layer_1" data-name="Layer 1" xmlns="http://www.w3.org/2000/svg" viewBox="0 0 239.44 213.05"><title>icon-CreditCard</title><path d="M149.08,230.13H69.26c-9.07,0-14.89-5.8-14.89-14.87q0-45.39,0-90.77c0-8.69,5.87-14.62,14.55-14.62q80.12,0,160.24,0c8.67,0,14.6,5.95,14.6,14.58q0,45.48,0,91c0,8.81-5.89,14.72-14.67,14.72Zm58.21-45.67h12.86c5.76-.13,9.73-4.09,9.81-9.84,0-2.94,0-5.88,0-8.82,0-6.23-3.93-10.18-10.18-10.25-3.84,0-7.68,0-11.51,0-4.61,0-9.21-.07-13.82,0-6,.13-9.79,4-9.84,9.93,0,3,0,5.89,0,8.83,0,6.27,3.9,10.11,10.21,10.14C199,184.48,203.14,184.46,207.29,184.46ZM155,206.79h31.49v-6.41H155Zm43.39-.06H229.8v-6.37H198.38Zm-86.71-6.4v6.41h31.42v-6.41Zm-43.36,6.4H99.7v-6.37H68.31Z" transform="translate(-4.33 -17.09)"/><path d="M47.66,174.81c-8.78,3-16.69-1.09-19-9.64Q21.07,137,13.53,108.72c-.11-.43-.19-.86-.34-1.48l182.88-49c4,15,8,29.87,12,44.93H69.37c-12.88,0-21.69,8.78-21.7,21.67q0,23.81,0,47.6Z" transform="translate(-4.33 -17.09)"/><path d="M190.2,36.26l-183,49C6.23,81.39,5,77.73,4.47,74,3.5,67.5,8,61.15,14.57,59.34,30,55.12,45.53,51,61,46.84L169.64,17.73c8.12-2.18,15.41,1.31,17.82,8.66C188.49,29.54,189.25,32.78,190.2,36.26Z" transform="translate(-4.33 -17.09)"/></svg>