<svg id="Layer_1" data-name="Layer 1" xmlns="http://www.w3.org/2000/svg" viewBox="0 0 221.05 238.13"><title>icon-Wallet2</title><path d="M180,26.7l-10.64,4Q124.8,47.38,80.21,64.05a5.33,5.33,0,0,1-1.86.34c-13.21,0-26.42,0-39.63,0a1.45,1.45,0,0,1-1.62-1.12c-2.31-6.23.52-12.4,6.85-14.77L141.65,12l17.93-6.7c6.73-2.51,12.92.43,15.24,7.32,1.44,4.3,3,8.58,4.77,12.74C179.76,25.77,179.86,26.16,180,26.7Z" transform="translate(-16.1 -4.41)"/><path d="M184,37.1c3.41,9.13,6.78,18.14,10.19,27.25H111.72l0-.2Z" transform="translate(-16.1 -4.41)"/><path d="M227.93,139.16H190.29v38.43h37.64a9.23,9.23,0,0,0,9.23-9.23v-20A9.23,9.23,0,0,0,227.93,139.16Zm-21.14,28.58a9.32,9.32,0,1,1,9.31-9.31A9.31,9.31,0,0,1,206.79,167.74Z" transform="translate(-16.1 -4.41)"/><path d="M224.44,129v-1.37q0-19.92,0-39.83a13.39,13.39,0,0,0-13.6-13.58q-90.51,0-181,0A13.34,13.34,0,0,0,16.11,87.82q0,69.69,0,139.36a15.07,15.07,0,0,0,15.43,15.37H210.72a13.35,13.35,0,0,0,13.72-13.7q0-19.78,0-39.57c0-.47,0-.93-.07-1.51H180.13V129Z" transform="translate(-16.1 -4.41)"/></svg>