<svg id="Layer_1" data-name="Layer 1" xmlns="http://www.w3.org/2000/svg" viewBox="0 0 242.47 246.13"><defs><style>.cls-1{fill:#010101;}</style></defs><title>icon-EHL</title><path class="cls-1" d="M245.91,95.31c-.4,0-.8.07-1.2.07-5.52,0-11.05,0-16.56,0h-1.31v85.67H22.33V95.37H3.52c0-.5,0-.86,0-1.22,0-7.54,0-15.08,0-22.62A1.54,1.54,0,0,1,4.38,70Q64.82,36,125.23,2a1.65,1.65,0,0,1,1.91.11Q186.2,36.43,245.28,70.76c.21.12.42.21.63.31Zm-42.64,63.93v-1.15q0-41.85,0-83.73a1.74,1.74,0,0,0-1-1.73q-37.6-22.26-75.18-44.58a1.7,1.7,0,0,0-2,0q-17.7,10.31-35.43,20.58-20.77,12-41.57,24.08a1.55,1.55,0,0,0-.9,1.6c.05,2,0,3.9,0,5.85v79.09Z" transform="translate(-3.44 -1.71)"/><path class="cls-1" d="M87.52,247.84q0-12.89,0-25.75v-1.25c.31,0,.53-.07.75-.07,2.36,0,4.71,0,7.08,0a1.47,1.47,0,0,1,1.26.63l12.94,15.11c.21.24.44.47.83.89V220.82h7.18c0,.39,0,.78,0,1.18v24.83c0,.34,0,.68,0,1h-8.69a3.17,3.17,0,0,0-.39-.67q-6.6-7.57-13.22-15.11a5,5,0,0,0-.61-.51v1.27q0,6.92,0,13.83a11.69,11.69,0,0,1-.11,1.19Z" transform="translate(-3.44 -1.71)"/><path class="cls-1" d="M202.87,247.84c0-.4.07-.81.07-1.2V220.85c.32,0,.57-.08.83-.08h19.88a15.85,15.85,0,0,1,4.87.73,6.3,6.3,0,0,1,4.55,5,11.89,11.89,0,0,1,.13,4.41,5.48,5.48,0,0,1-3.31,4.39,27.62,27.62,0,0,1-3.16,1c-.22.06-.45.09-.82.16.23.37.4.67.6.95,2.18,3.15,4.39,6.29,6.56,9.44a8.74,8.74,0,0,1,.5,1h-8.08a3,3,0,0,0-.19-.35c-2.43-3.5-4.88-7-7.3-10.5a1,1,0,0,0-1-.5h-6.53v10.26c0,.36,0,.73.06,1.09Zm7.61-17.24c.22,0,.36.06.49.06,4.14,0,8.26,0,12.4,0a5.31,5.31,0,0,0,1.59-.21,1.78,1.78,0,0,0,.93-.68,1.9,1.9,0,0,0-1.13-2.89,9.28,9.28,0,0,0-2.28-.26c-3.77,0-7.53,0-11.29,0-.22,0-.44.06-.71.09Z" transform="translate(-3.44 -1.71)"/><path class="cls-1" d="M128.53,247.84c0-1.55,0-3.1,0-4.64V220.84c.32,0,.58-.07.83-.07,4.88,0,9.75,0,14.63,0a25.79,25.79,0,0,1,7.85,1.16c4.94,1.59,7.63,5,8.26,10.13a20,20,0,0,1-.24,6.82,9.61,9.61,0,0,1-6.26,7.33,27.15,27.15,0,0,1-7.19,1.43c-.37,0-.73.13-1.08.19Zm7.54-21.29v15.28a1.86,1.86,0,0,0,.36.09c3,0,6,0,9-.19a11,11,0,0,0,3.21-.79,5,5,0,0,0,3.06-3.4A9.46,9.46,0,0,0,152,234a7.25,7.25,0,0,0-3.38-5.79,8.65,8.65,0,0,0-3.44-1.37C142.16,226.31,139.14,226.67,136.07,226.55Z" transform="translate(-3.44 -1.71)"/><path class="cls-1" d="M52,247.84c0-.37,0-.74,0-1.11v-25.9H78.24v5.74H59.92v4.06c1.27.06,2.53,0,3.79,0H75.17v5.44l-3,0H60v5.78H78.3c0,2.06.1,4-.07,5.93Z" transform="translate(-3.44 -1.71)"/><path class="cls-1" d="M168.54,247.84c0-.34,0-.68,0-1v-26h25.85v5.73H176.05v4.08H191.5a22,22,0,0,1,.09,5.46H176.05v5.83h18.31v5.44c-.42,0-.8,0-1.2,0l-18.48.28c-.57,0-1.13.1-1.7.15Z" transform="translate(-3.44 -1.71)"/><path class="cls-1" d="M17.42,247.84c0-.37.06-.74.06-1.1V220.83H25v20.74c6.53.11,12.94.24,19.5.36v5.91Z" transform="translate(-3.44 -1.71)"/><path class="cls-1" d="M210.43,189.7h4.07v24.15c-1,.11-2,0-3,.05h-3.13q-2.79-7.86-5.57-15.7l-.22,0v15.62h-4.07V189.73H205L210.21,204l.24,0C210.43,199.22,210.43,194.5,210.43,189.7Z" transform="translate(-3.44 -1.71)"/><path class="cls-1" d="M151,201.38c0,2,0,3.91,0,5.86a12,12,0,0,1-.36,2.29,5.48,5.48,0,0,1-4.55,4.42,16.08,16.08,0,0,1-6.22.06c-3.16-.59-4.64-2.25-5-5.46a11.2,11.2,0,0,1-.09-1.3c0-3.61,0-7.2.07-10.8a8.46,8.46,0,0,1,.34-2,6.62,6.62,0,0,1,5.88-5.32,14.48,14.48,0,0,1,5.71.28,5,5,0,0,1,3.89,3.94,21.48,21.48,0,0,1,.43,3.49c.07,1.51,0,3,0,4.54Zm-11.15.31c0,1.58,0,3.16,0,4.74a9.43,9.43,0,0,0,.2,1.9,2.35,2.35,0,0,0,2.4,2.13c1.6.1,2.56-.42,3-1.79a8.91,8.91,0,0,0,.45-2.46c.05-3.19,0-6.38,0-9.57a7,7,0,0,0-.37-2.07,2.56,2.56,0,0,0-2.79-1.84,2.48,2.48,0,0,0-2.63,2,9.29,9.29,0,0,0-.26,2.1C139.79,198.47,139.82,200.08,139.82,201.69Z" transform="translate(-3.44 -1.71)"/><path class="cls-1" d="M47.91,210.48,52,211.87c-.09.54-.18,1-.28,1.6a6.69,6.69,0,0,1-.88.08c-3.1-.08-6.19-.12-9.28-.29a20.58,20.58,0,0,1-3.86-.69,5.69,5.69,0,0,1-4.62-5.34A64.48,64.48,0,0,1,33.18,195a7,7,0,0,1,.2-.88,6.29,6.29,0,0,1,5.35-5,12.87,12.87,0,0,1,5.21.09,5.83,5.83,0,0,1,4.61,4.19,16.09,16.09,0,0,1,.64,3.76c.1,2.68.07,5.38.05,8.07A11.05,11.05,0,0,1,47.91,210.48Zm-3.81-8.82c0-1.75,0-3.5,0-5.25a11.2,11.2,0,0,0-.23-1.9,1.57,1.57,0,0,0-1.45-1.35,12.33,12.33,0,0,0-2.5.12,1.78,1.78,0,0,0-1.47,1.37,7.77,7.77,0,0,0-.37,2.07c0,3.27,0,6.54,0,9.8a8.83,8.83,0,0,0,.43,2.37,2,2,0,0,0,1.72,1.51,8,8,0,0,0,2,0,1.79,1.79,0,0,0,1.59-1.49,9.35,9.35,0,0,0,.26-1.89C44.12,205.23,44.1,203.44,44.1,201.66Z" transform="translate(-3.44 -1.71)"/><path class="cls-1" d="M126.46,213.85V203H120.7v10.85H116c-.21-.77-.26-22.87-.05-24.24h4.67v9.17h5.79v-9.15l2.35,0h2.37v24.19Z" transform="translate(-3.44 -1.71)"/><path class="cls-1" d="M153.19,189.7h5v1.12c0,4.67,0,9.35,0,14a17.12,17.12,0,0,0,.37,3.5,2.88,2.88,0,0,0,4.38,1.8,2.17,2.17,0,0,0,1-1.55,13.76,13.76,0,0,0,.28-2.3c0-3.26,0-6.52.06-9.79,0-1.91,0-3.84,0-5.75,0-.33,0-.66,0-1h4.65a6.53,6.53,0,0,1,.08.76c0,4.94,0,9.89,0,14.83a21,21,0,0,1-.41,3.8c-.69,3.39-2.57,5-6,5.33a15,15,0,0,1-4.81-.35,5.06,5.06,0,0,1-4-3.8,16.89,16.89,0,0,1-.62-3.87c-.08-5.42-.06-10.84-.07-16.25C153.14,190,153.17,189.91,153.19,189.7Z" transform="translate(-3.44 -1.71)"/><path class="cls-1" d="M70.79,213.84c2.28-8.09,4.53-16.1,6.8-24.14h5.83c2.25,8,4.52,16,6.8,24.15h-5.3l-1.51-5.35H77.26c-.49,1.73-1,3.51-1.51,5.34Zm9.68-18.53-.21,0-1.93,9.06h4.39C82,201.27,81.21,198.29,80.47,195.31Z" transform="translate(-3.44 -1.71)"/><path class="cls-1" d="M69.74,189.71c0,.28,0,.48,0,.68,0,5.14,0,10.29,0,15.44a23.6,23.6,0,0,1-.22,2.91c-.39,3-1.86,4.63-4.88,5.22a14.76,14.76,0,0,1-6.31-.07,4.66,4.66,0,0,1-3.71-3.59,12.77,12.77,0,0,1-.43-2.88c-.07-5.73-.08-11.45-.1-17.16a4.59,4.59,0,0,1,.07-.55h4.65c0,.33,0,.68,0,1,0,4.67,0,9.36,0,14a18.41,18.41,0,0,0,.35,3.4c.27,1.38.92,1.83,2.33,1.93,1.94.12,2.83-.5,3.16-2.43a24.47,24.47,0,0,0,.3-3.92c0-4.27,0-8.55,0-12.82v-1.23Z" transform="translate(-3.44 -1.71)"/><path class="cls-1" d="M232.91,195.49l-3.26,1.3c-.18-.54-.31-1-.5-1.48a3.88,3.88,0,0,0-4.62-2.48,2.7,2.7,0,0,0-2.22,1.84,8.07,8.07,0,0,0-.48,2.46c-.05,3.42,0,6.86,0,10.29a3.19,3.19,0,0,0,.1.7,3.24,3.24,0,0,0,3.86,2.71,1.93,1.93,0,0,0,1.91-1.77c.16-1.29.15-2.6.22-4h-2.37v-3.58a35.88,35.88,0,0,1,7-.11c0,.3,0,.62,0,.94,0,2.15,0,4.31,0,6.47.1,3.64-2.21,4.92-4.65,5.31a16.84,16.84,0,0,1-6.13-.19,5.32,5.32,0,0,1-4.45-4.27,12.5,12.5,0,0,1-.38-2.49c0-3.64-.06-7.28,0-10.9a11.27,11.27,0,0,1,.55-3,5.38,5.38,0,0,1,3.69-3.71,11.92,11.92,0,0,1,7.26-.06A6.22,6.22,0,0,1,232.91,195.49Z" transform="translate(-3.44 -1.71)"/><path class="cls-1" d="M171.59,207.46c.3-.08.55-.15.81-.2,1-.17,2-.33,3.13-.49.22.49.41.95.63,1.39a4,4,0,0,0,4.81,2.21,2.07,2.07,0,0,0,1.78-2.5,3.19,3.19,0,0,0-1.08-2.11c-.86-.76-1.77-1.45-2.69-2.12-1.25-.92-2.57-1.73-3.78-2.7a13.09,13.09,0,0,1-2.17-2.23,5.84,5.84,0,0,1,3-9.18,10.37,10.37,0,0,1,7.22.14,5.92,5.92,0,0,1,3.9,5.5l-3.26,1.3c-.37-.59-.68-1.14-1-1.65a3.59,3.59,0,0,0-3.43-1.72,4.62,4.62,0,0,0-1,.21,1.9,1.9,0,0,0-1,3,7,7,0,0,0,1.42,1.56c.91.74,1.9,1.39,2.85,2.08s2.07,1.41,3,2.22a13.52,13.52,0,0,1,2.23,2.31,4.89,4.89,0,0,1,.15,5.85,7.13,7.13,0,0,1-2.68,2.55,10.06,10.06,0,0,1-8.67.75A6,6,0,0,1,171.59,207.46Z" transform="translate(-3.44 -1.71)"/><path class="cls-1" d="M17.31,189.69H29.43v3.71H22.19a29.35,29.35,0,0,0-.09,6.48h6.62a28,28,0,0,1,0,3.43H22c0,2.3,0,4.49,0,6.83h7.46v3.69H17.36C17.16,213.13,17.1,191.09,17.31,189.69Z" transform="translate(-3.44 -1.71)"/><path class="cls-1" d="M92.43,189.71h4v20.41h7.09v3.73h-11C92.29,213.12,92.23,191.11,92.43,189.71Z" transform="translate(-3.44 -1.71)"/><path class="cls-1" d="M194.74,189.74v24.09h-4.33V189.74Z" transform="translate(-3.44 -1.71)"/><path class="cls-1" d="M165.63,106H84.21V85c.76-.22,78.73-.33,81.35-.11C165.78,85.57,165.86,104.43,165.63,106Z" transform="translate(-3.44 -1.71)"/><path class="cls-1" d="M84.18,137.68V116.76s.06-.07.09-.08,0-.06.07-.06a2.83,2.83,0,0,1,.5-.05h80.49a1.45,1.45,0,0,1,.34.1v21Z" transform="translate(-3.44 -1.71)"/></svg>