<?xml version="1.0" encoding="utf-8"?>
<!-- Generator: Adobe Illustrator 24.1.2, SVG Export Plug-In . SVG Version: 6.00 Build 0)  -->
<svg version="1.1" id="Layer_1" xmlns="http://www.w3.org/2000/svg" xmlns:xlink="http://www.w3.org/1999/xlink" x="0px" y="0px"
	 viewBox="0 0 307.3 291.9" style="enable-background:new 0 0 307.3 291.9;" xml:space="preserve">
<style type="text/css">
	.st0{fill:#231F20;}
</style>
<g>
	<path d="M111.2,55.1c6.6,11.6,12.9,22.4,19,33.3c0.5,0.8,0.2,2.4-0.4,3.3c-12,20.7-24.1,41.4-36.2,62.1
		c-12.7,21.8-25.5,43.5-38.2,65.3c-3.3,5.7-6.5,11.5-10.1,18.1c-2.2-3.7-4.1-6.9-6-10.1c-4-6.9-8-13.9-12.1-20.9
		c-1.5-2.6-1.9-4.7,0.1-7.9c9.6-15.8,18.6-31.9,27.9-47.9c9.2-15.8,18.6-31.6,27.8-47.4c8.1-13.9,16.1-27.8,24.1-41.7
		C108.3,59.5,109.6,57.6,111.2,55.1z"/>
	<path d="M20,192.9c-1.9-3.2-3.4-5.7-4.9-8.2c-3.5-6-7.3-11.8-10.4-17.9c-2.7-5.4-3.2-11.3-0.1-16.7c7.5-13.4,15.2-26.7,22.9-40
		c8-13.9,15.9-27.9,23.9-41.8c8.1-14,16.4-28,24.5-42c3-5.1,5.8-10.3,9-16.1c3.5,6,6.7,11.5,10,17.1c2.8,4.9,5.9,9.6,8.4,14.6
		c0.8,1.6,1.1,4.3,0.2,5.7c-9,16-18.3,31.7-27.4,47.6c-7.2,12.5-14.3,25-21.4,37.4c-8.4,14.7-16.9,29.3-25.4,43.9
		C26.4,181.6,23.5,186.8,20,192.9z"/>
	<path d="M90.5,1.3c13,0,25.4-0.1,37.7,0.1c1.2,0,2.9,1.1,3.5,2.1c6.2,10.4,12.3,20.9,18.4,31.4c12.5,21.4,25,42.9,37.4,64.3
		c8.8,15.1,17.4,30.3,26.1,45.4c0.5,0.9,0.9,2,1.4,3.4c-12.8,0-25.3,0-37.8-0.1c-1,0-2.3-0.9-2.8-1.8c-9.6-16.4-19.1-32.9-28.7-49.3
		c-10.9-18.7-21.9-37.4-32.8-56.2C105.5,27.7,98.2,14.7,90.5,1.3z"/>
	<path d="M266.9,148c-13.3,0-25.6,0.1-38-0.1c-1.1,0-2.6-1-3.2-2c-6.1-10.2-12.1-20.4-18-30.6c-7.7-13.3-15.3-26.6-23.1-39.9
		C178.1,64.1,171.5,53,165,41.8c-7.7-13.3-15.2-26.6-23.2-40.5c11.8,0,23.1-0.6,34.4,0.2c6.3,0.4,9.7,6,12.7,11.4
		c11.5,20.2,23.3,40.2,35,60.4c11.3,19.5,22.5,39.1,33.7,58.7C260.4,137,263.4,142.1,266.9,148z"/>
	<path d="M216.6,204.9c-6.6-1.3-10.5-5.3-9.6-11.9c1.2-8.9,3.5-17.6,6-26.2c1.6-5.5,5.7-9.7,11.3-11.1c8.5-2.2,17.2-1.5,25.8,0.7
		c6.3,1.6,8.7,5.8,8.1,11.7c-0.8,8.3-3,16.6-5.4,24.7c-2.8,9.3-9.5,12.5-19.3,13.1C231.6,205.9,220.2,205.7,216.6,204.9z
		 M229.1,194.7c7.5,0,9-0.7,10.8-6.6c1.2-3.9,5.2-17.8,3.2-21c-1.1-1.7-3.7-1.8-6.4-2.1c-2.9-0.3-5.5-0.1-7.6,1.1
		c-2.1,1.3-2.7,3.3-3.1,4.6c-1.5,4.4-2.8,11.8-3.6,14.9C220.7,192.8,221.5,194.7,229.1,194.7z"/>
	<path d="M272.9,192.9c-0.5,2.8-0.9,4.9-1.2,7.2c-0.9,6.8-3.5,6.2-8.3,6c-2.3-0.1-4.5-0.2-7.6-0.2c3.6-17.2,7.2-33.9,10.6-50
		c10.8,0,21.1-0.2,31.3,0.1c4.6,0.1,8.7,4,8.2,8.6c-0.6,6.7-1.8,13.4-3.9,19.7c-2,6.1-7.5,8.4-13.7,8.6
		C283.2,193,278.1,192.9,272.9,192.9z M275.3,180.9c1.9,0,3.6,0,5.3,0c7.8,0,8.7-0.5,10.3-8.2c0.8-3.8-0.6-4.7-3.6-4.8
		c-3.1-0.1-6.2,0-9.3,0C277,172.4,276.2,176.5,275.3,180.9z"/>
	<path d="M52.3,244.7c3-5.5,5.6-10.1,8.2-14.7c2.8-4.9,5.6-9.8,8.6-14.5c0.7-1.1,1.9-2.5,2.9-2.5c14.3-0.2,28.6-0.1,43.7-0.1
		c-4.9,9.1-9.2,17.8-14.2,26c-2.4,3.9-7.1,5.7-11.7,5.8C77.6,244.8,65.6,244.7,52.3,244.7z"/>
	<path d="M144,206.3c-6.6-1.3-10.5-5.3-9.6-11.9c1.2-8.9,3.5-17.6,6-26.2c1.6-5.5,5.7-9.7,11.3-11.1c8.5-2.2,17.2-1.5,25.8,0.7
		c6.3,1.6,8.7,5.8,8.1,11.7c-0.8,8.3-3,16.6-5.4,24.7c-2.8,9.3-9.5,12.5-19.3,13.1C159,207.3,147.6,207,144,206.3z M156.4,196
		c7.5,0,9-0.7,10.8-6.6c1.2-3.9,5.2-17.8,3.2-21c-1.1-1.7-3.7-1.8-6.4-2.1c-2.9-0.3-5.5-0.1-7.6,1.1c-2.1,1.3-2.7,3.3-3.1,4.6
		c-1.5,4.4-2.8,11.8-3.6,14.9C148.1,194.1,148.9,196,156.4,196z"/>
	<path d="M91.4,169.2l-4.1,22.1c-1.6,11.8,5.6,14.3,11,14.3l21.4,0.2c4.9,0,9.5-3.7,10.7-9.7l1.8-10h-13.7l-1.2,5.5
		c-0.4,1.7-1.9,2.9-3.7,2.9l-8,0c-3.7,0-4.9-2.3-4.2-6l3.2-16.6c0.3-1.5,1-4.9,3.8-4.6h10.3c3.1,0,2.7,2.1,2.6,3.6l-0.2,1.8
		l13.7-0.1l0.6-4.9c0.9-8.2-4.3-12.5-12.3-12.6h-16C97.7,155,92.9,160.2,91.4,169.2z"/>
	<polygon points="203.3,192.8 185.2,192.8 187.9,180.5 205.8,180.6 	"/>
	<path class="st0" d="M119.5,245.4l1-6.7c2.7,0.3,5.9,0.4,9.7,0.4c1.6,0,2.8-0.2,3.4-0.5c0.6-0.3,1-0.8,1.2-1.6l0.1-0.5
		c0-0.1,0-0.3,0-0.6c0-0.6-0.2-1-0.7-1.2c-0.5-0.2-1.2-0.3-2.3-0.3h-1.7c-2.6,0-4.6-0.7-6.1-2.1c-1.5-1.4-2.2-3.2-2.2-5.5
		c0-0.6,0-1.2,0.1-1.9l0.4-2.5c0.5-3,1.8-5.2,3.8-6.5c2-1.4,4.9-2,8.4-2c3.4,0,6.7,0.4,10,1.3l-1,6.7c-2.7-0.3-6.1-0.4-10.1-0.4
		c-2,0-3.1,0.7-3.3,2l-0.1,0.5c-0.1,0.3-0.1,0.6-0.1,0.7c0,1.2,0.7,1.8,2.2,1.8h1.9c2.8,0,5,0.7,6.6,2.1c1.6,1.4,2.4,3.2,2.4,5.3
		c0,0.5,0,1.1-0.1,1.7l-0.5,3c-0.3,1.8-0.8,3.3-1.7,4.5c-0.8,1.2-2.1,2-3.8,2.6c-1.7,0.6-3.9,0.9-6.7,0.9
		C126.2,246.7,122.5,246.3,119.5,245.4z"/>
	<path class="st0" d="M151.2,214.3h8.4l-2,12.4h9.5l2-12.4h8.4l-5.1,32.2H164l1.9-12.3h-9.5l-1.9,12.3H146L151.2,214.3z"/>
	<path class="st0" d="M191.3,214.3h10.5l4.4,32.2h-8.7l-0.5-5.1h-9.7l-2.1,5.1h-8.6L191.3,214.3z M196.2,233.8l-0.9-12.4l-4.8,12.4
		H196.2z"/>
	<path class="st0" d="M215.9,214.3h12.6c3.1,0,5.5,0.7,7,2c1.6,1.4,2.3,3.5,2.3,6.4c0,0.9-0.1,1.8-0.3,2.9c-0.3,1.8-0.7,3.2-1.4,4.4
		c-0.7,1.1-1.4,2-2.1,2.5c-0.7,0.5-1.5,1.1-2.3,1.6l3.6,12.5h-8.5l-2.7-11.1h-3.2l-1.8,11.1h-8.4L215.9,214.3z M225.5,228.7
		c1.3,0,2.1-0.3,2.6-0.8c0.5-0.5,0.8-1.5,1-2.8c0.1-0.3,0.1-0.7,0.1-1.2c0-0.7-0.2-1.2-0.6-1.6c-0.4-0.3-1-0.5-1.9-0.5h-3.8
		l-1.1,6.9H225.5z"/>
	<path class="st0" d="M273.3,214.3h12.6c4.2,0,7.2,1,8.8,2.9c1.7,1.9,2.5,4.7,2.5,8.4c0,2.1-0.2,4.1-0.5,6c-0.6,3.7-1.5,6.6-2.9,8.8
		c-1.4,2.2-3.1,3.7-5.3,4.7c-2.2,0.9-4.8,1.4-8.1,1.4h-12.3L273.3,214.3z M281.4,238.9c2,0,3.5-0.7,4.6-2c1.1-1.3,1.8-3.6,2.3-6.7
		c0.3-2.1,0.5-3.5,0.5-4.3c0-1.6-0.4-2.6-1.1-3.2c-0.8-0.6-2.1-0.9-3.9-0.9h-3.3l-2.7,17.1H281.4z"/>
	<path class="st0" d="M124.5,257.6h13.2c3.3,0,5.5,0.6,6.8,1.8c1.3,1.2,1.9,2.9,1.9,5.1c0,0.8-0.1,1.6-0.2,2.3
		c-0.3,1.5-0.9,2.9-1.9,4c-1,1.2-2.3,1.9-4,2.3c1.7,0.5,2.9,1.2,3.6,2.1c0.7,1,1.1,2.4,1.1,4.2c0,0.9-0.1,1.8-0.3,2.8
		c-0.4,2.8-1.7,4.7-3.7,5.9c-2,1.1-4.9,1.7-8.6,1.7h-13.1L124.5,257.6z M133.7,282.2c1.2,0,2-0.2,2.5-0.6c0.5-0.4,0.8-1.2,1-2.3
		c0-0.2,0-0.5,0-0.9c0-0.7-0.2-1.2-0.6-1.5c-0.4-0.3-1.1-0.4-2.1-0.4h-4.5l-0.9,5.6H133.7z M135.4,270.2c0.8,0,1.3-0.2,1.7-0.5
		c0.4-0.4,0.6-0.8,0.8-1.5c0.1-0.7,0.2-1.2,0.2-1.5c0-0.6-0.2-1-0.5-1.3c-0.3-0.2-0.9-0.4-1.6-0.4h-4.2l-0.8,5.1H135.4z"/>
	<path class="st0" d="M154.3,257.6H167c3.1,0,5.5,0.7,7,2c1.6,1.4,2.3,3.5,2.3,6.4c0,0.9-0.1,1.8-0.3,2.9c-0.3,1.8-0.7,3.2-1.4,4.4
		c-0.7,1.1-1.4,2-2.1,2.5c-0.7,0.5-1.5,1.1-2.3,1.6l3.6,12.5h-8.5l-2.7-11.1h-3.2l-1.8,11.1h-8.4L154.3,257.6z M163.9,272
		c1.3,0,2.1-0.3,2.6-0.8c0.5-0.5,0.8-1.5,1-2.8c0.1-0.3,0.1-0.7,0.1-1.2c0-0.7-0.2-1.2-0.6-1.6c-0.4-0.3-1-0.5-1.9-0.5h-3.8
		l-1.1,6.9H163.9z"/>
	<path class="st0" d="M191.7,257.6h10.5l4.4,32.2h-8.7l-0.5-5.1h-9.7l-2.1,5.1H177L191.7,257.6z M196.6,277.1l-0.9-12.4l-4.8,12.4
		H196.6z"/>
	<path class="st0" d="M216.3,257.6h6.7l8.4,17.9l2.9-17.9h8.4l-5.1,32.2h-6.7l-8.4-17.9l-2.9,17.9h-8.4L216.3,257.6z"/>
	<path class="st0" d="M247.7,287c-1.9-2-2.8-4.8-2.8-8.4c0-1.9,0.2-3.9,0.5-6.1c0.8-5.2,2.3-9,4.5-11.5c2.2-2.5,5.3-3.7,9.5-3.7
		c2.4,0,4.5,0.2,6.3,0.6c1.8,0.4,3.3,0.9,4.5,1.5l-1.1,6.7c-1.2-0.4-2.6-0.7-4-0.9s-2.8-0.3-4.1-0.3c-1.4,0-2.6,0.2-3.4,0.5
		c-0.8,0.4-1.6,1.2-2.2,2.5c-0.6,1.3-1.1,3.3-1.6,6c-0.3,2.3-0.5,3.9-0.5,4.8c0,1.4,0.4,2.3,1.2,2.9c0.8,0.6,2.1,0.9,4.1,0.9
		c1.6,0,3,0,4-0.1c1.1-0.1,2.4-0.2,4-0.4l-1,6.6c-2.3,0.9-5.4,1.4-9.2,1.4C252.4,290,249.6,289,247.7,287z"/>
	<path class="st0" d="M276,257.6h8.4l-2,12.4h9.5l2-12.4h8.4l-5.1,32.2h-8.4l1.9-12.3h-9.5l-1.9,12.3h-8.4L276,257.6z"/>
	<g>
		<path class="st0" d="M263.7,233.3h-13.1l-1.2,6.9l13.5-0.2l-1.3,6.4H240l5.8-31.9l21.2,0.1l-1.1,6.3h-13.4l-0.9,5.9h13.1
			L263.7,233.3z"/>
	</g>
</g>
</svg>
