<?xml version="1.0" encoding="utf-8"?>
<!-- Generator: Adobe Illustrator 24.1.3, SVG Export Plug-In . SVG Version: 6.00 Build 0)  -->
<svg version="1.1" id="Layer_1" xmlns="http://www.w3.org/2000/svg" xmlns:xlink="http://www.w3.org/1999/xlink" x="0px" y="0px"
	 viewBox="0 0 150.1 220.2" style="enable-background:new 0 0 150.1 220.2;" xml:space="preserve">
<style type="text/css">
	.st0{fill:#020202;}
</style>
<path class="st0" d="M74.8,1.3C33.9,1.3,0.7,34.5,0.7,75.4c0,33.6,22.4,61.9,53,71.1l19.1,66l1.9,6.5L98,145.8
	c29.5-9.8,50.9-37.6,50.9-70.4C148.9,34.5,115.8,1.3,74.8,1.3 M74.8,113.1c-0.7,0-1.3,0-2,0C53,112,37.2,95.5,37.2,75.4
	c0-20.1,15.8-36.6,35.6-37.6h0c0.6,0,1.3-0.1,1.9-0.1c20.8,0,37.6,16.9,37.6,37.6C112.4,96.2,95.6,113.1,74.8,113.1 M74.8,57.1
	c-10.1,0-18.3,8.2-18.3,18.3c0,10.1,8.2,18.4,18.3,18.4c10.1,0,18.3-8.2,18.3-18.4C93.2,65.3,85,57.1,74.8,57.1"/>
</svg>
