<?xml version="1.0" encoding="utf-8"?>
<!-- Generator: Adobe Illustrator 24.1.3, SVG Export Plug-In . SVG Version: 6.00 Build 0)  -->
<svg version="1.1" id="Layer_1" xmlns="http://www.w3.org/2000/svg" xmlns:xlink="http://www.w3.org/1999/xlink" x="0px" y="0px"
	 viewBox="0 0 352.2 404.8" style="enable-background:new 0 0 352.2 404.8;" xml:space="preserve">
<path d="M304.8,402.3c-95.3,0-158.2,0-253.5,0c-38,0-49.8-17.3-49.8-52.8c0-103.1,0-200.3,0-303.4C1.6,18.3,16.8,3,44.6,3
	C130.8,3,216.9,3,303,3c28.2,0,45.4,6.7,47.7,41.7c0,112,0,200.3,0,312.3C350.8,390,327.9,401.5,304.8,402.3z M176.5,52.8
	c-36.9,0-73.7,0-110.6,0c-11.6,0-14.5,3-14.5,14.8c0,23.8,0,47.7,0,71.5c0,10.1,3.3,13.5,13.3,13.5c74.3,0,148.6,0,222.8,0
	c9.9,0,13.3-3.5,13.3-13.6c0-24.1,0-48.3,0-72.4c0-10.6-3.3-13.9-13.8-13.9C250.2,52.8,213.4,52.8,176.5,52.8z M300.9,277.2
	c0-20.8,0.1-41.6,0-62.4c0-8.4-3.8-12.1-12.2-12.2c-8.6-0.1-17.2-0.1-25.8,0c-8,0.1-11.9,3.8-11.9,11.5c-0.1,42.1-0.1,84.3,0,126.4
	c0,8,3.8,11.6,11.7,11.8c8.3,0.2,16.6,0.1,24.9,0c9.8-0.1,13.2-3.5,13.3-13.6C300.9,318.3,300.9,297.7,300.9,277.2z M101.3,228.8
	c0-4.2,0-8.3,0-12.5c-0.1-10.4-3.4-13.6-14.1-13.7c-3.9,0-7.8,0-11.6,0c-24.2,0-24,0-24.3,24.2c-0.3,26.4-0.1,26.1,26.1,25.8
	C101.3,252.4,101.3,252.6,101.3,228.8z M175.8,202.6c-3.9,0-7.8,0-11.6,0c-9.5,0.1-12.9,3.5-13,13.1c-0.1,8.3-0.1,16.6,0,25
	c0.1,8,3.7,11.8,11.5,11.9c8.9,0.2,17.7,0.2,26.6,0c7.9-0.1,11.6-3.9,11.7-11.8c0.2-8.6,0.1-17.2,0-25.8
	c-0.1-8.8-3.8-12.2-12.8-12.4C184.1,202.6,179.9,202.6,175.8,202.6z M51.4,327c-0.6,25.9,0,25.8,25.6,25.5
	c24.4-0.3,24.1-0.1,24.5-25c0.3-25.3-0.4-25.4-25.2-25.1C51.4,302.7,51.4,302.4,51.4,327z M176.4,352.4c24.4,0.6,24.8-0.1,24.8-24.7
	c0-25.4-0.3-25.4-25-25.4c-25,0-25.2,0-25.2,25.2C151,352.8,151.4,353,176.4,352.4z"/>
</svg>
