<svg id="Layer_1" data-name="Layer 1" xmlns="http://www.w3.org/2000/svg" viewBox="0 0 183.86 226.52"><title>icon-Phone2</title><path d="M78.13,78.52c-1.52.57-2.8,1.07-4.09,1.52-3.61,1.28-4.34,2.6-3,6.26,2.06,5.63,4.4,11.16,6.43,16.8a172.18,172.18,0,0,0,42.27,65.27c7.58,7.42,15.95,14,24.08,20.89,2.65,2.23,4.11,1.88,6.3-.78.93-1.14,1.85-2.29,3-3.65,5.3,3.83,10.53,7.59,15.74,11.38,10.47,7.6,20.87,15.3,31.43,22.77,2.18,1.54,2.26,3,1.39,5.11-2.2,5.27-6.46,8.45-11.24,11a29.66,29.66,0,0,1-24.76,2.13c-28.59-9.48-52.94-25.43-74-46.7C63.13,161.85,44.87,127.62,36.36,88.17a161.41,161.41,0,0,1-2.9-44.68,17.89,17.89,0,0,1,1.9-6.59A34.13,34.13,0,0,1,49.73,22a20.55,20.55,0,0,1,5.13-2c4.86-1.18,6-.38,7.42,4.38q7.53,25.76,15.1,51.5C77.62,76.62,77.83,77.42,78.13,78.52Z" transform="translate(-33.05 -12.5)"/><path d="M78.39,12.5c4.13,0,6.65,1.58,7.62,4.78q7.81,25.65,15.44,51.36c1.17,4-.87,7.42-4.77,8.75-1.75.59-3.53,1-5.3,1.58-5.49,1.65-8.69-.07-10.33-5.51Q77.32,61,73.56,48.57q-3.61-12-7.24-24.09Q64,16.67,71.84,14.34C74.3,13.6,76.79,13,78.39,12.5Z" transform="translate(-33.05 -12.5)"/><path d="M206.19,217.08c-2-.82-3.55-1.16-4.76-2q-21.37-15.58-42.65-31.34c-3.65-2.7-4.18-6.44-1.6-10.21,1.25-1.83,2.55-3.63,3.94-5.36,2.61-3.26,6.48-3.92,9.83-1.47q21.57,15.79,43,31.75c3.29,2.45,3.81,6.16,1.55,9.57a35.59,35.59,0,0,1-4.31,5.76C209.81,215.15,207.86,216,206.19,217.08Z" transform="translate(-33.05 -12.5)"/></svg>