<svg id="Layer_1" data-name="Layer 1" xmlns="http://www.w3.org/2000/svg" viewBox="0 0 235.75 208.87"><defs><style>.cls-1{fill:#231f20;}</style></defs><title>icon-Savings</title><path class="cls-1" d="M66.55,135.32a8.36,8.36,0,0,0,2.62,6.4A22.78,22.78,0,0,0,76.72,146V126.35a12,12,0,0,0-7.49,2.52A8,8,0,0,0,66.55,135.32Z" transform="translate(-6.8 -19.41)"/><path class="cls-1" d="M88.81,165.57a23.26,23.26,0,0,0-7.93-4.21v20.45A11.36,11.36,0,0,0,88.75,179a9.08,9.08,0,0,0,2.85-6.94A8.26,8.26,0,0,0,88.81,165.57Z" transform="translate(-6.8 -19.41)"/><path class="cls-1" d="M80,82a73.15,73.15,0,1,0,73.15,73.15A73.15,73.15,0,0,0,80,82Zm25.1,100.65a21.58,21.58,0,0,1-9.19,8,33.41,33.41,0,0,1-14.87,3h-.11v8.75H76.72v-9q-11.39-1-18.54-7.06a22.11,22.11,0,0,1-7.93-15.8H66.66a12.39,12.39,0,0,0,3.06,6.94,12.14,12.14,0,0,0,7,3.89V159.93l-2.19-.65a94.77,94.77,0,0,1-12.74-4.54A21.92,21.92,0,0,1,53.47,148Q50,143.42,50,136a18.91,18.91,0,0,1,3.44-11.27A22.24,22.24,0,0,1,63,117.27a35.52,35.52,0,0,1,13.73-2.73v-9.19h4.16v9.3q11.37.76,18.1,6.61a21.84,21.84,0,0,1,7.6,14.94H90a11.56,11.56,0,0,0-2.9-6.18,11,11,0,0,0-6.18-3.34v20.78l2.73.88A101.8,101.8,0,0,1,96.3,153a22.19,22.19,0,0,1,8.37,6.84q3.45,4.55,3.45,11.87A20.36,20.36,0,0,1,105.05,182.63Z" transform="translate(-6.8 -19.41)"/><path class="cls-1" d="M165,19.41A77.59,77.59,0,0,0,92,70.74a86.44,86.44,0,0,1,18,4.79A59,59,0,1,1,165.74,156c0,.28,0,.56,0,.84a87.09,87.09,0,0,1-1.8,17.67l1,0a77.57,77.57,0,1,0,0-155.13Z" transform="translate(-6.8 -19.41)"/><path class="cls-1" d="M156.87,63.37v39.9a5,5,0,0,0,3.61,4.79l32.71,9.37a3.93,3.93,0,0,0,5-3.61l0-.63a5,5,0,0,0-2.92-4.78L170.44,94.29l-3.5-27.62c-.61-4.15-1-7.45-4.17-7.73l-1.26,0A4.46,4.46,0,0,0,156.87,63.37Z" transform="translate(-6.8 -19.41)"/></svg>