<svg id="Layer_1" data-name="Layer 1" xmlns="http://www.w3.org/2000/svg" viewBox="0 0 209.01 192.99"><path d="M198.23,60.37H182.29v-8h-3c-13.07,0-26.14,0-39.2,0-13.85.05-25.67-4.74-35.43-14.59-4.24-4.28-8.53-8.52-12.78-12.8a15,15,0,0,0-11-4.78h-58c-.41,0-.82,0-1.44.08-.06.76-.16,1.48-.16,2.2v150c0,4.55,2.8,8,6.86,8.58a8.06,8.06,0,0,0,9-5.9,13.92,13.92,0,0,0,.29-3.48q0-42.85,0-85.7c0-10.74,6.68-17.46,17.34-17.47H197.05c10.52,0,17.26,6.76,17.26,17.3q0,39.19,0,78.41c0,18.76-14.15,32.89-32.92,32.89H30.62c-14.92,0-25.3-10.35-25.3-25.25q0-75.15,0-150.3c0-10.71,6.7-17.39,17.41-17.4,18.76,0,37.53.08,56.29,0,9.83-.06,18.14,3.19,25,10.32,3.93,4.12,8,8.06,12.06,12.11a31.72,31.72,0,0,0,23.65,9.8c13.82-.09,27.64,0,41.46,0,10.21,0,17,6.82,17.08,17Z" transform="translate(-5.31 -4.21)"/></svg>