<svg id="Layer_1" data-name="Layer 1" xmlns="http://www.w3.org/2000/svg" viewBox="0 0 236.06 155.42"><title>icon-People</title><path d="M242.36,174.35c-13.43,0-26.85,0-40.27,0-2.08,0-3.13-.62-4.43-2.41-6.71-9.22-15.32-15.6-27.18-16.48-.7-.05-1.4-.18-2.11-.27-.71-2.69,1-3.48,2.91-4.05,2.83-.88,5.72-1.54,8.54-2.45,4-1.31,4.16-1.57,4.17-5.72v-4.07c-6.41-1-12.8-1.17-18.24-5.2,4.81-7.45,5.29-15.62,5.34-24,0-6.89-.06-13.91,1.12-20.66,2-11.33,10.6-18.1,22.11-18.34a44.64,44.64,0,0,1,10.72.76c9.86,2.25,15,9.15,16.62,18.69.81,4.83.56,9.84.79,14.77.29,6.45.25,12.93,1,19.32.39,3.25,2.26,6.32,3.6,9.83-5,3.48-11.22,3.74-17.7,4.16a63.38,63.38,0,0,0,.1,7.43,3.9,3.9,0,0,0,2.09,2.51,30.12,30.12,0,0,0,6.87,2.28c11.87,2.12,20.8,7.6,23.92,20.07Z" transform="translate(-6.29 -44.68)"/><path d="M156.8,95.81c3,1.5,3,4.5,2.39,7.31a89.07,89.07,0,0,1-3.45,12.43c-.61,1.69-2.36,3-3.59,4.43l-.63-.52c-.43,2.84-.93,5.67-1.27,8.51a21.32,21.32,0,0,1-5.35,11.84,5.41,5.41,0,0,0-1.23,3.32c0,3.23.41,6.45.49,9.69a5.35,5.35,0,0,0,4.25,5.51c6,1.65,11.88,3.53,17.94,4.64,14.84,2.7,25.9,10,31.06,24.62,1.38,3.89,1.7,8.15,2.55,12.52H49A72.14,72.14,0,0,1,50,191.48c3.76-15.52,14-24.31,29.26-27.9,6.8-1.61,13.59-3.27,20.35-5.05a5.92,5.92,0,0,0,4.83-6.26c0-3.23.34-6.46.45-9.69a2.9,2.9,0,0,0-.54-2c-5.84-5.59-6.31-13-7.13-20.37,0-.18-.07-.35-.15-.71-3.08-.43-4.16-2.71-4.84-5.5-.84-3.48-2.07-6.88-2.81-10.38-.64-3-.81-6.12,2.39-8C89.45,87,88.18,78.3,90.15,69.5a31.47,31.47,0,0,1,26.36-24.18c7.31-1.1,14.52-.91,21.57,1.6A31.13,31.13,0,0,1,159.29,77a76,76,0,0,1-.58,9.42C158.29,89.54,157.48,92.58,156.8,95.81Z" transform="translate(-6.29 -44.68)"/><path d="M6.35,174.33c-.76-7.17,6.12-18.91,13.71-20.75,4.09-1,8.07-2.45,12.16-3.48,6.41-1.61,7.17-2.46,7.07-8.93,0-.88-.1-1.76-.16-2.82-6.23-.47-12.46-.7-18.09-4.48,6.5-9.2,5.17-19.57,5-29.76a26.67,26.67,0,0,1-.08-3c.4-4.37.43-8.84,1.41-13.09,2.36-10.23,9.4-16.32,19.89-17.19a42.08,42.08,0,0,1,12.32.74c10,2.19,16.39,9.8,17.33,20.5.53,6,.55,12,.51,18,0,8.19.56,16.18,5.28,23.45-5.38,4.17-11.8,4.22-18.14,5.27a40.64,40.64,0,0,0,.11,6.45,4,4,0,0,0,2.2,2.59c2.92,1.13,6,1.82,9,2.81a15.87,15.87,0,0,1,3.82,1.85,2.11,2.11,0,0,1,.51,1.9c-.14.44-1,.88-1.61.92-12.74.88-21.72,7.7-28.62,17.88a2.42,2.42,0,0,1-1.61,1C34.42,174.35,20.47,174.33,6.35,174.33Z" transform="translate(-6.29 -44.68)"/></svg>