<?xml version="1.0" encoding="utf-8"?>
<!-- Generator: Adobe Illustrator 24.0.3, SVG Export Plug-In . SVG Version: 6.00 Build 0)  -->
<svg version="1.1" id="Layer_1" xmlns="http://www.w3.org/2000/svg" xmlns:xlink="http://www.w3.org/1999/xlink" x="0px" y="0px"
	 viewBox="0 0 232.7 230.2" style="enable-background:new 0 0 232.7 230.2;" xml:space="preserve">
<title>icon-Wallet</title>
<g>
	<path d="M172.7,21.5l-10.3,3.9c-28.8,10.8-57.5,21.5-86.3,32.2c-0.6,0.2-1.2,0.4-1.9,0.4c-12.8,0-25.5,0-38.2,0
		c-0.7,0.1-1.4-0.4-1.6-1.1c-2.2-6,0.5-12,6.6-14.3l94.4-35.3l17.3-6.5c6.4-2.4,12.2,0.3,14.6,6.6l4.9,13
		C172.4,20.8,172.5,21.1,172.7,21.5z"/>
	<path d="M232.7,130.3v37.2h-50.1v-37.2H232.7z"/>
	<path d="M176.5,31.6c3.3,8.8,6.6,17.5,9.9,26.3h-79.7l-0.1-0.2L176.5,31.6z"/>
	<path d="M215.6,120.4v-1.3c0-12.8,0-25.7,0-38.5c0.1-7.1-5.6-13-12.8-13.1c-0.1,0-0.3,0-0.4,0c-58.3,0-116.7,0-175,0
		c-7.1-0.2-13,5.4-13.2,12.5c0,0.2,0,0.4,0,0.6v70.2c6.5-3.3,13.7-5,21-5c26.3,0,47.7,21.7,47.7,48.5c0,13.6-5.6,26.5-15.5,35.8h135
		c7.1,0.2,13-5.4,13.2-12.5c0-0.2,0-0.5,0-0.7c0-12.7,0-25.5,0-38.2c0-0.4,0-0.9-0.1-1.4h-42.8v-56.8H215.6z"/>
	<g>
		<g>
			<g>
				<path d="M35.9,157.4C16.1,157.4,0,173.7,0,193.7S16.1,230,35.9,230s35.9-16.2,35.9-36.3S55.8,157.4,35.9,157.4z M53,197.2H38v15
					h-6v-15H17v-6h15v-15h6v15h15V197.2z"/>
			</g>
		</g>
	</g>
</g>
</svg>
