<svg id="Layer_1" data-name="Layer 1" xmlns="http://www.w3.org/2000/svg" viewBox="0 0 235.26 235.26"><title>icon-Info</title><path d="M85.76,116.34c2.3-.62,4.22-1.31,6.2-1.65,12.26-2.1,16.51,2.27,13.57,14.43-3.18,13.11-7.29,26-10.1,39.19-3.3,15.52,3.13,25.62,19.39,27.08,8.52.76,16.08-2.13,23.88-4.7,5.12-1.69,7.48-4.56,6.89-10.14-2.68.67-5.27,1.51-7.93,2-9.82,1.68-14.52-3.13-12.48-12.87,1.22-5.84,2.94-11.58,4.27-17.4,2.36-10.29,5.25-20.52,6.68-30.94,1.31-9.56-4.3-16.47-13.51-19-10.55-2.94-20.17.59-30,3.84C87.5,107.81,85.56,110.77,85.76,116.34Zm44.71-63.48c-9.6,0-18,7.78-18,16.76s8.25,16.8,17.9,16.89,18.07-7.84,18-16.76S140.06,52.87,130.47,52.86Zm112.5,72A117.63,117.63,0,1,1,125.34,7.2,117.64,117.64,0,0,1,243,124.83Z" transform="translate(-7.71 -7.2)"/></svg>