<?xml version="1.0" encoding="utf-8"?>
<!-- Generator: Adobe Illustrator 24.1.3, SVG Export Plug-In . SVG Version: 6.00 Build 0)  -->
<svg version="1.1" id="Layer_1" xmlns="http://www.w3.org/2000/svg" xmlns:xlink="http://www.w3.org/1999/xlink" x="0px" y="0px"
	 viewBox="0 0 237.4 176.1" style="enable-background:new 0 0 237.4 176.1;" xml:space="preserve">
<g>
	<path d="M230.5,97.3c-2.9-0.3-5.9-0.7-8.9-1c-15.3-1.2-30.2,0.8-44.9,5.1c-12,3.5-23.6,8.3-35.1,13.2c-6.8,2.9-13.6,5.9-20.6,8.6
		c-6.2,2.4-12.5,4.4-18.8,6.6c-7.3,2.6-15.6,4.8-23.3,5.6c-9.5,1-17.3,1.3-26.8,0.5c-7.3-0.6-13.5-4.4-16.8-10.3
		c-0.8-1.2-1.5-3.1-2-4.4c-10.1-24-20.2-48-30.3-72c-2.3-5.4,0-8.5,5.8-7.7c21.3,3.1,41.9,0.1,61.9-7.3c13.4-5,26.4-10.7,39.7-16
		c11-4.5,22.1-9,33.7-11.7c8.1-1.9,16.2-3.4,24.4-3.7c5.6-0.2,10.9-0.4,16.4,0.4c7,1,13,4.3,16.1,8c3.3,4.1,4.8,9,6.7,13.7
		c2.5,6,5.1,11.9,7.7,17.9c6.5,15.5,13.1,31,19.6,46.5c0.2,0.4,0.4,0.9,0.5,1.4C236.9,94.8,235,97.4,230.5,97.3z M82.9,70.8
		c0.6,12.7,7.3,24,20.5,30.9c12.3,6.4,24.6,6.1,36.2-2c13.4-9.4,18.9-26.3,13.7-41.3c-5.5-15.9-21-26.6-37.3-25.7
		C98,33.7,82.9,50.1,82.9,70.8z"/>
	<path d="M230.7,135.4c-3.2-0.3-6.3-0.7-9.5-1c-15.6-1.2-30.8,1-45.7,5.5c-13.8,4.2-27,10-40.3,15.6c-13.2,5.6-26.5,11.1-40.5,14.6
		c-14.9,3.7-30,4.9-45.2,2.8c-7.1-1-12.1-5-15.1-11.3c-3-6.3-5.5-12.9-8.3-19.4c-7.5-17.7-15-35.5-22.4-53.2c-0.5-1.2-1-2.4-1.4-3.7
		c-0.5-1.7-0.4-3.4,1.1-4.7c1.6-1.4,3.6-1.4,5.6-1c0.4,0.1,0.8,0.8,1,1.3c4.4,10.4,8.8,20.9,13.2,31.3c3.4,8.1,7.1,16.2,10.3,24.4
		c2,5.2,5.6,8.9,10.3,11.3c2.5,1.3,5.6,1.8,8.5,2c5.4,0.4,10.8,0.7,16.2,0.6c13.4-0.3,26.4-3,38.9-7.6c12.5-4.6,24.8-9.7,37.2-14.8
		c12.1-5,24.1-9.9,36.8-13.2c14.8-3.9,29.7-5.1,44.9-3.4c1.7,0.2,2.6,0.8,3.2,2.4c1.9,5,3.9,10,5.8,15c0.3,0.9,0.5,1.9,0.3,2.8
		C235.1,134.5,233.7,135.4,230.7,135.4z"/>
	<path d="M126.4,97.6c-0.7-1.7-1.4-3.3-2-4.8c-0.4-1-0.8-1-1.8-0.8c-3.1,0.7-6.2,1.2-9.3,1.8c-1.2,0.2-1.9-0.2-2-1.6
		c-0.3-2.7-0.9-5.4-1.4-8.3c0.7,0,1.3-0.1,1.8-0.1c3.6,0,7-0.7,10.3-2c1.2-0.5,2.4-1.3,3.4-2.2c1.7-1.7,1.2-4.1-1.1-4.7
		c-2-0.5-4.1-0.3-6.2-0.3c-2.3,0-4.7,0.2-7,0c-4.8-0.6-8.7-2.7-10.4-7.6c-1.8-5.1-0.4-9.5,3-13.5c0.4-0.5,0.9-1,1.4-1.5
		c1.7-1.6,1.8-1.6,0.8-3.8c-0.4-0.9-0.7-1.8-1.1-2.7c-0.3-0.7-0.1-1.1,0.6-1.4c1.7-0.8,3.5-1.5,5.2-2.4c0.7-0.3,1.2-0.3,1.5,0.5
		c0.4,1.1,0.9,2.1,1.3,3.1c0.4,1,0.8,1.2,2,0.9c2.5-0.7,5.1-1.1,7.7-1.6c1-0.2,1.4,0.3,1.5,1.2c0.3,2.3,0.7,4.5,1.2,6.8
		c0.2,1.1,0,1.5-1.2,1.5c-3.1,0.1-6.1,0.6-9,2c-1.1,0.5-2.2,1.2-3,2c-1.6,1.5-1.2,3.6,1,4.1c1.9,0.5,3.9,0.4,5.8,0.5
		c2.9,0.1,5.9-0.2,8.8,0.3c9.9,1.7,12.9,12.5,7.9,19.6c-1.1,1.6-2.6,3-4.1,4.3c-0.7,0.7-0.9,1.1-0.5,2c0.7,1.5,1.3,2.9,1.9,4.5
		c0.1,0.3,0,1.1-0.2,1.2C130.8,95.6,128.7,96.6,126.4,97.6z"/>
</g>
</svg>
