<svg id="Layer_1" data-name="Layer 1" xmlns="http://www.w3.org/2000/svg" viewBox="0 0 214.25 226"><path d="M9.28,17.32H45V2H187V17.23h36.4c0,8.37,0,16,0,23.67q0,14.81.13,29.63c.23,28.92-16.18,53.28-42.92,64.17a21.4,21.4,0,0,0-8.15,6.14C163,152.55,151.32,161,136.92,165.28c-3.73,1.12-5.17,2.63-4.94,6.48.38,6.27-1.85,14.13,1.16,18.41,2.72,3.87,11,3.94,16.79,5.54,6.85,1.88,13.8,3.4,20.56,5.54,1.65.53,3.78,2.84,3.87,4.44.41,7.27.18,14.58.18,22.31H57.84c0-7.8-.2-15.45.19-23.07.06-1.36,2.39-3.3,4-3.75q16.53-4.59,33.23-8.56c4-.93,5.51-2.74,5.24-6.88-.37-5.71,1.78-12.59-.74-16.85-2.34-4-9.39-5.11-14.36-7.53a74.54,74.54,0,0,1-26-21.08A17.41,17.41,0,0,0,52.69,135c-22.35-8.94-36.26-25.2-42.54-48.25a15.88,15.88,0,0,1-.83-4C9.27,61.25,9.28,39.76,9.28,17.32ZM92.47,109.2c7.27-3.82,13.54-7.42,20.1-10.38a10.08,10.08,0,0,1,7.37,0c6.57,2.92,12.86,6.49,20.14,10.26-1.35-7.83-2.33-14.64-3.76-21.35-.78-3.67-.08-6.22,2.8-8.8,5.08-4.57,9.73-9.62,15.27-15.17-7.74-1.13-14.49-2.28-21.28-3-3.72-.42-5.93-1.92-7.47-5.47-2.72-6.24-6-12.23-9.57-19.3-3.45,7-6.68,12.81-9.23,18.92-1.67,4-4.21,5.65-8.35,6.09-6.58.71-13.11,1.85-20.26,2.9,5.36,5.45,10,10.55,15,15.13,2.87,2.59,3.61,5.11,2.85,8.79C94.71,94.49,93.78,101.31,92.47,109.2ZM24,33.06c0,2.38,0,4.49,0,6.6C24,50.11,24.28,60.57,24,71c-.46,16.18,6.55,28.85,17.89,39.6a32.37,32.37,0,0,0,3.63,2.75V33.06Zm162.58,0v80.32a25.31,25.31,0,0,0,3.24-2.31c11.11-10.34,18.4-22.39,18-38.26-.3-13.15-.06-26.31-.06-39.75Z" transform="translate(-9.28 -2)"/></svg>