<svg id="Layer_1" data-name="Layer 1" xmlns="http://www.w3.org/2000/svg" viewBox="0 0 246.57 246.14"><defs><style>.cls-1{fill:#010101;}</style></defs><title>icon-HomeCU</title><path class="cls-1" d="M124.56,140.64c-9.13,7-17.75,13.53-25.83,19.76-5.19-7.47-12.25-11.14-19-13a33.36,33.36,0,0,0-32.28,8.8,34.23,34.23,0,0,0-.53,47,31.8,31.8,0,0,0,26.55,10.11C89.1,211.91,96,202.65,99.25,198.47c8.18,5.69,17,11.95,25.34,17.78-14.24,24.48-42.91,35.66-71.7,28.81-29.49-7-49.6-31.78-51-62.81C.52,153.88,18.91,126.6,45.71,117.13,75.25,106.68,105.81,115.38,124.56,140.64Z" transform="translate(-1.78 -1.12)"/><path class="cls-1" d="M30.14,72.43,42.89,61.38V18.52A17.13,17.13,0,0,1,60,1.39h9.64A17.13,17.13,0,0,1,86.79,18.52v5L102.58,9.69a35.1,35.1,0,0,1,46.65.62l91.88,83.93a21.87,21.87,0,0,1,7.11,16.09l.13,75.38c0,42.56-23.67,61.19-53.23,61.55H186c-45,0-57.94-35.61-57.94-64.37l-.28-69.74,38.07,0,.06,72.94c.07,19,10.92,27.32,21.91,27.17C199,213.09,211.1,206.11,211,184l-.62-55.87a20.12,20.12,0,0,0-6.41-14.73L124.07,38.87,53.31,99.33A17.73,17.73,0,0,1,29.1,98.24h0A17.71,17.71,0,0,1,30.14,72.43Z" transform="translate(-1.78 -1.12)"/><path class="cls-1" d="M30.14,72.43,42.89,61.38V18.52A17.13,17.13,0,0,1,60,1.39h9.64A17.13,17.13,0,0,1,86.79,18.52v5L102.58,9.69a35.1,35.1,0,0,1,46.65.62l91.88,83.93a21.87,21.87,0,0,1,7.11,16.09l.13,75.38c0,42.56-23.67,61.19-53.23,61.55H186c-45,0-57.94-35.61-57.94-64.37l-.28-69.74,38.07,0,.06,72.94c.07,19,10.92,27.32,21.91,27.17C199,213.09,211.1,206.11,211,184l-.62-55.87a20.12,20.12,0,0,0-6.41-14.73L124.07,38.87,53.31,99.33A17.73,17.73,0,0,1,29.1,98.24h0A17.71,17.71,0,0,1,30.14,72.43Z" transform="translate(-1.78 -1.12)"/></svg>