<svg id="Layer_1" data-name="Layer 1" xmlns="http://www.w3.org/2000/svg" viewBox="0 0 296.85 249.27"><title>icon-car2</title><path d="M33.36,151.63s1.25,10.31,3.2,12.27,19.37,6.22,19.37,6.22-12.68-5.68-16.88-8S33.36,151.63,33.36,151.63Z" transform="translate(-1.75 -23.74)"/><path d="M83.3,152.17c-3.55-4.09-14-4.51-14-4.51s7.82,3.44,10.66,6.64,6.76,15.1,6.76,15.1S86.85,156.25,83.3,152.17Z" transform="translate(-1.75 -23.74)"/><path d="M47.05,187.89s0,5.33,2.13,7.28,25.06,7.29,25.06,7.29-19.55-7.29-22.4-8.89S47.05,187.89,47.05,187.89Z" transform="translate(-1.75 -23.74)"/><path d="M297.19,81.44c-3.42-2.18-26.13-2.49-28.93,1.24-1.77,2.37-3.92,7.34-5.25,10.68-.18-.62-.37-1.24-.52-1.85-3.79-15.17-19-51.18-23.22-56.87-4.13-5.51-48.67-10.57-87.2-10.88v0h-3.79v0c-38.52.31-83.07,5.37-87.19,10.88-4.27,5.69-19.43,41.7-23.23,56.87-.15.61-.33,1.23-.51,1.85C36,90,33.87,85.05,32.1,82.68,29.3,79,6.59,79.26,3.16,81.44s0,18,3.74,19.91,22.4-3.11,27.06,0c.19.12.36.2.53.29-5.08,13-12.87,28.1-15.11,46.74-2.84,23.69,2.37,60.18,2.37,60.18V273h54v-28s37.92,3.53,72.5,3.78h3.79c34.59-.25,72.51-3.78,72.51-3.78v28h54V208.56s5.22-36.49,2.37-60.18c-2.23-18.64-10-33.75-15.1-46.74a5.54,5.54,0,0,0,.52-.29c4.67-3.11,23.34,1.87,27.07,0S300.61,83.62,297.19,81.44Zm-228-35.9c4.14-4.14,38.59-10.95,79.14-11.35v2.52H131.82c-3.92,0-3.48,11.08,0,11.08h36.71c3.49,0,3.92-11.08,0-11.08H152.07V34.19c40.56.4,75,7.21,79.14,11.35s17.54,42.18,18.49,46-69.86,8.32-99.52,8.52c-29.67-.2-100.45-4.81-99.52-8.52S64.88,49.8,69.14,45.54Zm38.39,144.29c-4.16-9.23-9.23-43.5-7.11-44.77.76-.46,3.17-1.21,7.11-2Zm5.21-47.74c2-.32,4.2-.63,6.63-.93v53.3c-2.57-.33-4.83-.71-6.63-1.13Zm11.85-1.48c2.09-.2,4.28-.39,6.63-.55v55.5c-2.29-.15-4.51-.33-6.63-.53Zm11.85-.86c2.11-.1,4.34-.18,6.63-.25v56.6c-2.2-.06-4.42-.14-6.63-.25Zm11.84,56.46V139.4h3.79v56.81l-1.89,0Zm9-56.71c2.29.07,4.51.15,6.63.25v56.1c-2.21.11-4.44.19-6.63.25Zm11.84.56c2.36.16,4.54.35,6.64.55V195c-2.12.2-4.34.38-6.64.53Zm11.85,1.1q3.66.45,6.64.93v51.24c-1.8.42-4.06.8-6.64,1.13ZM192.83,143a31.53,31.53,0,0,1,7.11,2c2.12,1.27-3,35.54-7.11,44.77ZM33.6,165c-1.42-4.74-4.74-18-2.37-21.8S81.46,146,85.3,148.38,92,175.6,88.57,175.86C69.62,177.28,35,169.7,33.6,165Zm13.27,31.28c-1.9-2.84-6.16-16.11,0-14.22,8.51,2.62,43.24,7.58,43.24,7.58s3.2,18,0,18C83.33,207.61,48.76,199.08,46.87,196.24ZM150.18,238.4c-27.73-.24-73.46-5.67-73.46-5.67s4.74-15.17,11.38-15.17H212.26c6.63,0,11.37,15.17,11.37,15.17S177.91,238.16,150.18,238.4Zm103.31-42.16c-1.9,2.84-36.46,11.37-43.25,11.37-3.19,0,0-18,0-18s34.74-5,43.25-7.58C259.65,180.13,255.38,193.4,253.49,196.24ZM266.76,165c-1.42,4.74-36,12.32-55,10.9-3.44-.26-.57-25.11,3.27-27.48s51.71-9,54.08-5.22S268.18,160.22,266.76,165Z" transform="translate(-1.75 -23.74)"/><path d="M244.42,170.12s17.42-4.27,19.38-6.22S267,151.63,267,151.63s-1.49,8.17-5.68,10.49S244.42,170.12,244.42,170.12Z" transform="translate(-1.75 -23.74)"/><path d="M213.68,169.4s3.91-11.9,6.75-15.1,10.67-6.64,10.67-6.64-10.49.42-14,4.51S213.68,169.4,213.68,169.4Z" transform="translate(-1.75 -23.74)"/><path d="M248.51,193.57c-2.84,1.6-22.39,8.89-22.39,8.89s22.93-5.33,25.06-7.29,2.13-7.28,2.13-7.28S251.36,192,248.51,193.57Z" transform="translate(-1.75 -23.74)"/></svg>