<?xml version="1.0" encoding="utf-8"?>
<!-- Generator: Adobe Illustrator 24.1.3, SVG Export Plug-In . SVG Version: 6.00 Build 0)  -->
<svg version="1.1" id="Layer_1" xmlns="http://www.w3.org/2000/svg" xmlns:xlink="http://www.w3.org/1999/xlink" x="0px" y="0px"
	 viewBox="0 0 401.7 409.3" style="enable-background:new 0 0 401.7 409.3;" xml:space="preserve">
<g>
	<path d="M212.1,210.9c-13-12.6-27.5-23.7-39.9-36.9c-3.9-4.2-7.7-8.6-11.2-13.3c1,3.5,2.1,6.9,3.3,10.4c1,2.8,0.7,4.4-1.3,6.5
		c-20.7,20.6-41.2,41.2-61.8,61.9c-30.3,30.4-60.6,60.7-90.7,91.2c-2.6,2.6-3.9,6.9-4.7,10.7c-1.1,5-1.1,10.2-1.6,15.3
		c-1.1,11.5-2.3,22.9-3.1,34.4c-0.4,6,3.2,11.2,8.4,11.9c15,1.9,30,3.6,45,5c6.6,0.6,11.2-4.1,11.6-10.8c0.1-2.2-0.4-4.3-0.4-6.5
		c-0.1-7.2,0-14.5,0-21c9.1,0,17.8,0,26.5,0c8.5,0,12.6-5.3,12-13.9c-0.6-8.3-0.1-16.7-0.1-24.5c8.7,0,17.4,0,26,0
		c8.7,0,12.6-4.5,12.3-13.2c-0.3-8.5-0.1-17-0.1-25.2c8,0,16.2-0.3,24.4,0.1c5.4,0.2,9.5-1.5,13.3-5.4c15-15.4,30.4-30.5,45.4-45.9
		c2.7-2.8,4.9-3.1,8.5-1.8c5.8,2.2,11.7,4,17.6,5.3C237.7,234.7,224.7,223,212.1,210.9z M161.1,234.8
		c-34.3,34.3-68.5,68.7-102.7,103c-1.8,1.8-3.5,3.6-5.6,5c-3.4,2.3-6.9,1.9-9.8-1c-2.9-2.9-3.2-6.6-0.5-9.7
		c3.9-4.6,8.3-8.9,12.6-13.2c39.8-40,79.7-79.9,119.6-119.8c0.8-0.8,1.6-1.5,2.8-2.7c3.3,4.2,6.4,8.1,10.2,12.8
		C178.8,217.7,169.8,226.1,161.1,234.8z"/>
	<g>
		<g>
			<path d="M276.3,2.7c-67.7,0-122.6,54.9-122.6,122.6S208.6,248,276.3,248S399,193.1,399,125.3S344.1,2.7,276.3,2.7z M298.3,135.2
				c-23.8,0-43.2-19.3-43.2-43.2c0-23.8,19.3-43.2,43.2-43.2c23.8,0,43.2,19.3,43.2,43.2C341.5,115.8,322.2,135.2,298.3,135.2z"/>
		</g>
	</g>
</g>
</svg>
