<svg id="Layer_1" data-name="Layer 1" xmlns="http://www.w3.org/2000/svg" viewBox="0 0 172.93 214.25"><title>icon-Phone</title><path d="M153.1,233.19c-18.82.1-32-5.16-43.78-14.09-11.53-8.71-20.82-19.55-29.25-31.16a301.27,301.27,0,0,1-38.23-69.81,122.16,122.16,0,0,1-7.49-29.24C32,68.83,37.14,51.07,50.74,35.94c4.75-5.29,9.81-10.25,16-13.92a19.79,19.79,0,0,1,8.59-3A8.61,8.61,0,0,1,83,21.93a22.13,22.13,0,0,1,3,4.23c6.76,13.1,12.72,26.54,16.83,40.73a31.56,31.56,0,0,1,.81,3.59c.63,3.82-.54,6.87-4.11,8.51-4.18,1.92-8.64,3.22-13,4.75-1.31.46-2.68.76-4,1.14C75.78,86.81,73.4,90.75,75,97.51a136.43,136.43,0,0,0,10.49,28.33c7.92,16.26,17.21,31.67,29,45.48a91.51,91.51,0,0,0,9.11,9.36c4.45,3.9,8.59,3.67,13-.34,3-2.79,5.94-5.76,9-8.51a36.49,36.49,0,0,1,5.36-4c3.16-1.93,6.43-1.76,9.13.75,3.33,3.12,6.48,6.46,9.5,9.89,7.3,8.27,13.54,17.33,19.6,26.52a31.18,31.18,0,0,1,2.36,4.42c1.87,4.14,1,7.84-2.06,11.08A27,27,0,0,1,180,226.7C170.18,230.84,160,233.11,153.1,233.19Z" transform="translate(-33.79 -18.94)"/><path d="M206.72,139.46c-.6,5.93-1.14,11.87-1.83,17.79a5.94,5.94,0,0,1-6.28,5.28,5.84,5.84,0,0,1-5.45-6.56c.41-5.39,1.3-10.78,1.3-16.16,0-26.36-9.3-49-27.45-68.07a94.17,94.17,0,0,0-34.66-22.85,9.56,9.56,0,0,1-3.47-2.18,5.62,5.62,0,0,1-.35-7.11,5.86,5.86,0,0,1,7.12-2.11A104.92,104.92,0,0,1,165.9,54.7a108.1,108.1,0,0,1,37.82,60.81A124,124,0,0,1,206.72,139.46Z" transform="translate(-33.79 -18.94)"/><path d="M183.14,138.78c-.37,4.47-.63,8.37-1,12.25a5.83,5.83,0,0,1-6.35,5.33,5.71,5.71,0,0,1-5.41-6.23c.17-3.73.67-7.46.68-11.19a73.27,73.27,0,0,0-44.78-67.17c-2.47-1-4.47-2.38-4.8-5.23-.56-4.76,3.83-8,8.4-6.14a81.84,81.84,0,0,1,22,13.15,84.68,84.68,0,0,1,29.77,51.3C182.52,129.61,182.7,134.49,183.14,138.78Z" transform="translate(-33.79 -18.94)"/><path d="M159.59,138.35c-.22,3.05-.21,5.19-.58,7.26a5.69,5.69,0,0,1-6.57,4.59,5.87,5.87,0,0,1-5-6.3,50,50,0,0,0-28.52-49.76A5.92,5.92,0,1,1,124,83.47q27.86,13.74,34.3,44.17C159.08,131.44,159.24,135.37,159.59,138.35Z" transform="translate(-33.79 -18.94)"/></svg>