<svg id="Layer_1" data-name="Layer 1" xmlns="http://www.w3.org/2000/svg" viewBox="0 0 295.65 214.04"><title>icon-car3</title><path d="M132.1,66.88h36.16c3.11,0,3.49-9.89,0-9.89H153.09V53.53h-5.83V57H132.1C128.6,57,129,66.88,132.1,66.88Z" transform="translate(-2.35 -41.36)"/><path d="M22.14,143.47S19.74,166.56,45,162C45,162,25.51,162.47,22.14,143.47Z" transform="translate(-2.35 -41.36)"/><path d="M23.65,194.51S21.89,211.36,40.32,208C40.32,208,26.11,208.38,23.65,194.51Z" transform="translate(-2.35 -41.36)"/><path d="M290.63,210.18s1.92-70.7,0-80.32c-1.64-8.2-24.2-15.69-31.75-18.62,4.48-1.64,17.48,1.7,20.2.34,2.89-1.44,5.53-13.71,2.89-15.39s-20.2-1.93-22.37,1c-1.55,2.07-3.46,6.71-4.43,9.19C252,95,244.55,61.84,242.53,55.79c-2.41-7.22-18.28-14.43-92.35-14.43s-90,7.21-92.35,14.43c-2,6.05-9.45,39.19-12.65,50.55-1-2.48-2.88-7.12-4.43-9.19-2.16-2.89-19.72-2.65-22.36-1s0,14,2.88,15.39,15.72-2,20.21-.34c-7.55,2.93-30.11,10.42-31.75,18.62-1.92,9.62,0,80.32,0,80.32L3,214.51s-1.45,15.87,0,16.84,11.54,2.4,11.54,2.4l3.37,21.64h39V232.31H243.49v23.08h39l3.37-21.64s10.1-1.44,11.54-2.4,0-16.84,0-16.84ZM66.49,62.52c7.69-9,63.5-8.32,83.69-9.14,20.18.82,76,.15,83.69,9.14,3.22,3.76,9.62,41.85,10.1,47.14s-70.7,7.69-93.79,7.69S55.9,115,56.39,109.66,63.27,66.28,66.49,62.52ZM58.64,197.2H241.72a20.39,20.39,0,0,1-.67,4.56H59.3A21,21,0,0,1,58.64,197.2Zm91.54-4.57H58.88A25.81,25.81,0,0,1,60,188.06H240.41a25.8,25.8,0,0,1,1.06,4.57Zm0-9.14h-88c1.63-2.38,3.75-3.93,6.25-3.93H232c2.49,0,4.62,1.55,6.25,3.93Zm-65.9-39.2H216.07c14.91,0,15.88,18.27,0,18.27H84.28C68.41,162.56,69.37,144.29,84.28,144.29ZM35.22,209.7a12.51,12.51,0,1,1,12.51-12.5A12.5,12.5,0,0,1,35.22,209.7ZM38.11,165a18.76,18.76,0,1,1,18.76-18.76A18.76,18.76,0,0,1,38.11,165ZM232,209.7H68.41a8.37,8.37,0,0,1-6.95-3.37H238.9A8.37,8.37,0,0,1,232,209.7Zm33.18,0a12.51,12.51,0,1,1,12.51-12.5A12.5,12.5,0,0,1,265.13,209.7ZM262.25,165A18.76,18.76,0,1,1,281,146.21,18.76,18.76,0,0,1,262.25,165Z" transform="translate(-2.35 -41.36)"/><path d="M255.37,162c25.25,4.57,22.84-18.52,22.84-18.52C274.85,162.47,255.37,162,255.37,162Z" transform="translate(-2.35 -41.36)"/><path d="M260,208c18.43,3.33,16.67-13.52,16.67-13.52C274.25,208.38,260,208,260,208Z" transform="translate(-2.35 -41.36)"/><circle cx="147.82" cy="111.29" r="6.13"/></svg>