<svg id="Layer_1" data-name="Layer 1" xmlns="http://www.w3.org/2000/svg" viewBox="0 0 221.67 212"><path d="M47.16,221c2.45-7.75,4.6-14.67,6.82-21.58,5.82-18.05,11.58-36.12,17.57-54.12,1.12-3.34.85-5.35-2.18-7.55C49.41,123.24,7.92,91.63,6,89.57c7.53,0,15.06,0,22.59,0,18.51-.07,37-.26,55.53-.15,4,0,6-.85,7.37-5.09,7.4-23.66,15.21-47.19,22.9-70.77.4-1.25.9-2.47,1.68-4.57,1.27,3.35,2.36,5.91,3.22,8.55C126.63,40,134.07,62.43,141.15,85c1.15,3.69,2.82,4.42,6.27,4.42,25.18.06,77.8.63,80.23.78-7,5.12-13.09,9.57-19.17,14-15,11.06-30,22.18-45.15,33.13-3.2,2.31-3.84,4.52-2.57,8.34,8,23.83,15.61,47.75,23.35,71.65.25.76.33,1.58.72,3.53-8-5.7-15.28-10.76-22.44-15.94-14.32-10.34-28.69-20.62-42.82-31.22-3.28-2.46-5.14-.76-7.4.87q-30.49,21.83-61,43.68C50.15,219,49,219.71,47.16,221Z" transform="translate(-5.98 -8.98)"/></svg>