<svg id="Layer_1" data-name="Layer 1" xmlns="http://www.w3.org/2000/svg" viewBox="0 0 160.75 101.92"><path d="M144.77,106.21H19.56V105q0-36.79,0-73.6a8.29,8.29,0,0,1,8.71-8.7H135.74c5.61,0,9,3.43,9,9q0,36.58,0,73.18ZM135.59,31.9H28.68V97.08H135.59Z" transform="translate(-1.74 -22.73)"/><path d="M1.74,111H61.16c.05.2.1.39.14.59a4.58,4.58,0,0,0,4.73,3.9c3.94,0,7.88,0,11.82,0H97.66c3.29,0,4.84-1.26,5.49-4.49h59.31a10.44,10.44,0,0,1-1,5.09A13.56,13.56,0,0,1,149,124.61c-2,.08-4,0-6,0H16.06c-6.83,0-12.3-4.15-13.86-10.53C2,113.11,1.9,112.08,1.74,111Z" transform="translate(-1.74 -22.73)"/></svg>