<svg id="Layer_1" data-name="Layer 1" xmlns="http://www.w3.org/2000/svg" viewBox="0 0 238.02 194.42"><title>icon-Certificate</title><path d="M241.53,190.57c-3.41,6.78-8.88,10.91-16.61,11.21-6.86.27-13.74.06-21,.06V198.4c0-8.51,0-17,.1-25.55a5.71,5.71,0,0,1,1.38-3.21,34.25,34.25,0,0,0,8.36-23.7c-.5-15.68-13.34-30-28.68-32.62a34.84,34.84,0,0,0-39.75,26.42C142.85,151,145.28,161.17,153,170a5.38,5.38,0,0,1,1.25,3.22c.1,9.52,0,19,0,28.88H75.73Q51.1,202,26.47,202c-6.79,0-12.49-2.36-16.76-7.86a19.83,19.83,0,0,1-4.13-12.5q-.06-64,0-128C5.6,42,14.44,33.45,26,33.45q98.4,0,196.82-.05c10,0,19.24,7.11,20.4,17.13,0,.2.23.38.35.57v133C242.9,186.24,242.53,188.57,241.53,190.57ZM213.64,92.84V83.12H35.47v9.72ZM35.37,122.54h89V113h-89ZM94.73,142.7H35.44v9.59H94.73Z" transform="translate(-5.54 -33.4)"/><path d="M179.08,172.15a24.68,24.68,0,0,0,24.78-24.68c.12-13.08-11.06-24.56-23.82-24.81-14.36-.28-25.44,11-25.69,24.06A24.55,24.55,0,0,0,179.08,172.15Z" transform="translate(-5.54 -33.4)"/><path d="M193.76,179.26a38.79,38.79,0,0,1-29.48,0V227.4l14.46-14.92,15,15.33Z" transform="translate(-5.54 -33.4)"/></svg>