<?xml version="1.0" encoding="utf-8"?>
<!-- Generator: Adobe Illustrator 24.2.0, SVG Export Plug-In . SVG Version: 6.00 Build 0)  -->
<svg version="1.1" id="Layer_1" xmlns="http://www.w3.org/2000/svg" xmlns:xlink="http://www.w3.org/1999/xlink" x="0px" y="0px"
	 viewBox="0 0 153.3 174.1" style="enable-background:new 0 0 153.3 174.1;" xml:space="preserve">
<path d="M76.7,174.1c-8.8-0.4-17.6-0.7-26.3-1.3c-8.7-0.5-17.3-2.3-25.5-5.3c-6.7-2.6-12.5-6.4-16.9-12.3c-3.2-4.5-5.5-9.7-6.5-15.1
	c-2.8-12.5-1.6-25.6,3.2-37.5c6.4-15.8,16.3-28.7,30-38.3c2.7-1.9,5.6-3.3,8.4-4.9c0.5-0.3,1.1-0.3,1.6,0.1c6.4,4.1,13.5,6.9,21,8.1
	c10.2,1.6,20.6-0.2,29.7-5.1c2.7-1.4,5.2-3.3,7.9-4.9c0.4-0.2,0.8-0.3,1.2-0.1c19.3,8.7,34.1,22.5,43.3,42.3
	c4.3,9.4,6.2,19.7,5.5,30c-0.2,5.7-1.3,11.4-3.2,16.8c-2.9,8-8.7,14.6-16.3,18.5c-6.7,3.6-13.9,5.3-21.2,6.5
	c-11,1.8-22.6,2.1-35.7,2.2L76.7,174.1z M77.7,154.9c0-1.8,0-3.6,0-5.3c0-0.8,0.1-1.2,1-1.2c0.7,0,1.4-0.2,2.1-0.4
	c7.8-2,13.5-7.6,13.7-16.7c0.1-6-2.1-10.7-7.3-13.4c-2.7-1.3-5.5-2.4-8.3-3.2c-3.3-1.2-6.8-2-10-3.3c-3-1-5.1-3.7-5.3-6.8
	c-0.3-3.7,0.6-6.9,3.8-9.1c2.1-1.3,4.5-1.9,6.9-1.8c5.2-0.1,9.1,2.5,10.9,7.5c0.3,0.7,0.3,1.8,0.8,2.1s1.5,0.1,2.3,0.1
	c1.3,0,2.6,0,4,0c-0.2-0.9-0.4-1.6-0.6-2.4c-2-7.1-6-12.1-13.3-13.7c-0.6-0.1-0.7-0.4-0.7-1c0-2,0-4,0-6c0-0.3,0-0.7,0-1h-6.5v7.5
	l-1,0.2c-7.8,1.7-13.9,7.6-14,17c-0.1,6.3,2.4,10.9,8.1,13.4c2.1,0.8,4.2,1.5,6.3,2.1c3.4,1.1,6.8,1.8,10.1,3.1
	c3.7,1.4,6.1,4.1,6.2,8.5c0.1,5.1-1.8,9-7.1,10.2c-2.2,0.5-4.5,0.7-6.7,0.6c-5.7-0.3-9.9-4-11.2-9.6c-0.2-1-0.3-2-0.5-3h-6.4
	c0.2,3.3,1,6.5,2.5,9.5c2.7,5.2,7.1,8,12.6,9.4c1.6,0.4,1.3,0,1.3,1.8s0,3.3,0,4.9L77.7,154.9z"/>
<path d="M39.9,33.3c1.7,1,3.2,2.1,4.9,2.9c5.1,2.5,10.2,2.9,15.2-0.1c1.8-1.3,3.4-2.6,5-4.1c0.9-0.7,1.8-1.4,2.7-2
	c0.9-0.8,2.3-0.7,3.1,0.2c1,0.8,1.9,1.7,2.7,2.7c4.5,6.2,11.2,6.1,16.4,2.9c2.1-1.4,4.1-3,5.9-4.7c4.1-3.4,8.1-6.9,12.1-10.4
	c0.9-0.7,1.7-1.6,2.6-2.3c-0.1,0.5-0.3,0.9-0.5,1.3c-1.2,2-2.3,4.1-3.6,6.1c-5,7.5-7.9,15.6-7.6,24.8c0,0.5-0.2,0.9-0.6,1.2
	C90,58,80.7,61.2,70.4,60.6c-7.5-0.4-14.7-2.8-21-6.8c-0.3-0.2-0.5-0.5-0.6-0.9c-0.8-7.4-4-13.7-8.7-19.2L39.9,33.3z"/>
<path d="M33.9,14.7c1.7-1.2,3.6-2,5.7-2.2c3.6-0.3,7.1-0.4,10.7-0.6c1.7-0.1,3.3-0.3,4.9-0.6c2-0.4,3.7-1.6,4.8-3.3
	c1.2-1.7,2.5-3.2,3.9-4.6c4.5-4.2,9.4-4.6,14.4-1.1c2.3,1.6,4.3,3.4,6.2,5.4c1.6,1.8,4.1,2.6,6.4,2.1c2.7-0.5,5.4-1.2,8.2-1.8
	c2.4-0.6,4.8-0.7,7.2-0.3c0.9,0.2,1.7,0.5,2.6,0.9c-0.7,1.1-1.5,2.1-2.4,3c-3.3,3.1-6.6,6.1-10,9.1c-2.7,2.4-5.3,4.7-8.1,6.9
	c-1.3,1-2.7,1.8-4.2,2.4c-1.7,0.7-3.7,0.1-4.7-1.5c-1.2-1.5-2.5-2.9-3.9-4.1c-4.1-3.4-8.4-3.5-12.8-0.3c-1.6,1.2-3.2,2.6-4.6,4
	c-2.2,2.4-5.6,3.1-8.6,2c-2.6-0.9-5-2.4-7-4.3C39.2,22.6,36.2,18.9,33.9,14.7z"/>
<path d="M114.5,51c2,0.4,3.7,0.6,5.3,1c6.1,1.4,11.6,4.7,15.8,9.3c2.1,2.3,1.3,5.7-1.5,6.5c-0.6,0.2-1.3,0.1-1.8-0.4
	c-7.5-7-16.1-12.7-25.5-16.8c-0.5-0.2-0.8-0.6-0.7-1.1c-0.1-2.8-0.1-2.8,2.3-4c4.8-2.6,10.3-4,15.8-4c5.1,0.2,10,1.6,14.4,4.2
	c1.8,1,2.4,3.3,1.4,5.1c-0.8,1.7-2.9,2.5-4.7,1.6c0,0-0.1,0-0.1,0c-2.6-1.5-5.5-2.5-8.5-3C122.6,48.8,118.4,49.3,114.5,51z"/>
</svg>
