<?xml version="1.0" encoding="utf-8"?>
<!-- Generator: Adobe Illustrator 24.1.3, SVG Export Plug-In . SVG Version: 6.00 Build 0)  -->
<svg version="1.1" id="Layer_1" xmlns="http://www.w3.org/2000/svg" xmlns:xlink="http://www.w3.org/1999/xlink" x="0px" y="0px"
	 viewBox="0 0 447 414" style="enable-background:new 0 0 447 414;" xml:space="preserve">
<g>
	<path d="M5,198.4c0.3-6.6,6.4-11.2,13.2-11.7c7.6-0.7,15.4-0.3,23.1,0.1c4.7,0.2,8.1,0.1,10.6-5.2c4-8.4,9.1-16.4,14.5-24
		c2.5-3.5,3-6.1,1.7-9.9c-5-14.5-9.9-29-14.3-43.7c-1-3.2-0.6-7.9,1.2-10.6c2.4-3.7,7.1-2.7,11-1.5c17.8,5.9,35.7,11.7,53.5,17.8
		c3.3,1.1,6,1.1,9.3-0.4c7.8-3.5,15.8-6.6,24-9.1c9.3-2.8,14.3-3.8,24.1-6.2c-1.5,57.5,24.2,93.5,68.8,113.5
		C284,226,336,218.3,374.2,183.3c2.3,5.4,4.5,10.1,6.4,15.1c1.9,5.1,3.3,10.3,5,15.4c4.4-1.5,8.7-3.3,13.1-4.5
		c25.8-7.1,48.4,12.4,45.4,37.5c-1.9,16.4-22.2,28-36.6,20.2c-8.1-4.4-11.6-11.6-11.1-20.5c0.4-7.5,5.1-12.1,11.6-14.8
		c8.2-3.5,15.7,1.5,13.8,9.6c-0.7,3-4.3,5.3-7.3,8.8c0.9,0.5,2.8,2.4,4.6,2.4c4.6-0.1,8.1-4.2,8.4-8.9c0.8-11.4-10.6-21.4-21.9-18.5
		c-4.6,1.2-8.8,4.1-13.2,6.3c-3.2,1.6-4.4,4-4.2,7.6c0.8,12.6-0.4,25.2-3.7,37.4c-6.3,23.3-17.4,44.1-34.4,61.4
		c-7.2,7.3-15.2,13.8-22.7,20.8c-1.3,1.2-2.8,3.2-2.8,4.8c-0.1,10.4-0.1,20.8,0.4,31.1c0.4,7.8-8.1,16.6-16,16.3
		c-10.7-0.5-21.4-0.7-32.1-0.5c-8.2,0.2-15.2-5.1-16.2-13c-0.3-2.6-0.7-5.2-1.1-7.9c-31.2,6.6-62.3,7.3-93.3-0.1
		c-0.3,0.4-0.6,0.7-0.6,1c-0.1,1.7-0.1,3.3-0.2,5c-0.4,8.4-8.7,15.8-16.3,15.5c-10.7-0.5-21.4-0.7-32.1-0.4
		c-8.4,0.2-15.9-5.9-16-14.3c-0.1-8.7,0-17.5,0-26.2c-0.1-6-0.8-11.2-6.7-15.2c-10.2-6.8-18.5-15.8-26.1-25.5
		c-10.4-13.2-18.5-27.4-24-43.2c-0.4-1.1-1.9-2.5-2.9-2.6c-5.9-0.3-11.9-0.7-17.7-0.1c-9.4,1-18-6.2-18.3-15.7
		C4.9,265.9,4,222.7,5,198.4z M101.4,170.7c-0.1,8.5,6.4,15.3,14.7,15.4c9.2,0.2,15.8-6.2,15.8-15.3c0-8.5-6.5-15.1-14.9-15.2
		C108.5,155.5,101.5,162.3,101.4,170.7z"/>
</g>
<g>
	<g>
		<path d="M293,4.5c-53.6,0-97,43.4-97,97c0,53.6,43.4,97,97,97c53.6,0,97-43.4,97-97C390,47.9,346.6,4.5,293,4.5z M320.4,133.8
			c-4.1,5.1-9.8,8.5-17.2,10.4v22.7h-18v-21.6c-11-1-20.4-5.5-28.4-13.4l12.7-14.1c6.5,5.8,13.1,8.7,19.8,8.7c3.4,0,5.9-0.8,7.5-2.4
			c1.6-1.6,2.4-3.6,2.4-6.2c0-2.7-0.9-4.9-2.8-6.6c-1.8-1.8-5.2-3.6-10.1-5.4c-9.7-3.7-16.4-7.7-20.2-12.2
			c-3.8-4.4-5.7-10.1-5.7-16.9c0-7.3,2.3-13.3,6.8-18.1c4.5-4.8,10.5-7.9,18-9.3V29h18v20.6c8.2,1.6,15.4,5.4,21.4,11.5l-11.3,13.7
			c-5.5-4.8-11.2-7.2-17-7.2c-2.9,0-5,0.6-6.5,1.9c-1.5,1.2-2.2,2.9-2.2,5.1c0,1.6,0.4,2.9,1.2,3.9c0.8,1,2.2,2,4.2,3
			c2,1,5,2.3,9.1,3.9c8.8,3.4,15,7.4,18.8,11.8c3.8,4.5,5.7,10.6,5.7,18.3C326.5,122.6,324.5,128.8,320.4,133.8z"/>
	</g>
</g>
</svg>
