<svg id="Layer_1" data-name="Layer 1" xmlns="http://www.w3.org/2000/svg" viewBox="0 0 237.98 191.89"><title>icon-Camera</title><path d="M41.26,50c2.05-4.87,4-6.15,9.13-6.15,3,0,5.93,0,8.89,0a7.32,7.32,0,0,1,7.45,4.83,1.91,1.91,0,0,0,2.21,1.34c4.51,0,9-.06,13.55,0a2.69,2.69,0,0,0,2.7-1.48c2.75-4.6,5.64-9.1,8.38-13.7a2.67,2.67,0,0,1,2.7-1.49c3.45.08,6.91,0,10.65,0V28h35.13v5.43c3.64,0,7,.12,10.37-.05a3.4,3.4,0,0,1,3.48,2q4,6.72,8.22,13.3a3.32,3.32,0,0,0,2.29,1.3c4.65.12,9.31,0,14,.07a1.77,1.77,0,0,0,2-1.31,7.37,7.37,0,0,1,7.44-4.86c3,0,6.07,0,9.1,0,5,0,7,1.38,8.91,6.15h10.26a25,25,0,0,1,24.73,19.41,23,23,0,0,1,.7,5.21c.06,14,0,28.08,0,42.12,0,.34,0,.68-.07,1.19-.65,0-1.26.12-1.86.12-15.25,0-30.49,0-45.74,0a2.85,2.85,0,0,1-2.86-1.8c-10.69-18.59-26.86-27.68-48.2-26-17.61,1.42-30.65,10.73-39.18,26.22a2.34,2.34,0,0,1-2.35,1.55q-48.16-.06-96.34,0c-.35,0-.7,0-1.37-.07v-2.25q0-20.1,0-40.2A25.16,25.16,0,0,1,31.21,50Z" transform="translate(-5.58 -27.99)"/><path d="M5.66,135.11h94.39c-.7,18.15,5.61,33.12,20.31,44.07a47.59,47.59,0,0,0,32,9.4,49.55,49.55,0,0,0,46.39-53.37h44.84v58.47c0,15.27-10.81,26.15-26,26.15q-92.73,0-185.47,0c-14.44,0-23.64-9.57-25.75-19.5a25.76,25.76,0,0,1-.68-5.22q-.06-29.41,0-58.83C5.59,136,5.63,135.65,5.66,135.11Z" transform="translate(-5.58 -27.99)"/><path d="M149.38,97.75c22.83,0,41.65,18.48,41.66,41,0,23.61-18.19,42.39-41.63,42.31a41.64,41.64,0,1,1,0-83.27Zm-.15,6.65a34.85,34.85,0,0,0-34.83,35.42c.1,19.23,15.95,34.62,35.58,34.54,19-.08,34.46-16,34.37-35.27A34.81,34.81,0,0,0,149.23,104.4Z" transform="translate(-5.58 -27.99)"/></svg>