<?xml version="1.0" encoding="utf-8"?>
<!-- Generator: Adobe Illustrator 24.1.2, SVG Export Plug-In . SVG Version: 6.00 Build 0)  -->
<svg version="1.1" id="Layer_1" xmlns="http://www.w3.org/2000/svg" xmlns:xlink="http://www.w3.org/1999/xlink" x="0px" y="0px"
	 viewBox="0 0 209.1 242.4" style="enable-background:new 0 0 209.1 242.4;" xml:space="preserve">
<path d="M208.3,121.1c-2.3-10.1-11.1-17.5-21.5-17.8c-4.1-0.1-8.1,0-12.6,0v-2.8c-0.1-8.6,0.3-27.2-0.4-35.8
	c-2-23.8-13.4-42.1-33.7-54.3c-41.3-25.1-95.7-0.5-104,47c-0.9,5.2-1,10.6-1.2,15.9h34.9c0-2.4,0.1-4.7,0.3-7.1
	c0.9-14.7,13.9-28.2,28.5-30.3c19.6-2.8,36.2,8.9,40.1,28.2c0.4,2.3,0.6,4.7,0.6,7c0,7.3,0,24.6,0,32.1l-69.4,0
	c-0.1-0.3-42.8,0.1-46.6,0.1c-11-0.1-20.5,7.6-22.7,18.4c-0.4,2-0.6,4-0.6,6.1v90.2c0,12.6,6.8,21.2,19.2,24.2
	c0.2,0.1,0.4,0.2,0.6,0.3h169.4c1.4-0.4,2.9-0.8,4.3-1.4c8.8-3.4,13.9-9.8,15.2-19.1c0.1-0.6,0.3-1.2,0.4-1.8v-94.7
	C208.8,124,208.6,122.6,208.3,121.1z M118,179.9c-1.4,0.9-2.2,2.4-2,4.1c0.1,6.9,0,13.9,0,20.8v2.6H93.1c0-0.9-0.1-1.7-0.1-2.5
	c0-7.2-0.1-14.5,0-21.7c0.1-1.2-0.5-2.3-1.6-2.9c-3.8-2.6-6.7-6.2-8.4-10.4c-4.8-11.8,0.8-25.3,12.7-30.2
	c11.8-4.8,25.3,0.8,30.2,12.7C130,162.3,126.7,173.7,118,179.9z"/>
</svg>
