<?xml version="1.0" encoding="utf-8"?>
<!-- Generator: Adobe Illustrator 24.2.0, SVG Export Plug-In . SVG Version: 6.00 Build 0)  -->
<svg version="1.1" id="Layer_1" xmlns="http://www.w3.org/2000/svg" xmlns:xlink="http://www.w3.org/1999/xlink" x="0px" y="0px"
	 viewBox="0 0 159.3 137.6" style="enable-background:new 0 0 159.3 137.6;" xml:space="preserve">
<path d="M143.9,179.1c-0.1,0-0.3,0.2-0.4,0.1s-0.2-0.2-0.3-0.4c0.1,0,0.3,0,0.4,0C143.8,178.9,143.9,179.1,143.9,179.1z"/>
<rect x="61.3" y="109.2" width="38.1" height="25.4"/>
<path d="M34.1,127.4h93.3c2.4,0,4.4,2,4.4,4.4l0,0c0,2.4-2,4.4-4.4,4.4H34.1c-2.4,0-4.4-2-4.4-4.4l0,0
	C29.7,129.4,31.7,127.4,34.1,127.4z"/>
<path d="M147.6,0H11.7C5.2,0,0,5.2,0,11.7v87.1c0,6.5,5.2,11.7,11.7,11.7c0,0,0,0,0,0h135.9c6.5,0,11.7-5.2,11.7-11.7c0,0,0,0,0,0
	V11.7C159.3,5.2,154.1,0,147.6,0z M80.1,106.7c-2.5,0-4.5-2-4.5-4.5c0-2.5,2-4.5,4.5-4.5c2.5,0,4.5,2,4.5,4.5c0,0,0,0,0,0
	C84.6,104.7,82.6,106.7,80.1,106.7C80.1,106.7,80.1,106.7,80.1,106.7z M150.3,87.4c0,2.4-1.9,4.3-4.3,4.3H13.2
	c-2.4,0-4.3-1.9-4.3-4.3l0,0V13.2c0-2.4,1.9-4.3,4.3-4.3H146c2.4,0,4.3,1.9,4.3,4.3v0L150.3,87.4z"/>
</svg>
