<svg id="Layer_1" data-name="Layer 1" xmlns="http://www.w3.org/2000/svg" viewBox="0 0 188.27 222.7"><title>icon-Trash</title><path d="M47.89,72.81h153.7c.1,1.69.27,3.26.27,4.84q-.09,65.92-.23,131.85c0,15.28-10.21,25.72-25.41,25.78-34.33.13-68.66-.2-103,.15C58.1,235.58,47.7,222.38,47.7,211q0-67.92-.18-135.83A17,17,0,0,1,47.89,72.81Zm68.24,128.67c4.24,0,8.05-.32,11.78.08,4.68.5,5.82-1.26,5.79-5.78-.19-30.65-.09-61.3-.11-91.94,0-1.62-.13-3.24-.22-5.1H116.13ZM82,98.66c-.09,1.92-.22,3.39-.22,4.86q0,46.28,0,92.53c0,1-.27,2.14.13,2.95.49,1,1.53,2.3,2.38,2.34,4.75.23,9.51.11,14.46.11V98.66ZM167.3,201.2V98.86H150.81V201.2Z" transform="translate(-30.64 -12.73)"/><path d="M81.09,38.34c.83-4.21,1.22-7.69,2.21-11a20.09,20.09,0,0,1,19.28-14.44c13.76-.11,27.53.21,41.28-.17,14-.38,22.38,8.14,23.86,21.34.12,1.14.22,2.28.4,4.26h11.77q10.44,0,20.89,0c4.34,0,7.18,1.73,9.47,5.8,1.19,2.12,5.11,2.69,8.66,4.37v15H30.64V47.32A14.33,14.33,0,0,1,33.76,47c3.11.27,5.22-.33,6.3-3.85s4.5-4.49,8.06-4.51c9.12-.06,18.24-.17,27.36-.25C77.27,38.32,79.07,38.34,81.09,38.34Zm18.23-.48h50.41c0-6.68-1-7.82-7-7.87q-17.62-.12-35.25-.06C101,30,100.4,30.53,99.32,37.86Z" transform="translate(-30.64 -12.73)"/></svg>