<svg id="Layer_1" data-name="Layer 1" xmlns="http://www.w3.org/2000/svg" viewBox="0 0 211 220.23"><path d="M46.58,72.78A65,65,0,1,1,111,137.91,64.63,64.63,0,0,1,46.58,72.78Zm110.86-.15c-.05-25.22-20.95-46.06-46-45.89s-46,20.92-46.12,46,20.75,46.11,45.82,46.19A45.9,45.9,0,0,0,157.44,72.63Z" transform="translate(-6 -7.93)"/><path d="M102.45,151c-15.06,26-29.35,50.8-44.57,77.16-4.34-14.07-8.13-26.39-12.05-39.11L6,198.17l44.06-76.42C64.06,138.08,81.11,147.54,102.45,151Z" transform="translate(-6 -7.93)"/><path d="M172.82,121.63,217,198.16,177.16,189c-3.87,12.54-7.69,24.92-12.07,39.14-15.32-26.55-29.71-51.47-44.54-77.16C141.7,147.54,158.92,138.25,172.82,121.63Z" transform="translate(-6 -7.93)"/><path d="M112.55,45.35c-2.37,4.77-4.55,8.44-6,12.37-1.42,3.71-4,4.94-7.59,5.31-4.14.42-8.23,1.21-12.79,1.9,3.73,3.82,7.2,6.88,10,10.45a11.08,11.08,0,0,1,2.18,6.84c-.22,4.5-1.31,9-2.2,14.43,4.93-2.6,8.81-5.06,13-6.69a10.82,10.82,0,0,1,7.17,0c4.21,1.6,8.12,4,13,6.54-.87-5.22-1.41-11.57-2.37-15.83-.74-3.26-.2-3.67,2.47-5.93,3.36-2.85,6.35-6.15,10.24-10-5.42-.74-9.41-1.42-13.43-1.79-3.63-.34-6.13-1.65-7.54-5.35C117.15,53.71,115,50.08,112.55,45.35Z" transform="translate(-6 -7.93)"/></svg>