<svg id="Layer_1" data-name="Layer 1" xmlns="http://www.w3.org/2000/svg" viewBox="0 0 248.21 105.41"><defs><style>.cls-1{isolation:isolate;}.cls-2{fill:#010101;}</style></defs><title>icon-NCUA</title><g class="cls-1"><path class="cls-2" d="M44.8,15.56l-1.68-3.69h1.17l1,2.6h0l1-2.61h1.13l-1.6,3.68v2.21h-1Z" transform="translate(-1.05 -1.21)"/><path class="cls-2" d="M48.24,17.25a2.61,2.61,0,0,1-.5-1.68,2.6,2.6,0,0,1,.5-1.67,1.59,1.59,0,0,1,1.34-.63,1.62,1.62,0,0,1,1.34.63,2.65,2.65,0,0,1,.49,1.67,2.68,2.68,0,0,1-.49,1.68,1.61,1.61,0,0,1-1.34.62A1.57,1.57,0,0,1,48.24,17.25Zm2-.68a1.91,1.91,0,0,0,.21-1,1.93,1.93,0,0,0-.21-1,.77.77,0,0,0-1.28,0,1.83,1.83,0,0,0-.22,1,1.83,1.83,0,0,0,.22,1,.72.72,0,0,0,.64.34A.75.75,0,0,0,50.21,16.57Z" transform="translate(-1.05 -1.21)"/><path class="cls-2" d="M53,16.12a1,1,0,0,0,.15.59.51.51,0,0,0,.44.2.62.62,0,0,0,.56-.26,1.41,1.41,0,0,0,.19-.77V13.4h.94v4.36H54.4v-.63l-.11.21a1.14,1.14,0,0,1-1,.54,1.15,1.15,0,0,1-.92-.4,1.85,1.85,0,0,1-.32-1.15V13.4H53Z" transform="translate(-1.05 -1.21)"/><path class="cls-2" d="M56.16,13.4h.9v.76l.12-.26a1,1,0,0,1,.86-.62l.2,0v1.17a1.14,1.14,0,0,0-.27,0,.86.86,0,0,0-.67.26,1.25,1.25,0,0,0-.21.8v2.26h-.93Z" transform="translate(-1.05 -1.21)"/><path class="cls-2" d="M62.71,14.7a.6.6,0,0,0-.18-.41.65.65,0,0,0-.44-.14.75.75,0,0,0-.44.1.37.37,0,0,0-.14.31.29.29,0,0,0,.14.25,2.37,2.37,0,0,0,.56.2,3.12,3.12,0,0,1,1.2.51,1.11,1.11,0,0,1,.33.85,1.42,1.42,0,0,1-.44,1.1,1.64,1.64,0,0,1-1.18.4,1.74,1.74,0,0,1-1.23-.4,1.46,1.46,0,0,1-.45-1.12h1a.62.62,0,0,0,.19.48.77.77,0,0,0,.53.17.88.88,0,0,0,.5-.12.42.42,0,0,0,.17-.36.28.28,0,0,0-.17-.25A3.1,3.1,0,0,0,62,16a2.65,2.65,0,0,1-1.09-.49,1.09,1.09,0,0,1-.29-.83,1.4,1.4,0,0,1,.4-1.07,1.54,1.54,0,0,1,1.09-.38,1.62,1.62,0,0,1,1.12.37,1.42,1.42,0,0,1,.43,1.06Z" transform="translate(-1.05 -1.21)"/><path class="cls-2" d="M65.26,17.87a1,1,0,0,1-.8-.34,1.39,1.39,0,0,1-.29-.94,1.49,1.49,0,0,1,.27-.93,1.28,1.28,0,0,1,.77-.45l.74-.14a.75.75,0,0,0,.35-.14.1.1,0,0,0,.06-.08.35.35,0,0,0,0-.13v0a.43.43,0,0,0-.16-.37.72.72,0,0,0-.46-.12.54.54,0,0,0-.4.15.81.81,0,0,0-.18.45h-.9a1.85,1.85,0,0,1,.45-1.18,1.59,1.59,0,0,1,1.14-.35,1.55,1.55,0,0,1,1.06.34,1.22,1.22,0,0,1,.38,1v2.32a2,2,0,0,0,.05.52.29.29,0,0,0,.16.2h0v.14h-1a2.47,2.47,0,0,1-.08-.52h0A1.36,1.36,0,0,1,65.26,17.87Zm1.14-1.73v-.48a.72.72,0,0,1-.28.12l-.33.08a1.15,1.15,0,0,0-.53.23.57.57,0,0,0-.15.42.66.66,0,0,0,.11.4.36.36,0,0,0,.32.14.82.82,0,0,0,.76-.45v0a.38.38,0,0,0,.06-.18A1.22,1.22,0,0,0,66.4,16.14Z" transform="translate(-1.05 -1.21)"/><path class="cls-2" d="M67.81,13.4h1l.77,3.19h0l.76-3.19h1L70.1,17.76h-1Z" transform="translate(-1.05 -1.21)"/><path class="cls-2" d="M71.93,13.4h.94v4.36h-.94Zm0-1.6h.93v1.07h-.93Z" transform="translate(-1.05 -1.21)"/><path class="cls-2" d="M73.77,13.4h.89v.66l.13-.21a1.1,1.1,0,0,1,1-.58,1.14,1.14,0,0,1,.91.39,1.57,1.57,0,0,1,.34,1v3.05h-1V15a1,1,0,0,0-.15-.6.51.51,0,0,0-.44-.21.63.63,0,0,0-.56.3,1.55,1.55,0,0,0-.2.85v2.38h-.94V13.4Z" transform="translate(-1.05 -1.21)"/><path class="cls-2" d="M79.47,18.66a.73.73,0,0,0,.56-.21.82.82,0,0,0,.2-.58v-.71h0a1.11,1.11,0,0,1-1,.61,1.27,1.27,0,0,1-1.11-.61,2.83,2.83,0,0,1-.41-1.64,2.88,2.88,0,0,1,.41-1.65,1.27,1.27,0,0,1,1.11-.61,1.09,1.09,0,0,1,1,.61l.06.09V13.4h.89v4.47a1.63,1.63,0,0,1-.47,1.22,2,2,0,0,1-2.39.12,1.36,1.36,0,0,1-.48-1h1a.45.45,0,0,0,.19.31A.79.79,0,0,0,79.47,18.66Zm0-4.4a.65.65,0,0,0-.59.33,1.9,1.9,0,0,0-.2,1,1.91,1.91,0,0,0,.2,1,.66.66,0,0,0,.59.33.68.68,0,0,0,.59-.33,2,2,0,0,0,.2-1,1.86,1.86,0,0,0-.2-1A.64.64,0,0,0,79.47,14.26Z" transform="translate(-1.05 -1.21)"/><path class="cls-2" d="M84,14.7a.52.52,0,0,0-.18-.41.63.63,0,0,0-.44-.14.72.72,0,0,0-.43.1.35.35,0,0,0-.15.31.27.27,0,0,0,.15.25,2.06,2.06,0,0,0,.56.2,3,3,0,0,1,1.19.51,1.07,1.07,0,0,1,.33.85,1.42,1.42,0,0,1-.43,1.1,1.64,1.64,0,0,1-1.18.4,1.72,1.72,0,0,1-1.23-.4,1.43,1.43,0,0,1-.45-1.12h1a.62.62,0,0,0,.19.48.77.77,0,0,0,.53.17.9.9,0,0,0,.5-.12.42.42,0,0,0,.17-.36.28.28,0,0,0-.17-.25,3.33,3.33,0,0,0-.66-.23,2.59,2.59,0,0,1-1.09-.49,1.09,1.09,0,0,1-.29-.83,1.44,1.44,0,0,1,.39-1.07,1.55,1.55,0,0,1,1.09-.38,1.63,1.63,0,0,1,1.13.37A1.46,1.46,0,0,1,85,14.7Z" transform="translate(-1.05 -1.21)"/><path class="cls-2" d="M88.72,14.22v3.54h-.94V14.22h-.53V13.4h.53v-.35a1.38,1.38,0,0,1,.28-1,1,1,0,0,1,.83-.32l.45,0v.94H89a.29.29,0,0,0-.25.09.89.89,0,0,0-.06.4v.17h.62v.82Z" transform="translate(-1.05 -1.21)"/><path class="cls-2" d="M91.42,17.87A1.64,1.64,0,0,1,90,17.28a3,3,0,0,1-.45-1.79A2.61,2.61,0,0,1,90,13.88a1.63,1.63,0,0,1,2.52,0A2.84,2.84,0,0,1,93,15.58v.33H90.55a1.65,1.65,0,0,0,.18.73.68.68,0,0,0,.63.32.65.65,0,0,0,.39-.13.61.61,0,0,0,.2-.35h1a1.79,1.79,0,0,1-.55,1A1.4,1.4,0,0,1,91.42,17.87ZM92,15.16a1.4,1.4,0,0,0-.18-.66.61.61,0,0,0-.56-.29.59.59,0,0,0-.56.34,1.67,1.67,0,0,0-.16.61Z" transform="translate(-1.05 -1.21)"/><path class="cls-2" d="M94.89,17.87a1.23,1.23,0,0,1-1.09-.62,3.11,3.11,0,0,1-.4-1.68,3.1,3.1,0,0,1,.4-1.67,1.25,1.25,0,0,1,1.09-.63,1.14,1.14,0,0,1,1,.64l0,.05v-2.1h.94v5.89h-.94v-.58l0,.08A1.1,1.1,0,0,1,94.89,17.87Zm.28-3.6a.63.63,0,0,0-.59.34,1.88,1.88,0,0,0-.2,1,2,2,0,0,0,.2,1,.64.64,0,0,0,.59.33.67.67,0,0,0,.6-.33,1.93,1.93,0,0,0,.2-1,2,2,0,0,0-.21-1A.65.65,0,0,0,95.17,14.27Z" transform="translate(-1.05 -1.21)"/><path class="cls-2" d="M99.28,17.87a1.62,1.62,0,0,1-1.38-.59,3,3,0,0,1-.46-1.79,2.61,2.61,0,0,1,.46-1.61,1.49,1.49,0,0,1,1.25-.6,1.51,1.51,0,0,1,1.27.59,2.91,2.91,0,0,1,.43,1.71v.33H98.4a1.79,1.79,0,0,0,.19.73.68.68,0,0,0,.63.32.65.65,0,0,0,.39-.13.55.55,0,0,0,.19-.35h1a1.79,1.79,0,0,1-.55,1A1.38,1.38,0,0,1,99.28,17.87Zm.59-2.71a1.29,1.29,0,0,0-.19-.66.61.61,0,0,0-.55-.29.59.59,0,0,0-.56.34,1.87,1.87,0,0,0-.17.61Z" transform="translate(-1.05 -1.21)"/><path class="cls-2" d="M101.46,13.4h.9v.76l.12-.26a1,1,0,0,1,.85-.62l.2,0v1.17a1.1,1.1,0,0,0-.27,0,.82.82,0,0,0-.66.26,1.19,1.19,0,0,0-.22.8v2.26h-.94V13.4Z" transform="translate(-1.05 -1.21)"/><path class="cls-2" d="M104.94,17.87a1,1,0,0,1-.8-.34,1.45,1.45,0,0,1-.29-.94,1.49,1.49,0,0,1,.27-.93,1.28,1.28,0,0,1,.78-.45l.73-.14a.85.85,0,0,0,.36-.14.18.18,0,0,0,.06-.08.69.69,0,0,0,0-.13v0a.45.45,0,0,0-.15-.37.78.78,0,0,0-.47-.12.55.55,0,0,0-.4.15.89.89,0,0,0-.18.45H104a1.85,1.85,0,0,1,.45-1.18,1.6,1.6,0,0,1,1.14-.35,1.58,1.58,0,0,1,1.07.34,1.22,1.22,0,0,1,.38,1v2.32a2.1,2.1,0,0,0,0,.52.32.32,0,0,0,.16.2h0v.14h-1a2.47,2.47,0,0,1-.08-.52h0A1.38,1.38,0,0,1,104.94,17.87Zm1.14-1.73v-.48a.66.66,0,0,1-.28.12l-.33.08a1.2,1.2,0,0,0-.53.23.61.61,0,0,0-.15.42.6.6,0,0,0,.12.4.35.35,0,0,0,.32.14.82.82,0,0,0,.75-.45v0a.52.52,0,0,0,.07-.18A2.46,2.46,0,0,0,106.08,16.14Z" transform="translate(-1.05 -1.21)"/><path class="cls-2" d="M107.87,11.86h.94v5.89h-.94Z" transform="translate(-1.05 -1.21)"/><path class="cls-2" d="M109.74,11.86h.94v5.89h-.94Z" transform="translate(-1.05 -1.21)"/><path class="cls-2" d="M113.34,18.35a2.06,2.06,0,0,1-.43.92,1,1,0,0,1-.72.24l-.44,0v-.9H112a.47.47,0,0,0,.32-.1,1,1,0,0,0,.19-.38l0-.26h0l-1.31-4.47h1L113,16.6h0l.75-3.21h1Z" transform="translate(-1.05 -1.21)"/><path class="cls-2" d="M117.23,13.4h1v4.36h-1Zm0-1.6h.94v1.07h-.94Z" transform="translate(-1.05 -1.21)"/><path class="cls-2" d="M119.08,13.4H120v.66l.12-.21a1.1,1.1,0,0,1,1-.58,1.14,1.14,0,0,1,.91.39,1.52,1.52,0,0,1,.34,1v3.05h-.94V15a1,1,0,0,0-.16-.6.51.51,0,0,0-.44-.21.62.62,0,0,0-.56.3,1.55,1.55,0,0,0-.19.85v2.38h-.94V13.4Z" transform="translate(-1.05 -1.21)"/><path class="cls-2" d="M125.22,14.7a.6.6,0,0,0-.18-.41.63.63,0,0,0-.44-.14.72.72,0,0,0-.43.1.35.35,0,0,0-.15.31.27.27,0,0,0,.15.25,2.06,2.06,0,0,0,.56.2,3,3,0,0,1,1.19.51,1.07,1.07,0,0,1,.33.85,1.45,1.45,0,0,1-.43,1.1,1.66,1.66,0,0,1-1.19.4,1.71,1.71,0,0,1-1.22-.4,1.43,1.43,0,0,1-.45-1.12h1a.59.59,0,0,0,.19.48.76.76,0,0,0,.52.17.86.86,0,0,0,.5-.12.4.4,0,0,0,.18-.36.27.27,0,0,0-.18-.25,3,3,0,0,0-.65-.23,2.59,2.59,0,0,1-1.09-.49,1.1,1.1,0,0,1-.3-.83,1.4,1.4,0,0,1,.4-1.07,1.54,1.54,0,0,1,1.09-.38,1.63,1.63,0,0,1,1.13.37,1.5,1.5,0,0,1,.43,1.06Z" transform="translate(-1.05 -1.21)"/><path class="cls-2" d="M127.89,16.12a1,1,0,0,0,.15.59.5.5,0,0,0,.44.2.62.62,0,0,0,.55-.26,1.33,1.33,0,0,0,.2-.77V13.4h.94v4.36h-.89v-.63a2.25,2.25,0,0,1-.12.21,1.12,1.12,0,0,1-1,.54,1.15,1.15,0,0,1-.92-.4,1.85,1.85,0,0,1-.33-1.15V13.4h1v2.72Z" transform="translate(-1.05 -1.21)"/><path class="cls-2" d="M131,13.4h.9v.76l.12-.26a1,1,0,0,1,.86-.62l.2,0v1.17a1.18,1.18,0,0,0-.27,0,.84.84,0,0,0-.67.26,1.25,1.25,0,0,0-.21.8v2.26h-1V13.4Z" transform="translate(-1.05 -1.21)"/><path class="cls-2" d="M135.22,17.87a1.62,1.62,0,0,1-1.38-.59,3,3,0,0,1-.46-1.79,2.61,2.61,0,0,1,.46-1.61,1.48,1.48,0,0,1,1.25-.6,1.51,1.51,0,0,1,1.27.59,2.91,2.91,0,0,1,.43,1.71v.33h-2.44a2,2,0,0,0,.18.73.69.69,0,0,0,.64.32.6.6,0,0,0,.38-.13.52.52,0,0,0,.2-.35h1a1.79,1.79,0,0,1-.55,1A1.38,1.38,0,0,1,135.22,17.87Zm.58-2.71a1.2,1.2,0,0,0-.18-.66.65.65,0,0,0-1.11.05,1.87,1.87,0,0,0-.17.61Z" transform="translate(-1.05 -1.21)"/><path class="cls-2" d="M138.69,17.87a1.21,1.21,0,0,1-1.08-.62,3,3,0,0,1-.41-1.68,3,3,0,0,1,.41-1.67,1.24,1.24,0,0,1,1.09-.63,1.11,1.11,0,0,1,1,.64l0,.05v-2.1h.94v5.89h-.94v-.58l-.06.08A1.09,1.09,0,0,1,138.69,17.87Zm.29-3.6a.63.63,0,0,0-.59.34,1.88,1.88,0,0,0-.2,1,2,2,0,0,0,.2,1,.65.65,0,0,0,.59.33.64.64,0,0,0,.59-.33,1.93,1.93,0,0,0,.2-1,2,2,0,0,0-.21-1A.65.65,0,0,0,139,14.27Z" transform="translate(-1.05 -1.21)"/><path class="cls-2" d="M145,17.79h-.58a1,1,0,0,1-.72-.23,1,1,0,0,1-.22-.74V14.22H143V13.4h.5V12.22h.94V13.4H145v.82h-.58v2.4c0,.13,0,.21.08.25a.53.53,0,0,0,.31.06H145Z" transform="translate(-1.05 -1.21)"/><path class="cls-2" d="M145.93,17.25a2.61,2.61,0,0,1-.49-1.68,2.59,2.59,0,0,1,.49-1.67,1.74,1.74,0,0,1,2.68,0,2.59,2.59,0,0,1,.49,1.67,2.62,2.62,0,0,1-.49,1.68,1.76,1.76,0,0,1-2.68,0Zm2-.68a1.91,1.91,0,0,0,.21-1,1.93,1.93,0,0,0-.21-1,.77.77,0,0,0-1.28,0,1.83,1.83,0,0,0-.22,1,1.83,1.83,0,0,0,.22,1,.73.73,0,0,0,.64.34A.75.75,0,0,0,147.91,16.57Z" transform="translate(-1.05 -1.21)"/><path class="cls-2" d="M152.48,17.87a1,1,0,0,1-.79-.34,1.4,1.4,0,0,1-.3-.94,1.49,1.49,0,0,1,.27-.93,1.28,1.28,0,0,1,.78-.45l.73-.14a.85.85,0,0,0,.36-.14.18.18,0,0,0,.06-.08.32.32,0,0,0,0-.13v0a.45.45,0,0,0-.15-.37.78.78,0,0,0-.47-.12.54.54,0,0,0-.4.15.89.89,0,0,0-.18.45h-.9a1.85,1.85,0,0,1,.45-1.18,1.6,1.6,0,0,1,1.14-.35,1.58,1.58,0,0,1,1.07.34,1.22,1.22,0,0,1,.38,1v2.32a2.1,2.1,0,0,0,0,.52.32.32,0,0,0,.16.2h0v.14h-1a3.36,3.36,0,0,1-.08-.52h0A1.36,1.36,0,0,1,152.48,17.87Zm1.13-1.73v-.48a.67.67,0,0,1-.27.12l-.34.08a1.2,1.2,0,0,0-.53.23.61.61,0,0,0-.14.42.6.6,0,0,0,.11.4.36.36,0,0,0,.32.14.8.8,0,0,0,.75-.45l0,0a.93.93,0,0,0,.06-.18A2.46,2.46,0,0,0,153.61,16.14Z" transform="translate(-1.05 -1.21)"/><path class="cls-2" d="M157,17.79h-.58a1,1,0,0,1-.72-.23,1.09,1.09,0,0,1-.22-.74V14.22H155V13.4h.49V12.22h.94V13.4H157v.82h-.58v2.4a.31.31,0,0,0,.08.25.56.56,0,0,0,.31.06H157Z" transform="translate(-1.05 -1.21)"/><path class="cls-2" d="M159.52,11.86h.94v5.89h-.94Z" transform="translate(-1.05 -1.21)"/><path class="cls-2" d="M162.92,17.87a1.62,1.62,0,0,1-1.38-.59,3,3,0,0,1-.46-1.79,2.61,2.61,0,0,1,.46-1.61,1.48,1.48,0,0,1,1.25-.6,1.51,1.51,0,0,1,1.27.59,2.91,2.91,0,0,1,.43,1.71v.33H162a2,2,0,0,0,.18.73.69.69,0,0,0,.64.32.6.6,0,0,0,.38-.13.52.52,0,0,0,.2-.35h1a1.79,1.79,0,0,1-.55,1A1.42,1.42,0,0,1,162.92,17.87Zm.58-2.71a1.29,1.29,0,0,0-.19-.66.65.65,0,0,0-1.11.05,1.87,1.87,0,0,0-.17.61Z" transform="translate(-1.05 -1.21)"/><path class="cls-2" d="M166,17.87a1,1,0,0,1-.8-.34,1.45,1.45,0,0,1-.29-.94,1.49,1.49,0,0,1,.27-.93,1.28,1.28,0,0,1,.78-.45l.73-.14a.85.85,0,0,0,.36-.14.18.18,0,0,0,.06-.08.69.69,0,0,0,0-.13v0a.45.45,0,0,0-.15-.37.78.78,0,0,0-.47-.12.54.54,0,0,0-.4.15.89.89,0,0,0-.18.45H165a1.85,1.85,0,0,1,.45-1.18,1.94,1.94,0,0,1,2.21,0,1.22,1.22,0,0,1,.38,1v2.32a2.1,2.1,0,0,0,0,.52.29.29,0,0,0,.16.2h0v.14h-1a2.47,2.47,0,0,1-.08-.52h0A1.39,1.39,0,0,1,166,17.87Zm1.13-1.73v-.48a.67.67,0,0,1-.27.12l-.34.08a1.2,1.2,0,0,0-.53.23.61.61,0,0,0-.15.42.6.6,0,0,0,.12.4.36.36,0,0,0,.32.14.81.81,0,0,0,.75-.45l0,0a.93.93,0,0,0,.06-.18A2.46,2.46,0,0,0,167.09,16.14Z" transform="translate(-1.05 -1.21)"/><path class="cls-2" d="M170.89,14.7a.6.6,0,0,0-.18-.41.66.66,0,0,0-.45-.14.74.74,0,0,0-.43.1.37.37,0,0,0-.14.31.29.29,0,0,0,.14.25,2.37,2.37,0,0,0,.56.2,3.12,3.12,0,0,1,1.2.51,1.11,1.11,0,0,1,.33.85,1.42,1.42,0,0,1-.44,1.1,1.64,1.64,0,0,1-1.18.4,1.74,1.74,0,0,1-1.23-.4,1.46,1.46,0,0,1-.45-1.12h1a.62.62,0,0,0,.19.48.77.77,0,0,0,.53.17.88.88,0,0,0,.5-.12.42.42,0,0,0,.17-.36.28.28,0,0,0-.17-.25,3.1,3.1,0,0,0-.66-.23,2.59,2.59,0,0,1-1.09-.49,1.09,1.09,0,0,1-.29-.83,1.4,1.4,0,0,1,.4-1.07,1.52,1.52,0,0,1,1.09-.38,1.62,1.62,0,0,1,1.12.37,1.42,1.42,0,0,1,.43,1.06Z" transform="translate(-1.05 -1.21)"/><path class="cls-2" d="M174.23,17.79h-.58a.92.92,0,0,1-.71-.23,1,1,0,0,1-.23-.74V14.22h-.49V13.4h.49V12.22h.94V13.4h.58v.82h-.58v2.4a.31.31,0,0,0,.08.25.56.56,0,0,0,.31.06h.19Z" transform="translate(-1.05 -1.21)"/><path class="cls-2" d="M178.3,11.38V12a1.47,1.47,0,0,1,1,.43,1.8,1.8,0,0,1,.43,1.25h-.89a1,1,0,0,0-.17-.63.57.57,0,0,0-.38-.18v1.54a3,3,0,0,1,1.18.68,1.45,1.45,0,0,1,.32,1,2,2,0,0,1-.43,1.36,1.48,1.48,0,0,1-1.07.49v.79H178v-.79a1.55,1.55,0,0,1-1.08-.47,2.26,2.26,0,0,1-.43-1.44h.92a1.43,1.43,0,0,0,.19.79.65.65,0,0,0,.4.24V15.31l-.09,0a2.34,2.34,0,0,1-1-.66,1.8,1.8,0,0,1-.27-1.09,1.62,1.62,0,0,1,.41-1.17,1.43,1.43,0,0,1,1-.41v-.57h.32ZM178,12.82a.6.6,0,0,0-.36.16.61.61,0,0,0-.18.47.74.74,0,0,0,.16.52,1.19,1.19,0,0,0,.38.26V12.82ZM178.3,17a.66.66,0,0,0,.4-.22.91.91,0,0,0,.2-.61.65.65,0,0,0-.21-.51,1.38,1.38,0,0,0-.39-.25V17Z" transform="translate(-1.05 -1.21)"/><path class="cls-2" d="M183.46,13.74a2,2,0,0,1-.27,1.06,4.51,4.51,0,0,1-1,1,4.52,4.52,0,0,0-.91.91h2.19v1h-3.27a2.59,2.59,0,0,1,.33-1.34,5.2,5.2,0,0,1,1.23-1.27,2.66,2.66,0,0,0,.61-.63,1.34,1.34,0,0,0,.16-.66,1.17,1.17,0,0,0-.19-.69.55.55,0,0,0-.47-.26.63.63,0,0,0-.56.25,1.49,1.49,0,0,0-.15.83h-.93a2.31,2.31,0,0,1,.43-1.5,1.43,1.43,0,0,1,1.19-.55,1.49,1.49,0,0,1,1.17.51A1.9,1.9,0,0,1,183.46,13.74Z" transform="translate(-1.05 -1.21)"/><path class="cls-2" d="M187.24,15.82a2.38,2.38,0,0,1-.45,1.51,1.47,1.47,0,0,1-1.2.58,1.58,1.58,0,0,1-1.16-.46,1.88,1.88,0,0,1-.48-1.24h1a.91.91,0,0,0,.2.57.58.58,0,0,0,.48.22.56.56,0,0,0,.5-.29,1.7,1.7,0,0,0,0-1.56.56.56,0,0,0-.5-.29.71.71,0,0,0-.4.11.66.66,0,0,0-.26.29l-.82,0,.32-3.17H187v1H185.1l-.16,1.23a1.33,1.33,0,0,1,.83-.29,1.27,1.27,0,0,1,1.06.52A2,2,0,0,1,187.24,15.82Z" transform="translate(-1.05 -1.21)"/><path class="cls-2" d="M188.13,17.19a4.8,4.8,0,0,1-.4-2.26,5,5,0,0,1,.4-2.28,1.34,1.34,0,0,1,1.26-.72,1.37,1.37,0,0,1,1.27.72,4.86,4.86,0,0,1,.4,2.24v0a4.77,4.77,0,0,1-.4,2.26,1.35,1.35,0,0,1-1.26.72A1.33,1.33,0,0,1,188.13,17.19Zm1.79-.67a5.48,5.48,0,0,0,.16-1.6,5.43,5.43,0,0,0-.16-1.6q-.15-.48-.54-.48c-.25,0-.42.17-.54.48a5.86,5.86,0,0,0-.16,1.6,5.91,5.91,0,0,0,.16,1.6c.11.32.29.47.54.47S189.82,16.84,189.92,16.52Z" transform="translate(-1.05 -1.21)"/><path class="cls-2" d="M191.68,17.15v-.61h1v.9a2.25,2.25,0,0,1-.24,1.14,1.13,1.13,0,0,1-.75.53v-.44a.59.59,0,0,0,.43-.36,1.83,1.83,0,0,0,.1-.57h-.55v-.59Z" transform="translate(-1.05 -1.21)"/><path class="cls-2" d="M193.75,17.19a4.8,4.8,0,0,1-.4-2.26,5,5,0,0,1,.4-2.28,1.34,1.34,0,0,1,1.26-.72,1.37,1.37,0,0,1,1.27.72,4.86,4.86,0,0,1,.4,2.24v0a4.77,4.77,0,0,1-.4,2.26,1.35,1.35,0,0,1-1.26.72A1.32,1.32,0,0,1,193.75,17.19Zm1.79-.67a5.48,5.48,0,0,0,.16-1.6,5.43,5.43,0,0,0-.16-1.6q-.15-.48-.54-.48c-.25,0-.42.17-.54.48a5.86,5.86,0,0,0-.16,1.6,5.91,5.91,0,0,0,.16,1.6c.11.32.29.47.54.47S195.44,16.84,195.54,16.52Z" transform="translate(-1.05 -1.21)"/><path class="cls-2" d="M197.49,17.19a4.8,4.8,0,0,1-.4-2.26,5,5,0,0,1,.4-2.28,1.35,1.35,0,0,1,1.26-.72,1.37,1.37,0,0,1,1.27.72,4.86,4.86,0,0,1,.4,2.24v0a4.77,4.77,0,0,1-.4,2.26,1.47,1.47,0,0,1-2.53,0Zm1.8-.67a6,6,0,0,0,.15-1.6,5.9,5.9,0,0,0-.15-1.6c-.11-.32-.29-.48-.55-.48s-.42.17-.53.48a5.4,5.4,0,0,0-.17,1.6,5.44,5.44,0,0,0,.17,1.6c.1.32.28.47.53.47S199.18,16.84,199.29,16.52Z" transform="translate(-1.05 -1.21)"/><path class="cls-2" d="M201.23,17.19a4.8,4.8,0,0,1-.4-2.26,5,5,0,0,1,.4-2.28,1.36,1.36,0,0,1,1.26-.72,1.38,1.38,0,0,1,1.28.72,5,5,0,0,1,.39,2.24v0a4.92,4.92,0,0,1-.39,2.26,1.48,1.48,0,0,1-2.54,0Zm1.81-.67a6,6,0,0,0,.15-1.6,5.9,5.9,0,0,0-.15-1.6c-.1-.32-.29-.48-.55-.48s-.42.17-.53.48a5.4,5.4,0,0,0-.17,1.6,5.44,5.44,0,0,0,.17,1.6c.1.32.28.47.53.47S202.93,16.84,203,16.52Z" transform="translate(-1.05 -1.21)"/></g><g class="cls-1"><path class="cls-2" d="M13.12,27.16a1,1,0,0,1-.8-.35,1.35,1.35,0,0,1-.29-.93A1.41,1.41,0,0,1,12.3,25a1.23,1.23,0,0,1,.77-.45l.74-.14a.88.88,0,0,0,.35-.14.12.12,0,0,0,.06-.09.28.28,0,0,0,0-.13h0a.44.44,0,0,0-.16-.38.79.79,0,0,0-.46-.12.54.54,0,0,0-.4.16.78.78,0,0,0-.18.45h-.9a1.91,1.91,0,0,1,.45-1.19,1.63,1.63,0,0,1,1.14-.34,1.5,1.5,0,0,1,1.06.34,1.21,1.21,0,0,1,.38.95v2.31a1.92,1.92,0,0,0,.05.52.26.26,0,0,0,.16.2h0V27h-1a3.42,3.42,0,0,1-.09-.53h0A1.37,1.37,0,0,1,13.12,27.16Zm1.14-1.74V25a.91.91,0,0,1-.28.12l-.33.07a1.14,1.14,0,0,0-.53.24.53.53,0,0,0-.15.41.69.69,0,0,0,.11.41.39.39,0,0,0,.32.14.84.84,0,0,0,.76-.45v0a.31.31,0,0,0,.06-.18A2.3,2.3,0,0,0,14.26,25.42Z" transform="translate(-1.05 -1.21)"/><path class="cls-2" d="M16,22.68h.89v.67l.13-.22a1.11,1.11,0,0,1,1-.57,1.14,1.14,0,0,1,.91.39,1.55,1.55,0,0,1,.34,1V27h-.94V24.32a1,1,0,0,0-.16-.59.51.51,0,0,0-.44-.21.62.62,0,0,0-.56.29,1.58,1.58,0,0,0-.2.86v2.38H16V22.68Z" transform="translate(-1.05 -1.21)"/><path class="cls-2" d="M21.41,27.16a1.23,1.23,0,0,1-1.08-.62,3,3,0,0,1-.41-1.68,3,3,0,0,1,.41-1.68,1.25,1.25,0,0,1,1.09-.62,1.13,1.13,0,0,1,1,.63l0,0v-2.1h.95V27h-.95v-.58l-.05.08A1.13,1.13,0,0,1,21.41,27.16Zm.28-3.6a.63.63,0,0,0-.59.34,1.88,1.88,0,0,0-.2,1,2,2,0,0,0,.2,1,.65.65,0,0,0,.59.34.68.68,0,0,0,.59-.34,2.47,2.47,0,0,0,0-2A.62.62,0,0,0,21.69,23.56Z" transform="translate(-1.05 -1.21)"/><path class="cls-2" d="M26.09,21.15H27v2.1l0-.05a1.21,1.21,0,0,1,2.12,0,3.17,3.17,0,0,1,.39,1.68,3.17,3.17,0,0,1-.39,1.68,1.22,1.22,0,0,1-2.12,0l0-.05v.56h-.94Zm1.71,5.08a.67.67,0,0,0,.6-.34,2.49,2.49,0,0,0,0-2,.7.7,0,0,0-1.2,0,1.93,1.93,0,0,0-.21,1,1.89,1.89,0,0,0,.21,1A.66.66,0,0,0,27.8,26.23Z" transform="translate(-1.05 -1.21)"/><path class="cls-2" d="M31.07,27.16a1,1,0,0,1-.79-.35,1.35,1.35,0,0,1-.3-.93,1.47,1.47,0,0,1,.27-.93A1.23,1.23,0,0,1,31,24.5l.74-.14a1,1,0,0,0,.35-.14.16.16,0,0,0,.06-.09.28.28,0,0,0,0-.13h0a.47.47,0,0,0-.16-.38.83.83,0,0,0-.47-.12.52.52,0,0,0-.39.16.72.72,0,0,0-.18.45h-.9a1.85,1.85,0,0,1,.45-1.19,1.63,1.63,0,0,1,1.14-.34,1.52,1.52,0,0,1,1.06.34,1.21,1.21,0,0,1,.38.95v2.31a2.68,2.68,0,0,0,0,.52.27.27,0,0,0,.17.2h0V27h-1a2.54,2.54,0,0,1-.09-.53h0A1.35,1.35,0,0,1,31.07,27.16Zm1.15-1.74V25a.91.91,0,0,1-.28.12l-.34.07a1.19,1.19,0,0,0-.53.24.56.56,0,0,0-.14.41.63.63,0,0,0,.11.41.39.39,0,0,0,.32.14.81.81,0,0,0,.75-.45l0,0a.6.6,0,0,0,.06-.18A1.15,1.15,0,0,0,32.22,25.42Z" transform="translate(-1.05 -1.21)"/><path class="cls-2" d="M37.07,25.45a2.15,2.15,0,0,1-.54,1.25,1.48,1.48,0,0,1-1.12.47,1.44,1.44,0,0,1-1.21-.57A2.51,2.51,0,0,1,33.75,25a3.09,3.09,0,0,1,.45-1.8,1.44,1.44,0,0,1,1.27-.63,1.48,1.48,0,0,1,1.1.41,2.15,2.15,0,0,1,.5,1.26h-1a1,1,0,0,0-.21-.52.54.54,0,0,0-.43-.2.59.59,0,0,0-.54.33,1.82,1.82,0,0,0-.19.93,2.64,2.64,0,0,0,.17,1.1.62.62,0,0,0,.57.33A.51.51,0,0,0,35.9,26a1.13,1.13,0,0,0,.21-.56Z" transform="translate(-1.05 -1.21)"/><path class="cls-2" d="M37.75,21.15h.94v3.21l1.19-1.68H41l-1.28,1.66,1.32,2.71H39.94l-.85-1.86-.39.5v1.36h-1Z" transform="translate(-1.05 -1.21)"/><path class="cls-2" d="M43,27.16a1.62,1.62,0,0,1-1.37-.6,3,3,0,0,1-.46-1.79,2.63,2.63,0,0,1,.46-1.61,1.63,1.63,0,0,1,2.51,0,2.84,2.84,0,0,1,.44,1.71v.33H42.14a1.87,1.87,0,0,0,.18.72.67.67,0,0,0,.63.32.56.56,0,0,0,.39-.13.54.54,0,0,0,.2-.34h1a1.75,1.75,0,0,1-.54,1A1.37,1.37,0,0,1,43,27.16Zm.59-2.71a1.36,1.36,0,0,0-.18-.65.65.65,0,0,0-1.12,0,2,2,0,0,0-.16.61Z" transform="translate(-1.05 -1.21)"/><path class="cls-2" d="M46.49,27.16a1.23,1.23,0,0,1-1.08-.62A3,3,0,0,1,45,24.86a3,3,0,0,1,.41-1.68,1.25,1.25,0,0,1,1.09-.62,1.13,1.13,0,0,1,1,.63l0,0v-2.1h1V27h-1v-.58l0,.08A1.1,1.1,0,0,1,46.49,27.16Zm.28-3.6a.62.62,0,0,0-.58.34,1.88,1.88,0,0,0-.2,1,2,2,0,0,0,.2,1,.64.64,0,0,0,.58.34.68.68,0,0,0,.6-.34,2.47,2.47,0,0,0,0-2A.64.64,0,0,0,46.77,23.56Z" transform="translate(-1.05 -1.21)"/><path class="cls-2" d="M51.17,21.15h.94v2.1l0-.05a1.21,1.21,0,0,1,2.12,0,3.17,3.17,0,0,1,.39,1.68,3.17,3.17,0,0,1-.39,1.68,1.22,1.22,0,0,1-2.12,0l0-.05v.56h-.94Zm1.71,5.08a.67.67,0,0,0,.6-.34,2.49,2.49,0,0,0,0-2,.7.7,0,0,0-1.2,0,1.93,1.93,0,0,0-.21,1,1.89,1.89,0,0,0,.21,1A.66.66,0,0,0,52.88,26.23Z" transform="translate(-1.05 -1.21)"/><path class="cls-2" d="M57.08,27.63a2.44,2.44,0,0,1-.43.93,1,1,0,0,1-.72.23h-.44v-.9h.23a.46.46,0,0,0,.32-.11.79.79,0,0,0,.19-.38l0-.26h0L55,22.67h1l.79,3.22h0l.75-3.22h1Z" transform="translate(-1.05 -1.21)"/><path class="cls-2" d="M62.57,27.07a5.06,5.06,0,0,1-.58,0,1,1,0,0,1-.72-.23,1.12,1.12,0,0,1-.22-.75V23.5h-.5v-.82h.5V21.5H62v1.18h.58v.82H62v2.41a.32.32,0,0,0,.08.25.63.63,0,0,0,.31.06h.19Z" transform="translate(-1.05 -1.21)"/><path class="cls-2" d="M63.17,21.15h1v2.1l.07-.11a1.11,1.11,0,0,1,1-.57,1.14,1.14,0,0,1,.91.39,1.49,1.49,0,0,1,.34,1v3.06h-.94V24.33a1,1,0,0,0-.16-.59.51.51,0,0,0-.44-.21.62.62,0,0,0-.56.29,1.53,1.53,0,0,0-.19.85v2.38h-1Z" transform="translate(-1.05 -1.21)"/><path class="cls-2" d="M68.84,27.16a1.63,1.63,0,0,1-1.38-.6A3,3,0,0,1,67,24.77a2.63,2.63,0,0,1,.46-1.61,1.64,1.64,0,0,1,2.52,0,2.91,2.91,0,0,1,.43,1.71v.33H68a1.69,1.69,0,0,0,.19.72.66.66,0,0,0,.63.32.59.59,0,0,0,.39-.13.53.53,0,0,0,.19-.34h1a1.82,1.82,0,0,1-.55,1A1.34,1.34,0,0,1,68.84,27.16Zm.59-2.71a1.25,1.25,0,0,0-.19-.65.62.62,0,0,0-.55-.3.59.59,0,0,0-.56.34,2,2,0,0,0-.17.61Z" transform="translate(-1.05 -1.21)"/><path class="cls-2" d="M74,23.5v3.55h-.94V23.5h-.53v-.82h.53v-.34a1.4,1.4,0,0,1,.28-.95,1.07,1.07,0,0,1,.83-.32,2.85,2.85,0,0,1,.44,0V22h-.3a.28.28,0,0,0-.25.1.89.89,0,0,0-.06.4v.16h.61v.82H74Z" transform="translate(-1.05 -1.21)"/><path class="cls-2" d="M76.1,25.4a1,1,0,0,0,.15.59.54.54,0,0,0,.45.21.62.62,0,0,0,.55-.27,1.36,1.36,0,0,0,.19-.77V22.67h.94V27h-.89v-.63a1.28,1.28,0,0,1-.11.2,1.11,1.11,0,0,1-1,.55,1.1,1.1,0,0,1-.91-.41,1.76,1.76,0,0,1-.33-1.14V22.68h.94V25.4Z" transform="translate(-1.05 -1.21)"/><path class="cls-2" d="M79.3,21.15h.94v5.9h-.95v-5.9Z" transform="translate(-1.05 -1.21)"/><path class="cls-2" d="M81.17,21.15h.94v5.9h-.94Z" transform="translate(-1.05 -1.21)"/><path class="cls-2" d="M86,23.5v3.55H85V23.5H84.5v-.82H85v-.34a1.4,1.4,0,0,1,.29-.95,1.06,1.06,0,0,1,.83-.32,2.94,2.94,0,0,1,.44,0V22h-.31a.29.29,0,0,0-.25.1.89.89,0,0,0-.06.4v.16h.62v.82H86Z" transform="translate(-1.05 -1.21)"/><path class="cls-2" d="M88,27.16a1,1,0,0,1-.8-.35,1.4,1.4,0,0,1-.29-.93,1.47,1.47,0,0,1,.27-.93,1.23,1.23,0,0,1,.78-.45l.73-.14a1,1,0,0,0,.36-.14.23.23,0,0,0,.06-.09.51.51,0,0,0,0-.13h0a.46.46,0,0,0-.15-.38.85.85,0,0,0-.47-.12.56.56,0,0,0-.4.16.85.85,0,0,0-.18.45H87a1.91,1.91,0,0,1,.45-1.19,1.63,1.63,0,0,1,1.14-.34,1.55,1.55,0,0,1,1.07.34,1.21,1.21,0,0,1,.38.95v2.31a2,2,0,0,0,0,.52.26.26,0,0,0,.16.2h0V27h-1a2.58,2.58,0,0,1-.08-.53h0A1.37,1.37,0,0,1,88,27.16Zm1.14-1.74V25a.81.81,0,0,1-.28.12l-.33.07a1.14,1.14,0,0,0-.53.24.53.53,0,0,0-.15.41.69.69,0,0,0,.11.41.4.4,0,0,0,.32.14.84.84,0,0,0,.76-.45v0a.31.31,0,0,0,.06-.18A1.15,1.15,0,0,0,89.11,25.42Z" transform="translate(-1.05 -1.21)"/><path class="cls-2" d="M90.9,22.68h.94v4.37H90.9Zm0-1.59h.93v1.06H90.9Z" transform="translate(-1.05 -1.21)"/><path class="cls-2" d="M94.38,27.07a4.8,4.8,0,0,1-.57,0,1,1,0,0,1-.72-.23,1.07,1.07,0,0,1-.23-.75V23.5h-.49v-.82h.49V21.5h.94v1.18h.58v.82H93.8v2.41a.32.32,0,0,0,.08.25.66.66,0,0,0,.31.06h.19Z" transform="translate(-1.05 -1.21)"/><path class="cls-2" d="M95,21.15h.94v2.1l.07-.11a1.11,1.11,0,0,1,1-.57,1.15,1.15,0,0,1,.91.39,1.53,1.53,0,0,1,.33,1v3.06h-.94V24.33a1,1,0,0,0-.15-.59.52.52,0,0,0-.44-.21.63.63,0,0,0-.57.29,1.58,1.58,0,0,0-.2.86v2.38H95V21.15Z" transform="translate(-1.05 -1.21)"/><path class="cls-2" d="M101.82,27.16a1,1,0,0,1-.8-.35,1.4,1.4,0,0,1-.29-.93A1.47,1.47,0,0,1,101,25a1.23,1.23,0,0,1,.78-.45l.73-.14a1,1,0,0,0,.36-.14.23.23,0,0,0,.06-.09.51.51,0,0,0,0-.13h0a.46.46,0,0,0-.15-.38.85.85,0,0,0-.47-.12.56.56,0,0,0-.4.16.85.85,0,0,0-.18.45h-.9a1.91,1.91,0,0,1,.45-1.19,1.63,1.63,0,0,1,1.14-.34,1.55,1.55,0,0,1,1.07.34,1.21,1.21,0,0,1,.38.95v2.31a2,2,0,0,0,0,.52.26.26,0,0,0,.16.2h0V27h-1a2.58,2.58,0,0,1-.08-.53h0A1.39,1.39,0,0,1,101.82,27.16ZM103,25.42V25a.81.81,0,0,1-.28.12l-.33.07a1.14,1.14,0,0,0-.53.24.53.53,0,0,0-.15.41.69.69,0,0,0,.11.41.4.4,0,0,0,.32.14.84.84,0,0,0,.76-.45v0a.31.31,0,0,0,.06-.18A1.15,1.15,0,0,0,103,25.42Z" transform="translate(-1.05 -1.21)"/><path class="cls-2" d="M104.72,22.68h.89v.67l.12-.22a1.11,1.11,0,0,1,1-.57,1.14,1.14,0,0,1,.91.39,1.5,1.5,0,0,1,.34,1V27H107V24.32a1,1,0,0,0-.16-.59.51.51,0,0,0-.44-.21.62.62,0,0,0-.56.29,1.58,1.58,0,0,0-.2.86v2.38h-.94V22.68Z" transform="translate(-1.05 -1.21)"/><path class="cls-2" d="M110.11,27.16a1.23,1.23,0,0,1-1.08-.62,3,3,0,0,1-.41-1.68,3,3,0,0,1,.41-1.68,1.25,1.25,0,0,1,1.09-.62,1.13,1.13,0,0,1,1,.63l0,0v-2.1h1V27h-1v-.58l0,.08A1.1,1.1,0,0,1,110.11,27.16Zm.29-3.6a.63.63,0,0,0-.59.34,1.88,1.88,0,0,0-.2,1,2,2,0,0,0,.2,1,.65.65,0,0,0,.59.34.68.68,0,0,0,.59-.34,2.47,2.47,0,0,0,0-2A.62.62,0,0,0,110.4,23.56Z" transform="translate(-1.05 -1.21)"/><path class="cls-2" d="M117.92,25.45a2.09,2.09,0,0,1-.54,1.25,1.48,1.48,0,0,1-1.12.47,1.44,1.44,0,0,1-1.21-.57,2.51,2.51,0,0,1-.44-1.59,3,3,0,0,1,.45-1.8,1.42,1.42,0,0,1,1.27-.63,1.46,1.46,0,0,1,1.09.41,2.09,2.09,0,0,1,.5,1.26h-1a1,1,0,0,0-.21-.52.53.53,0,0,0-.42-.2.59.59,0,0,0-.55.33,1.82,1.82,0,0,0-.19.93,2.64,2.64,0,0,0,.17,1.1.62.62,0,0,0,.57.33.51.51,0,0,0,.42-.21,1.13,1.13,0,0,0,.21-.56Z" transform="translate(-1.05 -1.21)"/><path class="cls-2" d="M118.55,22.68h.9v.77l.12-.27a1,1,0,0,1,.85-.61l.2,0v1.16h-.27a.83.83,0,0,0-.66.25,1.24,1.24,0,0,0-.22.81v2.26h-.94V22.68Z" transform="translate(-1.05 -1.21)"/><path class="cls-2" d="M122.73,27.16a1.62,1.62,0,0,1-1.37-.6,3,3,0,0,1-.46-1.79,2.63,2.63,0,0,1,.46-1.61,1.63,1.63,0,0,1,2.51,0,2.84,2.84,0,0,1,.44,1.71v.33h-2.44a1.87,1.87,0,0,0,.18.72.67.67,0,0,0,.63.32.56.56,0,0,0,.39-.13.59.59,0,0,0,.2-.34h1a1.81,1.81,0,0,1-.54,1A1.42,1.42,0,0,1,122.73,27.16Zm.59-2.71a1.36,1.36,0,0,0-.18-.65.61.61,0,0,0-.55-.3.6.6,0,0,0-.57.34,2,2,0,0,0-.16.61Z" transform="translate(-1.05 -1.21)"/><path class="cls-2" d="M126.21,27.16a1.23,1.23,0,0,1-1.08-.62,3,3,0,0,1-.41-1.68,3,3,0,0,1,.41-1.68,1.25,1.25,0,0,1,1.09-.62,1.12,1.12,0,0,1,1,.63l0,0v-2.1h.94V27h-.94v-.58l-.05.08A1.12,1.12,0,0,1,126.21,27.16Zm.28-3.6a.61.61,0,0,0-.58.34,1.88,1.88,0,0,0-.2,1,2,2,0,0,0,.2,1,.64.64,0,0,0,.58.34.68.68,0,0,0,.6-.34,2.47,2.47,0,0,0,0-2A.65.65,0,0,0,126.49,23.56Z" transform="translate(-1.05 -1.21)"/><path class="cls-2" d="M129.08,22.68H130v4.37h-.94Zm0-1.59H130v1.06h-.93Z" transform="translate(-1.05 -1.21)"/><path class="cls-2" d="M132.55,27.07a4.89,4.89,0,0,1-.58,0,1,1,0,0,1-.71-.23,1.07,1.07,0,0,1-.23-.75V23.5h-.49v-.82H131V21.5H132v1.18h.58v.82H132v2.41a.32.32,0,0,0,.08.25.66.66,0,0,0,.31.06h.19Z" transform="translate(-1.05 -1.21)"/><path class="cls-2" d="M135.31,26.55a2.62,2.62,0,0,1-.49-1.68,2.62,2.62,0,0,1,.49-1.68,1.76,1.76,0,0,1,2.68,0,2.64,2.64,0,0,1,.49,1.68,2.64,2.64,0,0,1-.49,1.68,1.64,1.64,0,0,1-1.34.62A1.71,1.71,0,0,1,135.31,26.55Zm2-.69a1.77,1.77,0,0,0,.22-1,1.83,1.83,0,0,0-.22-1,.69.69,0,0,0-.64-.34.71.71,0,0,0-.64.34,1.82,1.82,0,0,0-.21,1,1.8,1.8,0,0,0,.21,1,.71.71,0,0,0,.64.34A.7.7,0,0,0,137.29,25.86Z" transform="translate(-1.05 -1.21)"/><path class="cls-2" d="M140.24,23.5v3.55h-.94V23.5h-.53v-.82h.53v-.34a1.4,1.4,0,0,1,.28-.95,1.07,1.07,0,0,1,.83-.32,2.85,2.85,0,0,1,.44,0V22h-.3a.28.28,0,0,0-.25.1.89.89,0,0,0-.06.4v.16h.61v.82h-.61Z" transform="translate(-1.05 -1.21)"/><path class="cls-2" d="M144.9,27.07a5.06,5.06,0,0,1-.58,0,1,1,0,0,1-.72-.23,1.12,1.12,0,0,1-.22-.75V23.5h-.5v-.82h.5V21.5h.94v1.18h.58v.82h-.58v2.41a.32.32,0,0,0,.08.25.63.63,0,0,0,.31.06h.19Z" transform="translate(-1.05 -1.21)"/><path class="cls-2" d="M145.5,21.15h.95v2.1l.07-.11a1.11,1.11,0,0,1,1-.57,1.14,1.14,0,0,1,.91.39,1.49,1.49,0,0,1,.34,1v3.06h-.94V24.33a1,1,0,0,0-.16-.59.51.51,0,0,0-.44-.21.61.61,0,0,0-.56.29,1.59,1.59,0,0,0-.19.86v2.38h-.95V21.15Z" transform="translate(-1.05 -1.21)"/><path class="cls-2" d="M151.17,27.16a1.63,1.63,0,0,1-1.38-.6,3,3,0,0,1-.46-1.79,2.63,2.63,0,0,1,.46-1.61,1.64,1.64,0,0,1,2.52,0,2.91,2.91,0,0,1,.43,1.71v.33h-2.44a1.69,1.69,0,0,0,.19.72.66.66,0,0,0,.63.32.59.59,0,0,0,.39-.13.53.53,0,0,0,.19-.34h1a1.82,1.82,0,0,1-.55,1A1.4,1.4,0,0,1,151.17,27.16Zm.58-2.71a1.17,1.17,0,0,0-.18-.65.61.61,0,0,0-.55-.3.59.59,0,0,0-.56.34,2,2,0,0,0-.17.61Z" transform="translate(-1.05 -1.21)"/><path class="cls-2" d="M159.18,25.05a2.33,2.33,0,0,1-.5,1.59,1.86,1.86,0,0,1-1.44.56,1.83,1.83,0,0,1-1.45-.56,2.32,2.32,0,0,1-.51-1.59v-3.9h1V25a1.31,1.31,0,0,0,.25.87.81.81,0,0,0,.69.3.83.83,0,0,0,.69-.3,1.41,1.41,0,0,0,.24-.87V21.15h1v3.9Z" transform="translate(-1.05 -1.21)"/><path class="cls-2" d="M160.1,22.68H161v.67l.12-.22A1.17,1.17,0,0,1,163,23a1.5,1.5,0,0,1,.34,1V27h-.94V24.32a.92.92,0,0,0-.16-.59.51.51,0,0,0-.44-.21.61.61,0,0,0-.56.29,1.59,1.59,0,0,0-.19.86v2.38h-.94V22.68Z" transform="translate(-1.05 -1.21)"/><path class="cls-2" d="M164.24,22.68h.94v4.37h-.94Zm0-1.59h.93v1.06h-.93Z" transform="translate(-1.05 -1.21)"/><path class="cls-2" d="M167.72,27.07a4.89,4.89,0,0,1-.58,0,1,1,0,0,1-.71-.23,1.07,1.07,0,0,1-.23-.75V23.5h-.49v-.82h.49V21.5h.94v1.18h.58v.82h-.58v2.41a.32.32,0,0,0,.08.25.66.66,0,0,0,.31.06h.19Z" transform="translate(-1.05 -1.21)"/><path class="cls-2" d="M169.88,27.16a1.63,1.63,0,0,1-1.38-.6,3,3,0,0,1-.46-1.79,2.63,2.63,0,0,1,.46-1.61,1.64,1.64,0,0,1,2.52,0,2.91,2.91,0,0,1,.43,1.71v.33H169a1.87,1.87,0,0,0,.18.72.68.68,0,0,0,.64.32.55.55,0,0,0,.38-.13.5.5,0,0,0,.2-.34h1a1.82,1.82,0,0,1-.55,1A1.42,1.42,0,0,1,169.88,27.16Zm.58-2.71a1.17,1.17,0,0,0-.18-.65.61.61,0,0,0-.55-.3.59.59,0,0,0-.56.34,2,2,0,0,0-.17.61Z" transform="translate(-1.05 -1.21)"/><path class="cls-2" d="M173.35,27.16a1.23,1.23,0,0,1-1.08-.62,3,3,0,0,1-.41-1.68,3,3,0,0,1,.41-1.68,1.25,1.25,0,0,1,1.09-.62,1.12,1.12,0,0,1,1,.63l0,0v-2.1h.94V27h-.94v-.58l-.06.08A1.12,1.12,0,0,1,173.35,27.16Zm.29-3.6a.63.63,0,0,0-.59.34,1.88,1.88,0,0,0-.2,1,2,2,0,0,0,.2,1,.68.68,0,0,0,1.18,0,2.47,2.47,0,0,0,0-2A.62.62,0,0,0,173.64,23.56Z" transform="translate(-1.05 -1.21)"/><path class="cls-2" d="M180.73,22.91a.93.93,0,0,0-.27-.66.91.91,0,0,0-.67-.24,1.06,1.06,0,0,0-.66.2.66.66,0,0,0-.24.54.46.46,0,0,0,.22.41,2.44,2.44,0,0,0,.82.31,3.57,3.57,0,0,1,1.51.67,1.49,1.49,0,0,1,.42,1.15,1.81,1.81,0,0,1-.52,1.39,2,2,0,0,1-1.44.5,2,2,0,0,1-1.48-.51,2.07,2.07,0,0,1-.55-1.47h1a.93.93,0,0,0,.28.71,1,1,0,0,0,.77.25,1.2,1.2,0,0,0,.72-.19.65.65,0,0,0,.27-.55.54.54,0,0,0-.26-.48,3.48,3.48,0,0,0-1-.37,2.84,2.84,0,0,1-1.33-.63A1.59,1.59,0,0,1,178,22.8a1.91,1.91,0,0,1,3.2-1.32,2.07,2.07,0,0,1,.54,1.42h-1Z" transform="translate(-1.05 -1.21)"/><path class="cls-2" d="M184.18,27.07a4.89,4.89,0,0,1-.58,0,1,1,0,0,1-.71-.23,1.07,1.07,0,0,1-.23-.75V23.5h-.49v-.82h.49V21.5h.94v1.18h.58v.82h-.58v2.41a.32.32,0,0,0,.08.25.66.66,0,0,0,.31.06h.19Z" transform="translate(-1.05 -1.21)"/><path class="cls-2" d="M185.64,27.16a1,1,0,0,1-.8-.35,1.35,1.35,0,0,1-.29-.93,1.47,1.47,0,0,1,.26-.93,1.28,1.28,0,0,1,.78-.45l.74-.14a1,1,0,0,0,.35-.14.12.12,0,0,0,.06-.09.28.28,0,0,0,0-.13h0a.44.44,0,0,0-.16-.38.82.82,0,0,0-.46-.12.51.51,0,0,0-.4.16.72.72,0,0,0-.18.45h-.9a1.91,1.91,0,0,1,.45-1.19,1.63,1.63,0,0,1,1.14-.34,1.5,1.5,0,0,1,1.06.34,1.21,1.21,0,0,1,.38.95v2.31a1.92,1.92,0,0,0,.05.52.24.24,0,0,0,.16.2h0V27h-1a3.42,3.42,0,0,1-.09-.53h0A1.32,1.32,0,0,1,185.64,27.16Zm1.14-1.74V25a.91.91,0,0,1-.28.12l-.34.07a1.09,1.09,0,0,0-.52.24.53.53,0,0,0-.15.41.63.63,0,0,0,.11.41.39.39,0,0,0,.32.14.81.81,0,0,0,.75-.45l0,0a.41.41,0,0,0,.06-.18A1.15,1.15,0,0,0,186.78,25.42Z" transform="translate(-1.05 -1.21)"/><path class="cls-2" d="M190.17,27.07a4.8,4.8,0,0,1-.57,0,1,1,0,0,1-.72-.23,1.07,1.07,0,0,1-.23-.75V23.5h-.49v-.82h.49V21.5h.95v1.18h.57v.82h-.57v2.41a.33.33,0,0,0,.07.25.7.7,0,0,0,.31.06h.19Z" transform="translate(-1.05 -1.21)"/><path class="cls-2" d="M192.33,27.16a1.63,1.63,0,0,1-1.38-.6,3,3,0,0,1-.46-1.79,2.63,2.63,0,0,1,.46-1.61,1.64,1.64,0,0,1,2.52,0,2.91,2.91,0,0,1,.43,1.71v.33h-2.44a1.69,1.69,0,0,0,.19.72.66.66,0,0,0,.63.32.59.59,0,0,0,.39-.13.53.53,0,0,0,.19-.34h1a1.82,1.82,0,0,1-.55,1A1.38,1.38,0,0,1,192.33,27.16Zm.59-2.71a1.25,1.25,0,0,0-.19-.65.61.61,0,0,0-.55-.3.59.59,0,0,0-.56.34,2,2,0,0,0-.17.61Z" transform="translate(-1.05 -1.21)"/><path class="cls-2" d="M196.56,24a.53.53,0,0,0-.19-.41.63.63,0,0,0-.44-.15.74.74,0,0,0-.43.11.37.37,0,0,0-.15.31.31.31,0,0,0,.15.25,2.37,2.37,0,0,0,.56.2,3,3,0,0,1,1.2.51,1.08,1.08,0,0,1,.32.84,1.42,1.42,0,0,1-.43,1.1,1.64,1.64,0,0,1-1.18.4,1.72,1.72,0,0,1-1.23-.4,1.46,1.46,0,0,1-.45-1.11h1a.62.62,0,0,0,.19.47.72.72,0,0,0,.53.18.9.9,0,0,0,.5-.13.4.4,0,0,0,.17-.36.29.29,0,0,0-.17-.25,2.88,2.88,0,0,0-.66-.22,2.58,2.58,0,0,1-1.09-.5,1.08,1.08,0,0,1-.29-.83,1.41,1.41,0,0,1,.39-1.06,1.55,1.55,0,0,1,1.09-.38,1.63,1.63,0,0,1,1.13.36,1.49,1.49,0,0,1,.43,1.07Z" transform="translate(-1.05 -1.21)"/><path class="cls-2" d="M202.29,27.19a1.94,1.94,0,0,1-1.67-.84A3.64,3.64,0,0,1,200,24.1a3.6,3.6,0,0,1,.66-2.27,2.14,2.14,0,0,1,1.77-.84,2,2,0,0,1,1.41.55,2.22,2.22,0,0,1,.67,1.43h-1a1.22,1.22,0,0,0-.38-.69,1,1,0,0,0-.68-.27,1.19,1.19,0,0,0-1,.56,2.6,2.6,0,0,0-.39,1.51,2.63,2.63,0,0,0,.37,1.54,1.24,1.24,0,0,0,1.08.53h0a1,1,0,0,0,.9-.56,2.28,2.28,0,0,0,.26-.72h-1.14v-1h2V27h-.67l-.11-.72,0,0a1.57,1.57,0,0,1-1.41.84Z" transform="translate(-1.05 -1.21)"/><path class="cls-2" d="M205.67,26.55a2.63,2.63,0,0,1-.5-1.68,2.63,2.63,0,0,1,.5-1.68,1.76,1.76,0,0,1,2.68,0,2.64,2.64,0,0,1,.49,1.68,2.64,2.64,0,0,1-.49,1.68,1.64,1.64,0,0,1-1.34.62A1.7,1.7,0,0,1,205.67,26.55Zm2-.69a1.87,1.87,0,0,0,.21-1,1.93,1.93,0,0,0-.21-1,.7.7,0,0,0-.64-.34.69.69,0,0,0-.64.34,1.81,1.81,0,0,0-.22,1,1.79,1.79,0,0,0,.22,1,.7.7,0,0,0,.64.34A.72.72,0,0,0,207.65,25.86Z" transform="translate(-1.05 -1.21)"/><path class="cls-2" d="M209.15,22.68h1l.77,3.19h0l.77-3.19h1l-1.29,4.37h-1Z" transform="translate(-1.05 -1.21)"/><path class="cls-2" d="M214.8,27.16a1.63,1.63,0,0,1-1.38-.6,3,3,0,0,1-.46-1.79,2.63,2.63,0,0,1,.46-1.61,1.64,1.64,0,0,1,2.52,0,2.91,2.91,0,0,1,.43,1.71v.33h-2.44a1.69,1.69,0,0,0,.19.72.65.65,0,0,0,.63.32.59.59,0,0,0,.39-.13.53.53,0,0,0,.19-.34h1a1.82,1.82,0,0,1-.55,1A1.4,1.4,0,0,1,214.8,27.16Zm.58-2.71a1.25,1.25,0,0,0-.19-.65.61.61,0,0,0-.55-.3.59.59,0,0,0-.56.34,1.73,1.73,0,0,0-.16.61Z" transform="translate(-1.05 -1.21)"/><path class="cls-2" d="M217,22.68h.89v.77l.13-.27a1,1,0,0,1,.85-.61l.2,0v1.16h-.27a.82.82,0,0,0-.66.25,1.24,1.24,0,0,0-.22.81v2.26H217V22.68Z" transform="translate(-1.05 -1.21)"/><path class="cls-2" d="M219.6,22.68h.89v.67l.13-.22a1.11,1.11,0,0,1,1-.57,1.14,1.14,0,0,1,.91.39,1.55,1.55,0,0,1,.34,1V27h-1V24.32a1,1,0,0,0-.15-.59.51.51,0,0,0-.44-.21.61.61,0,0,0-.56.29,1.59,1.59,0,0,0-.19.86v2.38h-1V22.68Z" transform="translate(-1.05 -1.21)"/><path class="cls-2" d="M223.71,22.68h.89v.73a1.8,1.8,0,0,1,.17-.34,1,1,0,0,1,.87-.51,1,1,0,0,1,.8.35,1,1,0,0,1,.22.36l.1-.2a1,1,0,0,1,.86-.51,1.15,1.15,0,0,1,.89.38,1.49,1.49,0,0,1,.34,1v3.09h-.95V24.2a.86.86,0,0,0-.13-.51.42.42,0,0,0-.38-.17.57.57,0,0,0-.48.23,1.18,1.18,0,0,0-.17.68V27h-.94V24.28a1,1,0,0,0-.14-.56.54.54,0,0,0-.86,0,1.26,1.26,0,0,0-.16.68V27h-.94V22.68Z" transform="translate(-1.05 -1.21)"/><path class="cls-2" d="M231.26,27.16a1.63,1.63,0,0,1-1.38-.6,3,3,0,0,1-.46-1.79,2.63,2.63,0,0,1,.46-1.61,1.64,1.64,0,0,1,2.52,0,2.91,2.91,0,0,1,.43,1.71v.33h-2.44a1.69,1.69,0,0,0,.19.72.66.66,0,0,0,.63.32.57.57,0,0,0,.59-.47h1a1.82,1.82,0,0,1-.55,1A1.38,1.38,0,0,1,231.26,27.16Zm.59-2.71a1.25,1.25,0,0,0-.19-.65.61.61,0,0,0-.55-.3.59.59,0,0,0-.56.34,2,2,0,0,0-.17.61Z" transform="translate(-1.05 -1.21)"/><path class="cls-2" d="M233.45,22.68h.89v.67l.13-.22a1.11,1.11,0,0,1,1-.57,1.14,1.14,0,0,1,.91.39,1.55,1.55,0,0,1,.34,1V27h-.95V24.32a1,1,0,0,0-.15-.59.51.51,0,0,0-.44-.21.61.61,0,0,0-.56.29,1.59,1.59,0,0,0-.19.86v2.38h-1V22.68Z" transform="translate(-1.05 -1.21)"/><path class="cls-2" d="M239.21,27.07a4.89,4.89,0,0,1-.58,0,1,1,0,0,1-.72-.23,1.12,1.12,0,0,1-.22-.75V23.5h-.49v-.82h.49V21.5h.94v1.18h.58v.82h-.58v2.41a.32.32,0,0,0,.08.25.66.66,0,0,0,.31.06h.19v.85Z" transform="translate(-1.05 -1.21)"/></g><g class="cls-1"><path class="cls-2" d="M18,95.23H17V89h1.12l2,4.29V89h1v6.2h-1L18,90.77v4.46Z" transform="translate(-1.05 -1.21)"/><path class="cls-2" d="M23,95.35a1.06,1.06,0,0,1-.84-.36,1.49,1.49,0,0,1-.31-1,1.58,1.58,0,0,1,.29-1,1.36,1.36,0,0,1,.82-.48l.78-.14a1.06,1.06,0,0,0,.37-.15s0-.05.06-.1a.28.28,0,0,0,0-.13v0a.49.49,0,0,0-.17-.4.75.75,0,0,0-.49-.13.54.54,0,0,0-.42.16.78.78,0,0,0-.19.48h-1a2,2,0,0,1,.48-1.24,1.64,1.64,0,0,1,1.2-.37,1.59,1.59,0,0,1,1.12.36,1.24,1.24,0,0,1,.39,1v2.45a2,2,0,0,0,.05.54.28.28,0,0,0,.17.21h0v.15H24.28a2.63,2.63,0,0,1-.09-.55h0A1.38,1.38,0,0,1,23,95.35Zm1.21-1.82V93a1,1,0,0,1-.29.13l-.35.08a1.28,1.28,0,0,0-.56.25.61.61,0,0,0-.15.44.64.64,0,0,0,.11.42.41.41,0,0,0,.34.15.85.85,0,0,0,.78-.48l0,0a.71.71,0,0,0,.06-.19A1,1,0,0,0,24.18,93.53Z" transform="translate(-1.05 -1.21)"/><path class="cls-2" d="M27.75,95.27h-.62a1,1,0,0,1-.75-.24,1.07,1.07,0,0,1-.23-.78V91.51h-.52v-.87h.52V89.41h1v1.23h.61v.87h-.61V94a.33.33,0,0,0,.08.26.59.59,0,0,0,.33.06h.2Z" transform="translate(-1.05 -1.21)"/><path class="cls-2" d="M28.42,90.64h1v4.59h-1Zm0-1.68h1v1.13h-1Z" transform="translate(-1.05 -1.21)"/><path class="cls-2" d="M30.66,94.71a3.27,3.27,0,0,1,0-3.54,1.84,1.84,0,0,1,2.82,0,3.27,3.27,0,0,1,0,3.54,1.87,1.87,0,0,1-2.82,0ZM32.73,94a2.42,2.42,0,0,0,0-2.1.79.79,0,0,0-1.34,0,1.87,1.87,0,0,0-.24,1,1.9,1.9,0,0,0,.24,1,.74.74,0,0,0,.67.35A.75.75,0,0,0,32.73,94Z" transform="translate(-1.05 -1.21)"/><path class="cls-2" d="M34.69,90.64h.94v.71l.13-.22a1.17,1.17,0,0,1,1-.61,1.22,1.22,0,0,1,1,.41A1.62,1.62,0,0,1,38.1,92v3.21h-1V92.37a1,1,0,0,0-.17-.63.53.53,0,0,0-.46-.22.7.7,0,0,0-.6.31,1.62,1.62,0,0,0-.21.9v2.5h-1V90.64Z" transform="translate(-1.05 -1.21)"/><path class="cls-2" d="M39.91,95.35a1.06,1.06,0,0,1-.84-.36,1.44,1.44,0,0,1-.31-1,1.58,1.58,0,0,1,.29-1,1.33,1.33,0,0,1,.82-.48l.77-.14a1,1,0,0,0,.38-.15.29.29,0,0,0,.06-.1.51.51,0,0,0,0-.13v0a.48.48,0,0,0-.16-.4.75.75,0,0,0-.49-.13.56.56,0,0,0-.43.16.92.92,0,0,0-.19.48h-.95a2,2,0,0,1,.48-1.24,1.63,1.63,0,0,1,1.2-.37,1.58,1.58,0,0,1,1.11.36,1.25,1.25,0,0,1,.4,1v2.45a2.85,2.85,0,0,0,0,.54.32.32,0,0,0,.18.21h0v.15H41.22a2.1,2.1,0,0,1-.09-.55h0A1.38,1.38,0,0,1,39.91,95.35Zm1.2-1.82V93a.91.91,0,0,1-.28.13l-.36.08a1.17,1.17,0,0,0-.55.25.57.57,0,0,0-.16.44.64.64,0,0,0,.12.42.39.39,0,0,0,.33.15A.86.86,0,0,0,41,94l0,0a1.45,1.45,0,0,0,.06-.19A1.49,1.49,0,0,0,41.11,93.53Z" transform="translate(-1.05 -1.21)"/><path class="cls-2" d="M43,89h1v6.2H43Z" transform="translate(-1.05 -1.21)"/><path class="cls-2" d="M51.3,93.11a2.84,2.84,0,0,1-.7,1.66,1.93,1.93,0,0,1-1.48.62,2,2,0,0,1-1.72-.88,4.76,4.76,0,0,1,0-4.77,2.12,2.12,0,0,1,3.2-.28,2.72,2.72,0,0,1,.7,1.61H50.22a1.24,1.24,0,0,0-.35-.8,1,1,0,0,0-.75-.29,1.09,1.09,0,0,0-.95.58,3.12,3.12,0,0,0-.35,1.59,3,3,0,0,0,.35,1.57,1,1,0,0,0,.94.58,1,1,0,0,0,.75-.32,1.47,1.47,0,0,0,.36-.87Z" transform="translate(-1.05 -1.21)"/><path class="cls-2" d="M52,90.64h1v.81l.13-.28a1,1,0,0,1,.89-.65l.21,0v1.23a1.18,1.18,0,0,0-.27,0,.83.83,0,0,0-.7.28,1.23,1.23,0,0,0-.23.83v2.37H52V90.64Z" transform="translate(-1.05 -1.21)"/><path class="cls-2" d="M56.41,95.35A1.69,1.69,0,0,1,55,94.72a3,3,0,0,1-.48-1.88,2.74,2.74,0,0,1,.48-1.7,1.59,1.59,0,0,1,1.31-.63,1.55,1.55,0,0,1,1.33.62,3.08,3.08,0,0,1,.46,1.81v.36H55.48a2,2,0,0,0,.19.76.72.72,0,0,0,.67.33A.61.61,0,0,0,57,93.9H58A1.83,1.83,0,0,1,57.45,95,1.49,1.49,0,0,1,56.41,95.35ZM57,92.5a1.53,1.53,0,0,0-.19-.69.64.64,0,0,0-.58-.31.63.63,0,0,0-.59.36,1.71,1.71,0,0,0-.16.65H57Z" transform="translate(-1.05 -1.21)"/><path class="cls-2" d="M60.06,95.35a1.32,1.32,0,0,1-1.14-.64,3.94,3.94,0,0,1,0-3.54,1.32,1.32,0,0,1,1.15-.66,1.22,1.22,0,0,1,1.07.67l0,0V89h1v6.2h-1v-.6l0,.08A1.2,1.2,0,0,1,60.06,95.35Zm.3-3.78a.69.69,0,0,0-.62.35,2.09,2.09,0,0,0-.21,1,2,2,0,0,0,.21,1,.69.69,0,0,0,.62.36A.71.71,0,0,0,61,94a2.14,2.14,0,0,0,.21-1,2.1,2.1,0,0,0-.21-1A.72.72,0,0,0,60.36,91.57Z" transform="translate(-1.05 -1.21)"/><path class="cls-2" d="M63.08,90.64h1v4.59h-1Zm0-1.68h1v1.13h-1Z" transform="translate(-1.05 -1.21)"/><path class="cls-2" d="M66.75,95.27h-.62a1,1,0,0,1-.75-.24,1.07,1.07,0,0,1-.23-.78V91.51h-.52v-.87h.52V89.41h1v1.23h.61v.87h-.61V94a.33.33,0,0,0,.08.26.59.59,0,0,0,.33.06h.2Z" transform="translate(-1.05 -1.21)"/><path class="cls-2" d="M73.51,93.13A2.41,2.41,0,0,1,73,94.8a2.25,2.25,0,0,1-3,0,2.33,2.33,0,0,1-.54-1.67V89h1.07v4a1.48,1.48,0,0,0,.25.92.9.9,0,0,0,.74.31.88.88,0,0,0,.73-.31,1.37,1.37,0,0,0,.25-.92V89h1.08Z" transform="translate(-1.05 -1.21)"/><path class="cls-2" d="M74.47,90.64h.94v.71l.13-.22a1.16,1.16,0,0,1,1-.61,1.25,1.25,0,0,1,1,.41A1.62,1.62,0,0,1,77.88,92v3.21h-1V92.37a1,1,0,0,0-.17-.63.55.55,0,0,0-.47-.22.69.69,0,0,0-.59.31,1.62,1.62,0,0,0-.21.9v2.5h-1V90.64Z" transform="translate(-1.05 -1.21)"/><path class="cls-2" d="M78.83,90.64h1v4.59h-1Zm0-1.68h1v1.13h-1Z" transform="translate(-1.05 -1.21)"/><path class="cls-2" d="M81.07,94.71a3.27,3.27,0,0,1,0-3.54,1.84,1.84,0,0,1,2.82,0,3.27,3.27,0,0,1,0,3.54,1.87,1.87,0,0,1-2.82,0ZM83.15,94a2.42,2.42,0,0,0,0-2.1.79.79,0,0,0-1.34,0,1.87,1.87,0,0,0-.24,1,1.9,1.9,0,0,0,.24,1,.74.74,0,0,0,.67.35A.76.76,0,0,0,83.15,94Z" transform="translate(-1.05 -1.21)"/><path class="cls-2" d="M85.1,90.64H86v.71l.13-.22a1.17,1.17,0,0,1,1-.61,1.22,1.22,0,0,1,1,.41A1.62,1.62,0,0,1,88.51,92v3.21h-1V92.37a1,1,0,0,0-.16-.63.56.56,0,0,0-.47-.22.7.7,0,0,0-.6.31,1.62,1.62,0,0,0-.21.9v2.5h-1V90.64Z" transform="translate(-1.05 -1.21)"/><path class="cls-2" d="M92.9,89h1.22l1.8,6.2H94.78L94.44,94H92.53l-.34,1.26H91.08Zm-.06,3.84h1.33l-.67-2.44h0Z" transform="translate(-1.05 -1.21)"/><path class="cls-2" d="M97.87,95.35a1.29,1.29,0,0,1-1.14-.64,3.86,3.86,0,0,1,0-3.54,1.3,1.3,0,0,1,1.15-.66,1.22,1.22,0,0,1,1.07.67l0,0V89h1v6.2H99v-.6l0,.08A1.2,1.2,0,0,1,97.87,95.35Zm.29-3.78a.69.69,0,0,0-.62.35,2.08,2.08,0,0,0-.22,1,1.9,1.9,0,0,0,.22,1,.72.72,0,0,0,1.25,0A2,2,0,0,0,99,93a2,2,0,0,0-.22-1A.68.68,0,0,0,98.16,91.57Z" transform="translate(-1.05 -1.21)"/><path class="cls-2" d="M100.84,90.64h.94v.76c.06-.13.12-.24.18-.35a1,1,0,0,1,.91-.54,1,1,0,0,1,.85.37,1.21,1.21,0,0,1,.23.38l.11-.21a1,1,0,0,1,.9-.54,1.18,1.18,0,0,1,.94.4,1.58,1.58,0,0,1,.35,1.07v3.24h-1v-3a.84.84,0,0,0-.14-.53.46.46,0,0,0-.4-.18.6.6,0,0,0-.51.24,1.16,1.16,0,0,0-.17.71v2.75h-1V92.31a1,1,0,0,0-.16-.6.58.58,0,0,0-.91,0,1.36,1.36,0,0,0-.16.71v2.75h-1V90.64Z" transform="translate(-1.05 -1.21)"/><path class="cls-2" d="M107.19,90.64h1v4.59h-1Zm0-1.68h1v1.13h-1Z" transform="translate(-1.05 -1.21)"/><path class="cls-2" d="M109.12,90.64h.95v.71l.13-.22a1.16,1.16,0,0,1,1-.61,1.25,1.25,0,0,1,1,.41,1.62,1.62,0,0,1,.35,1.09v3.21h-1V92.37a1,1,0,0,0-.17-.63.55.55,0,0,0-.47-.22.68.68,0,0,0-.59.31,1.62,1.62,0,0,0-.21.9v2.5h-1V90.64Z" transform="translate(-1.05 -1.21)"/><path class="cls-2" d="M113.49,90.64h1v4.59h-1Zm0-1.68h1v1.13h-1Z" transform="translate(-1.05 -1.21)"/><path class="cls-2" d="M117.57,92a.62.62,0,0,0-.19-.44.68.68,0,0,0-.47-.15.73.73,0,0,0-.45.11.39.39,0,0,0-.15.33.32.32,0,0,0,.15.27,2.22,2.22,0,0,0,.59.21,3.22,3.22,0,0,1,1.26.53,1.16,1.16,0,0,1,.34.9,1.51,1.51,0,0,1-.45,1.16,1.76,1.76,0,0,1-1.25.41,1.88,1.88,0,0,1-1.3-.41,1.51,1.51,0,0,1-.47-1.18h1a.64.64,0,0,0,.2.5.72.72,0,0,0,.55.19,1,1,0,0,0,.53-.13.44.44,0,0,0,.18-.38.31.31,0,0,0-.18-.27,3.56,3.56,0,0,0-.7-.24,2.64,2.64,0,0,1-1.15-.51,1.22,1.22,0,0,1-.31-.89,1.49,1.49,0,0,1,.42-1.12,1.57,1.57,0,0,1,1.15-.41,1.69,1.69,0,0,1,1.18.38,1.52,1.52,0,0,1,.45,1.12h-1Z" transform="translate(-1.05 -1.21)"/><path class="cls-2" d="M121.1,95.27h-.62a1,1,0,0,1-.75-.24,1.12,1.12,0,0,1-.23-.78V91.51H119v-.87h.52V89.41h1v1.23h.61v.87h-.61V94a.33.33,0,0,0,.08.26.62.62,0,0,0,.33.06h.2v.91Z" transform="translate(-1.05 -1.21)"/><path class="cls-2" d="M121.72,90.64h1v.81l.13-.28a1,1,0,0,1,.9-.65l.21,0v1.23a1.27,1.27,0,0,0-.28,0,.86.86,0,0,0-.7.28,1.29,1.29,0,0,0-.22.83v2.37h-1V90.64Z" transform="translate(-1.05 -1.21)"/><path class="cls-2" d="M125.38,95.35a1,1,0,0,1-.84-.36,1.44,1.44,0,0,1-.31-1,1.58,1.58,0,0,1,.28-1,1.36,1.36,0,0,1,.82-.48l.78-.14a.92.92,0,0,0,.37-.15.14.14,0,0,0,.06-.1.28.28,0,0,0,0-.13v0a.48.48,0,0,0-.16-.4.77.77,0,0,0-.5-.13.54.54,0,0,0-.42.16.92.92,0,0,0-.19.48h-1a2,2,0,0,1,.47-1.24,1.67,1.67,0,0,1,1.21-.37,1.58,1.58,0,0,1,1.11.36,1.25,1.25,0,0,1,.4,1v2.45a2.85,2.85,0,0,0,0,.54.32.32,0,0,0,.18.21h0v.15h-1.07a2.13,2.13,0,0,1-.08-.55h0A1.42,1.42,0,0,1,125.38,95.35Zm1.2-1.82V93a.87.87,0,0,1-.29.13l-.35.08a1.17,1.17,0,0,0-.55.25.57.57,0,0,0-.16.44.7.7,0,0,0,.11.42.41.41,0,0,0,.34.15.86.86,0,0,0,.79-.48v0a.69.69,0,0,0,.07-.19A1.49,1.49,0,0,0,126.58,93.53Z" transform="translate(-1.05 -1.21)"/><path class="cls-2" d="M130.16,95.27h-.62a1,1,0,0,1-.75-.24,1.12,1.12,0,0,1-.23-.78V91.51H128v-.87h.52V89.41h1v1.23h.61v.87h-.61V94a.33.33,0,0,0,.08.26.62.62,0,0,0,.33.06h.2v.91Z" transform="translate(-1.05 -1.21)"/><path class="cls-2" d="M130.82,90.64h1v4.59h-1Zm0-1.68h1v1.13h-1Z" transform="translate(-1.05 -1.21)"/><path class="cls-2" d="M133.06,94.71a3.27,3.27,0,0,1,0-3.54,1.74,1.74,0,0,1,1.41-.66,1.68,1.68,0,0,1,1.41.66,3.27,3.27,0,0,1,0,3.54,1.69,1.69,0,0,1-1.41.64A1.72,1.72,0,0,1,133.06,94.71Zm2.09-.72a2.51,2.51,0,0,0,0-2.1.75.75,0,0,0-.68-.37.74.74,0,0,0-.67.37,1.88,1.88,0,0,0-.23,1,1.9,1.9,0,0,0,.23,1,.74.74,0,0,0,.67.35A.78.78,0,0,0,135.15,94Z" transform="translate(-1.05 -1.21)"/><path class="cls-2" d="M137.09,90.64H138v.71l.13-.22a1.17,1.17,0,0,1,1-.61,1.22,1.22,0,0,1,1,.41,1.58,1.58,0,0,1,.36,1.09v3.21h-1V92.37a1,1,0,0,0-.16-.63.55.55,0,0,0-.47-.22.67.67,0,0,0-.59.31,1.62,1.62,0,0,0-.21.9v2.5h-1V90.64Z" transform="translate(-1.05 -1.21)"/><path class="cls-2" d="M141.41,94.59V94h1.07v1a2.44,2.44,0,0,1-.25,1.2,1.19,1.19,0,0,1-.79.56V96.2a.62.62,0,0,0,.45-.38,1.73,1.73,0,0,0,.11-.6h-.58v-.63Z" transform="translate(-1.05 -1.21)"/><path class="cls-2" d="M146.26,95.35a1,1,0,0,1-.84-.36,1.44,1.44,0,0,1-.31-1,1.58,1.58,0,0,1,.28-1,1.36,1.36,0,0,1,.82-.48l.78-.14a.92.92,0,0,0,.37-.15.14.14,0,0,0,.06-.1.28.28,0,0,0,0-.13v0a.48.48,0,0,0-.16-.4.77.77,0,0,0-.5-.13.54.54,0,0,0-.42.16.84.84,0,0,0-.19.48h-1a2,2,0,0,1,.47-1.24,1.64,1.64,0,0,1,1.2-.37,1.59,1.59,0,0,1,1.12.36,1.25,1.25,0,0,1,.4,1v2.45a2.85,2.85,0,0,0,0,.54.33.33,0,0,0,.17.21h0v.15h-1.07a2.13,2.13,0,0,1-.08-.55h0A1.4,1.4,0,0,1,146.26,95.35Zm1.2-1.82V93a.87.87,0,0,1-.29.13l-.35.08a1.17,1.17,0,0,0-.55.25.57.57,0,0,0-.16.44.64.64,0,0,0,.11.42.41.41,0,0,0,.34.15.87.87,0,0,0,.79-.48v0a.47.47,0,0,0,.06-.19A1,1,0,0,0,147.46,93.53Z" transform="translate(-1.05 -1.21)"/><path class="cls-2" d="M155.44,93.13a2.36,2.36,0,0,1-.54,1.67,1.94,1.94,0,0,1-1.52.59,1.92,1.92,0,0,1-1.51-.59,2.38,2.38,0,0,1-.54-1.67V89h1.07v4a1.48,1.48,0,0,0,.25.92.9.9,0,0,0,.74.31.88.88,0,0,0,.73-.31,1.42,1.42,0,0,0,.25-.92V89h1.08v4.1Z" transform="translate(-1.05 -1.21)"/><path class="cls-2" d="M156.38,94h1.06v1.26h-1.06Z" transform="translate(-1.05 -1.21)"/><path class="cls-2" d="M161.19,90.88a1.09,1.09,0,0,0-.29-.7,1,1,0,0,0-.7-.26,1.05,1.05,0,0,0-.69.21.7.7,0,0,0-.25.57.54.54,0,0,0,.22.44,2.4,2.4,0,0,0,.87.32,3.88,3.88,0,0,1,1.6.71,1.64,1.64,0,0,1,.43,1.21,1.93,1.93,0,0,1-.54,1.46,2.1,2.1,0,0,1-1.51.53,2.14,2.14,0,0,1-1.56-.54,2.05,2.05,0,0,1-.57-1.55h1a1,1,0,0,0,.29.75,1.18,1.18,0,0,0,.81.27,1.25,1.25,0,0,0,.76-.21.67.67,0,0,0,.28-.57.59.59,0,0,0-.28-.51,3.68,3.68,0,0,0-1-.38,2.88,2.88,0,0,1-1.4-.67,1.63,1.63,0,0,1-.39-1.2,2,2,0,0,1,.51-1.41,1.89,1.89,0,0,1,1.42-.51,2,2,0,0,1,1.45.52,2.3,2.3,0,0,1,.57,1.5h-1Z" transform="translate(-1.05 -1.21)"/><path class="cls-2" d="M163.08,94h1.06v1.26h-1.06Z" transform="translate(-1.05 -1.21)"/><path class="cls-2" d="M169.3,95.39a2.09,2.09,0,0,1-1.76-.88,4,4,0,0,1-.65-2.38,3.86,3.86,0,0,1,.69-2.39,2.25,2.25,0,0,1,1.87-.88,2.1,2.1,0,0,1,1.49.57,2.38,2.38,0,0,1,.7,1.51h-1.07a1.29,1.29,0,0,0-.4-.72,1,1,0,0,0-.71-.29,1.26,1.26,0,0,0-1.09.59,3.42,3.42,0,0,0,0,3.21,1.31,1.31,0,0,0,1.15.55h0a1.08,1.08,0,0,0,.94-.59,2.29,2.29,0,0,0,.27-.75h-1.2V91.87h2.14v3.34H171l-.12-.76,0,0a1.73,1.73,0,0,1-1.51.89Z" transform="translate(-1.05 -1.21)"/><path class="cls-2" d="M172.86,94.71a3.27,3.27,0,0,1,0-3.54,1.84,1.84,0,0,1,2.82,0,3.27,3.27,0,0,1,0,3.54,1.72,1.72,0,0,1-1.41.64A1.69,1.69,0,0,1,172.86,94.71Zm2.08-.72a2.42,2.42,0,0,0,0-2.1.74.74,0,0,0-.67-.37.75.75,0,0,0-.68.37,2,2,0,0,0-.23,1,2,2,0,0,0,.23,1,.83.83,0,0,0,1.35,0Z" transform="translate(-1.05 -1.21)"/><path class="cls-2" d="M176.52,90.64h1.09l.81,3.36h0l.8-3.36h1.06l-1.36,4.59h-1Z" transform="translate(-1.05 -1.21)"/><path class="cls-2" d="M182.46,95.35a1.67,1.67,0,0,1-1.44-.63,3,3,0,0,1-.48-1.88,2.74,2.74,0,0,1,.48-1.7,1.56,1.56,0,0,1,1.3-.63,1.57,1.57,0,0,1,1.34.62,3.08,3.08,0,0,1,.45,1.81v.36h-2.57a1.65,1.65,0,0,0,.19.76.71.71,0,0,0,.66.33.61.61,0,0,0,.41-.13.6.6,0,0,0,.22-.36h1.06a2,2,0,0,1-.57,1.06A1.52,1.52,0,0,1,182.46,95.35Zm.62-2.85a1.53,1.53,0,0,0-.19-.69.64.64,0,0,0-.58-.31.63.63,0,0,0-.59.36,1.9,1.9,0,0,0-.17.65h1.53Z" transform="translate(-1.05 -1.21)"/><path class="cls-2" d="M184.76,90.64h1v.81l.13-.28a1,1,0,0,1,.9-.65l.21,0v1.23a1.27,1.27,0,0,0-.28,0,.86.86,0,0,0-.7.28,1.29,1.29,0,0,0-.22.83v2.37h-1V90.64Z" transform="translate(-1.05 -1.21)"/><path class="cls-2" d="M187.53,90.64h.94v.71l.13-.22a1.17,1.17,0,0,1,1-.61,1.22,1.22,0,0,1,1,.41,1.57,1.57,0,0,1,.35,1.09v3.21h-1V92.37a1,1,0,0,0-.16-.63.56.56,0,0,0-.47-.22.7.7,0,0,0-.6.31,1.62,1.62,0,0,0-.21.9v2.5h-1V90.64Z" transform="translate(-1.05 -1.21)"/><path class="cls-2" d="M191.84,90.64h.95v.76a1.92,1.92,0,0,1,.18-.35,1,1,0,0,1,.91-.54,1,1,0,0,1,.85.37,1.21,1.21,0,0,1,.23.38l.11-.21a1,1,0,0,1,.9-.54,1.18,1.18,0,0,1,.94.4,1.58,1.58,0,0,1,.35,1.07v3.24h-1v-3a.84.84,0,0,0-.14-.53.44.44,0,0,0-.4-.18.59.59,0,0,0-.51.24,1.16,1.16,0,0,0-.17.71v2.75h-1V92.31a1.1,1.1,0,0,0-.15-.6.53.53,0,0,0-.44-.2.52.52,0,0,0-.47.24,1.36,1.36,0,0,0-.16.71v2.75h-1V90.64Z" transform="translate(-1.05 -1.21)"/><path class="cls-2" d="M199.8,95.35a1.69,1.69,0,0,1-1.45-.63,3,3,0,0,1-.48-1.88,2.74,2.74,0,0,1,.48-1.7,1.56,1.56,0,0,1,1.31-.63,1.54,1.54,0,0,1,1.33.62,3.08,3.08,0,0,1,.46,1.81v.36h-2.57a2,2,0,0,0,.19.76.73.73,0,0,0,.67.33.6.6,0,0,0,.4-.13.52.52,0,0,0,.22-.36h1.06a1.83,1.83,0,0,1-.57,1.06A1.49,1.49,0,0,1,199.8,95.35Zm.61-2.85a1.53,1.53,0,0,0-.19-.69.64.64,0,0,0-.58-.31.63.63,0,0,0-.59.36,2.51,2.51,0,0,0-.17.65h1.53Z" transform="translate(-1.05 -1.21)"/><path class="cls-2" d="M202.11,90.64h.94v.71l.13-.22a1.16,1.16,0,0,1,1-.61,1.25,1.25,0,0,1,1,.41,1.57,1.57,0,0,1,.35,1.09v3.21h-1V92.37a1,1,0,0,0-.17-.63.54.54,0,0,0-.46-.22.7.7,0,0,0-.6.31,1.62,1.62,0,0,0-.21.9v2.5h-1V90.64Z" transform="translate(-1.05 -1.21)"/><path class="cls-2" d="M208.17,95.27h-.62a1,1,0,0,1-.75-.24,1.07,1.07,0,0,1-.23-.78V91.51h-.52v-.87h.52V89.41h1v1.23h.61v.87h-.61V94a.33.33,0,0,0,.08.26.59.59,0,0,0,.33.06h.2v.91Z" transform="translate(-1.05 -1.21)"/><path class="cls-2" d="M212.26,89h1.21l1.81,6.2h-1.14L213.8,94h-1.91l-.34,1.26h-1.11Zm-.06,3.84h1.33l-.66-2.44Z" transform="translate(-1.05 -1.21)"/><path class="cls-2" d="M217.55,96.18a.81.81,0,0,0,.6-.21.89.89,0,0,0,.21-.63V94.6s0,0,0,0a1.18,1.18,0,0,1-1,.63,1.36,1.36,0,0,1-1.16-.64,3,3,0,0,1-.44-1.73,3.09,3.09,0,0,1,.44-1.74,1.31,1.31,0,0,1,1.16-.64,1.17,1.17,0,0,1,1,.65l.05.1v-.62h.94v4.71a1.69,1.69,0,0,1-.49,1.28,1.82,1.82,0,0,1-1.32.49,1.73,1.73,0,0,1-1.19-.36,1.48,1.48,0,0,1-.51-1h1.06a.44.44,0,0,0,.21.32A.62.62,0,0,0,217.55,96.18Zm0-4.63a.67.67,0,0,0-.61.35,2.53,2.53,0,0,0,0,2,.7.7,0,0,0,.61.34.68.68,0,0,0,.62-.34,2,2,0,0,0,.21-1,2,2,0,0,0-.21-1A.69.69,0,0,0,217.55,91.55Z" transform="translate(-1.05 -1.21)"/><path class="cls-2" d="M221.85,95.35a1.67,1.67,0,0,1-1.44-.63,3,3,0,0,1-.49-1.88,2.75,2.75,0,0,1,.49-1.7,1.7,1.7,0,0,1,2.63,0,3,3,0,0,1,.46,1.81v.36h-2.56a1.65,1.65,0,0,0,.19.76.7.7,0,0,0,.66.33.61.61,0,0,0,.41-.13.55.55,0,0,0,.21-.36h1.07A2,2,0,0,1,222.9,95,1.52,1.52,0,0,1,221.85,95.35Zm.62-2.85a1.53,1.53,0,0,0-.19-.69.64.64,0,0,0-.58-.31.63.63,0,0,0-.59.36,1.9,1.9,0,0,0-.17.65h1.53Z" transform="translate(-1.05 -1.21)"/><path class="cls-2" d="M224.16,90.64h.94v.71l.13-.22a1.17,1.17,0,0,1,1-.61,1.22,1.22,0,0,1,1,.41,1.57,1.57,0,0,1,.35,1.09v3.21h-1V92.37a1,1,0,0,0-.16-.63.56.56,0,0,0-.47-.22.7.7,0,0,0-.6.31,1.62,1.62,0,0,0-.2.9v2.5h-1V90.64Z" transform="translate(-1.05 -1.21)"/><path class="cls-2" d="M231.75,93.55a2.22,2.22,0,0,1-.56,1.32,1.55,1.55,0,0,1-1.19.48,1.53,1.53,0,0,1-1.27-.6,2.74,2.74,0,0,1-.45-1.67,3.32,3.32,0,0,1,.46-1.9,1.71,1.71,0,0,1,2.5-.23,2.29,2.29,0,0,1,.52,1.33h-1a1,1,0,0,0-.22-.55.56.56,0,0,0-.44-.21.65.65,0,0,0-.58.35,1.93,1.93,0,0,0-.2,1,2.6,2.6,0,0,0,.18,1.14.62.62,0,0,0,.6.35.54.54,0,0,0,.44-.22,1.09,1.09,0,0,0,.22-.59h1Z" transform="translate(-1.05 -1.21)"/><path class="cls-2" d="M234.29,95.86a2.29,2.29,0,0,1-.46,1,1,1,0,0,1-.76.25h-.46v-.95h.25a.44.44,0,0,0,.33-.11.87.87,0,0,0,.2-.4l0-.27h0L232,90.65h1.09L234,94h0l.79-3.38h1Z" transform="translate(-1.05 -1.21)"/></g><path class="cls-2" d="M1.05,106.62V1.21H249.26V106.62ZM246.32,4.15H4v99.52H246.32Z" transform="translate(-1.05 -1.21)"/><path class="cls-2" d="M70.64,62.8V38l.57,0c2.93,0,5.86,0,8.78,0,.53,0,.6.18.6.65V78.4l-.56,0h-9.8a.77.77,0,0,1-.78-.47L56,53.76a1,1,0,0,0-.39-.42V78.41H45.71V38l.59,0c3.21,0,6.42,0,9.63,0a.84.84,0,0,1,.84.49Q63.42,50.28,70.09,62.1c.14.25.29.49.43.72Z" transform="translate(-1.05 -1.21)"/><path class="cls-2" d="M155.17,38h10.5a4.77,4.77,0,0,1,0,.5c0,8.21,0,16.43,0,24.64A18.86,18.86,0,0,1,163.61,72a12.89,12.89,0,0,1-8.6,6.46,29.09,29.09,0,0,1-9.21.71A21.22,21.22,0,0,1,139,77.77c-4.36-1.78-6.8-5.15-7.88-9.61a25.94,25.94,0,0,1-.68-5.88c0-7.91,0-15.83,0-23.74V38H141v.64c0,8,0,15.94,0,23.91a14.68,14.68,0,0,0,.42,3.29A5.26,5.26,0,0,0,146,70a10.61,10.61,0,0,0,5-.17,5.44,5.44,0,0,0,4-4.74,16.21,16.21,0,0,0,.22-2.7c0-7.91,0-15.83,0-23.74A6.54,6.54,0,0,0,155.17,38Z" transform="translate(-1.05 -1.21)"/><path class="cls-2" d="M114.8,62.78h10.41a30.46,30.46,0,0,1-.45,3.06,15.9,15.9,0,0,1-9.82,11.93,21.38,21.38,0,0,1-9.85,1.48,19.44,19.44,0,0,1-8.2-2.31A18.86,18.86,0,0,1,87.49,65a22.85,22.85,0,0,1,2.33-18.8,18.36,18.36,0,0,1,13.74-8.84,20.85,20.85,0,0,1,14.69,3.18,14.39,14.39,0,0,1,6.59,9.24c.18.85.26,1.72.39,2.62H114.68c-.2-.64-.35-1.33-.61-1.95a5.93,5.93,0,0,0-3.1-3.24,9.6,9.6,0,0,0-9,.15,8.78,8.78,0,0,0-4.1,5.42,17.36,17.36,0,0,0,.38,11.91,8.5,8.5,0,0,0,9.38,5.47,7,7,0,0,0,6-3.92A29.88,29.88,0,0,0,114.8,62.78Z" transform="translate(-1.05 -1.21)"/><path class="cls-2" d="M209.55,78.44h-1c-3.13,0-6.27,0-9.41,0a.76.76,0,0,1-.87-.62c-.67-2-1.38-4.06-2.07-6.1a.67.67,0,0,0-.76-.55q-6.45,0-12.91,0a.74.74,0,0,0-.83.61c-.69,2.06-1.43,4.12-2.15,6.19-.09.28-.2.48-.58.47-3.33,0-6.68,0-10,0-.11,0-.21,0-.39,0,.48-1.28.94-2.52,1.4-3.77q6.56-17.56,13.14-35.12c.18-.49.26-1.16.62-1.41s1-.12,1.58-.12h8.55c.32,0,.55,0,.68.41q7.44,19.93,14.9,39.86S209.51,78.3,209.55,78.44ZM189.14,49.31H189l-4.54,14h9.12Z" transform="translate(-1.05 -1.21)"/></svg>