<svg id="Layer_1" data-name="Layer 1" xmlns="http://www.w3.org/2000/svg" viewBox="0 0 125.35 233.12"><title>icon-SmartPhone</title><path d="M188.25,24.57v201.2a5,5,0,0,0-.37,1.06c-.72,8.45-8.47,15.18-17.6,14.92-8-.24-16.05-.05-24.08-.05q-32.82,0-65.65,0a17.2,17.2,0,0,1-11-3.54c-4.82-3.74-6.63-8.83-6.64-14.74V172.69q0-72.7,0-145.41c0-5,1.18-9.57,4.67-13.37,2.56-2.78,5.91-4.07,9.34-5.27h97.25c4.05,1.3,7.77,3.07,10.47,6.6C186.76,18,187.54,21.27,188.25,24.57Zm-7.37,11.54H70.28V214.27h110.6Zm-55.32,197c2,0,4.08.06,6.11,0a6.57,6.57,0,0,0,6.36-6.64,6.49,6.49,0,0,0-6.39-6.6q-6.12-.12-12.24,0a6.48,6.48,0,0,0-6.36,6.62,6.59,6.59,0,0,0,6.4,6.62C121.47,233.15,123.52,233.09,125.56,233.09Zm.17-214.46c-3.55,0-7.1-.08-10.64.06-.74,0-1.45.9-2.17,1.38.74.45,1.47,1.29,2.22,1.3q10.41.15,20.83,0c.73,0,1.44-.88,2.16-1.35-.74-.47-1.46-1.3-2.21-1.33C132.53,18.55,129.13,18.63,125.73,18.63ZM85,17.49a3.91,3.91,0,0,0-3.55-3.79,3.63,3.63,0,0,0-3.73,3.49A3.48,3.48,0,0,0,81.05,21,3.66,3.66,0,0,0,85,17.49Zm9.53.42V16.85c-.9-.57-1.82-1.63-2.68-1.58s-2.13,1.4-2,2a3.15,3.15,0,0,0,2.11,2.17C92.7,19.58,93.66,18.47,94.54,17.91Z" transform="translate(-62.9 -8.64)"/></svg>