<?xml version="1.0" encoding="utf-8"?>
<!-- Generator: Adobe Illustrator 24.1.3, SVG Export Plug-In . SVG Version: 6.00 Build 0)  -->
<svg version="1.1" id="Layer_1" xmlns="http://www.w3.org/2000/svg" xmlns:xlink="http://www.w3.org/1999/xlink" x="0px" y="0px"
	 viewBox="0 0 239.4 213.1" style="enable-background:new 0 0 239.4 213.1;" xml:space="preserve">
<path d="M43.3,157.7c-8.8,3-16.7-1.1-19-9.6c-5.1-18.8-10.1-37.6-15.1-56.4c-0.1-0.4-0.2-0.9-0.3-1.5l182.9-49c4,15,8,29.9,12,44.9
	H65c-12.9,0-21.7,8.8-21.7,21.7c0,15.9,0,31.7,0,47.6L43.3,157.7z"/>
<path d="M185.9,19.2l-183,49c-1-3.9-2.2-7.5-2.7-11.3c-1-6.5,3.5-12.8,10.1-14.7c15.4-4.2,31-8.3,46.4-12.5L165.3,0.6
	c8.1-2.2,15.4,1.3,17.8,8.7C184.2,12.5,184.9,15.7,185.9,19.2z"/>
<g>
	<g>
		<g>
			<path d="M221.6,191.7c-0.1-0.6-0.2-1.1-0.4-1.7c-0.1-0.4-0.1-0.7-0.2-1.1c-0.1-0.4-0.2-0.8-0.2-1.2c-0.7,2-1.4,3.9-2.1,5.9
				c1.1,0,2.3,0,3.4,0c0-0.2,0-0.4-0.1-0.5C221.8,192.7,221.7,192.2,221.6,191.7z"/>
			<path d="M226.2,98.3H69c-7.1,0-12.9,5.8-12.9,12.9v88c0,7.1,5.8,12.9,12.9,12.9h157.2c7.1,0,12.9-5.8,12.9-12.9v-88
				C239.1,104,233.3,98.3,226.2,98.3z M96,196H71.3v-6.4H96V196z M96.4,140.4c0,2-1.6,3.6-3.6,3.6H73c-2,0-3.6-1.6-3.6-3.6v-11.2
				c0-2,1.6-3.6,3.6-3.6h19.8c2,0,3.6,1.6,3.6,3.6V140.4z M128,196h-24.7v-6.4H128V196z M159,196h-24.7v-6.4H159V196z M193,189.5
				c-0.2,0.5-0.5,1.1-0.7,1.6c-0.2,0.5-0.4,0.9-0.6,1.4c-0.2,0.4-0.3,0.8-0.5,1.2c-0.3,0.6-0.5,1.2-0.8,1.9c-0.3,0.8-0.7,1.6-1,2.4
				c-0.2,0.5-0.4,0.9-0.6,1.4c-0.1,0-0.1,0-0.2,0c-1.3,0-2.7,0-4,0c-0.1,0-0.2,0-0.2-0.2c-0.2-0.7-0.3-1.3-0.5-2
				c-0.2-0.7-0.4-1.5-0.6-2.2c-0.1-0.5-0.3-1.1-0.4-1.6c-0.2-0.7-0.4-1.3-0.5-2c-0.1-0.5-0.2-0.9-0.4-1.4c-0.2-0.7-0.3-1.3-0.5-2
				c-0.2-0.6-0.3-1.3-0.5-1.9c-0.1-0.4-0.5-0.7-0.8-0.9c-0.3-0.2-0.7-0.3-1-0.5c-0.4-0.2-0.9-0.3-1.3-0.4c-0.6-0.2-1.1-0.3-1.7-0.4
				c0-0.1,0-0.1,0-0.2c0-0.1,0.1-0.2,0.1-0.3c0.1,0,0.1,0,0.2,0c2.3,0,4.5,0,6.8,0c0.9,0,1.6,0.5,1.9,1.4c0.1,0.4,0.1,0.7,0.2,1.1
				c0.1,0.5,0.2,1.1,0.3,1.6c0.1,0.5,0.2,1,0.3,1.5c0.1,0.4,0.2,0.8,0.2,1.2c0.1,0.5,0.2,1,0.3,1.5c0.1,0.3,0.1,0.6,0.2,1
				c0.1,0.4,0.2,0.9,0.3,1.3c0,0,0,0.1,0,0.1c0.1-0.3,0.2-0.5,0.3-0.8c0.2-0.5,0.4-0.9,0.5-1.4c0.2-0.4,0.3-0.9,0.5-1.3
				c0.2-0.6,0.5-1.2,0.7-1.8c0.2-0.6,0.4-1.1,0.7-1.7c0.2-0.5,0.4-0.9,0.6-1.4c0.2-0.6,0.4-1.1,0.7-1.7c0.1-0.2,0.1-0.4,0.2-0.6
				c0,0,0.1-0.1,0.2-0.1c1.1,0,2.3,0,3.4,0c0.2,0,0.5,0,0.8,0c-0.1,0.3-0.3,0.6-0.4,0.9c-0.2,0.5-0.4,0.9-0.6,1.4
				c-0.2,0.4-0.4,0.9-0.6,1.3c-0.2,0.5-0.5,1.1-0.7,1.6C193.2,189,193.1,189.2,193,189.5z M200.5,187.4c-0.1,0.6-0.3,1.2-0.4,1.8
				c-0.1,0.4-0.2,0.8-0.2,1.2c-0.1,0.6-0.3,1.2-0.4,1.8c-0.1,0.5-0.2,1.1-0.3,1.6c-0.2,0.7-0.3,1.5-0.5,2.2c-0.1,0.7-0.3,1.3-0.4,2
				c-0.1,0.4-0.2,0.9-0.3,1.4c-1.4,0-2.7,0-4.1,0c0.1-0.4,0.2-0.8,0.3-1.2c0.1-0.7,0.3-1.3,0.4-2c0.1-0.3,0.2-0.7,0.2-1
				c0.1-0.6,0.3-1.2,0.4-1.8c0.1-0.5,0.2-1.1,0.3-1.6c0.1-0.7,0.3-1.4,0.4-2c0.1-0.3,0.1-0.6,0.2-0.9c0.1-0.7,0.3-1.3,0.4-2
				c0.1-0.5,0.2-1,0.3-1.5c0.1-0.6,0.3-1.1,0.4-1.7c0-0.1,0-0.1,0.1-0.1c1.3,0,2.6,0,3.9,0c0,0,0,0,0.1,0c-0.1,0.4-0.2,0.7-0.2,1.1
				c-0.1,0.6-0.2,1.2-0.4,1.8C200.7,186.7,200.6,187,200.5,187.4z M210.9,197.8c-0.4,0.3-0.7,0.5-1.1,0.8c-0.5,0.3-1,0.5-1.6,0.6
				c-0.6,0.2-1.2,0.3-1.9,0.3c-0.5,0-1,0.1-1.5,0c-0.6,0-1.1-0.1-1.7-0.2c-0.5-0.1-1-0.2-1.5-0.3c-0.3-0.1-0.6-0.2-0.9-0.3
				c0.3-1.2,0.5-2.3,0.7-3.5c0.6,0.3,1.2,0.6,1.9,0.7c0.4,0.1,0.8,0.2,1.2,0.2c0.4,0,0.8,0.1,1.2,0.1c0.6,0,1.3-0.1,1.8-0.5
				c0.3-0.2,0.6-0.6,0.6-1c0-0.3-0.1-0.6-0.3-0.8c-0.4-0.4-0.8-0.7-1.3-0.9c-0.5-0.3-1-0.5-1.5-0.8c-0.6-0.4-1.2-0.8-1.7-1.3
				c-0.3-0.4-0.6-0.8-0.8-1.3c-0.1-0.3-0.1-0.6-0.2-0.9c0-0.5,0-1.1,0.2-1.6c0.1-0.5,0.3-0.9,0.6-1.3c0.2-0.2,0.4-0.5,0.6-0.7
				c0.3-0.3,0.7-0.5,1-0.8c0.6-0.4,1.2-0.6,1.9-0.8c0.4-0.1,0.7-0.2,1.1-0.2c0.3,0,0.5,0,0.8-0.1c0.1,0,0.1,0,0.2,0
				c0.4,0,0.7,0,1.1,0c0,0,0.1,0,0.1,0c0.5,0,1,0.1,1.4,0.2c0.6,0.1,1.1,0.3,1.7,0.4c0.1,0,0.1,0.1,0.1,0.2
				c-0.1,0.6-0.3,1.2-0.4,1.9c-0.1,0.4-0.2,0.9-0.3,1.3c0,0.1,0,0.1-0.1,0.1c-0.6-0.3-1.2-0.5-1.8-0.6c-0.6-0.1-1.3-0.2-2-0.1
				c-0.5,0-1,0.2-1.4,0.4c-0.3,0.2-0.6,0.5-0.6,0.9c0,0.4,0.2,0.7,0.5,0.9c0.5,0.4,1.1,0.7,1.7,1c0.6,0.3,1.1,0.6,1.7,1
				c0.4,0.3,0.9,0.7,1.2,1.1c0.3,0.4,0.5,0.9,0.6,1.5c0.1,0.3,0.1,0.7,0.1,1c0,0.8-0.2,1.5-0.6,2.2
				C211.6,197,211.3,197.5,210.9,197.8z M223.2,199.3c-0.1-0.2-0.1-0.5-0.2-0.7c-0.1-0.4-0.2-0.8-0.2-1.2c0-0.1,0-0.2-0.1-0.4
				c0,0-0.1-0.1-0.1-0.1c-1.7,0-3.4,0-5.1,0c-0.3,0.8-0.6,1.6-0.9,2.4c-1.4,0-2.9,0-4.3,0c0.1-0.3,0.2-0.6,0.3-0.8
				c0.2-0.6,0.5-1.1,0.7-1.7c0.3-0.7,0.6-1.3,0.8-2c0.2-0.5,0.4-1.1,0.7-1.6c0.1-0.2,0.2-0.4,0.3-0.6c0.2-0.4,0.3-0.8,0.5-1.2
				c0.2-0.6,0.5-1.2,0.7-1.8c0.2-0.5,0.4-1,0.6-1.5c0.2-0.5,0.4-1,0.6-1.5c0.2-0.5,0.4-1,0.7-1.5c0.1-0.3,0.3-0.6,0.4-0.9
				c0.3-0.4,0.7-0.7,1.2-0.7c1.3,0,2.5,0,3.8,0c0.1,0.5,0.2,1.1,0.3,1.6c0.1,0.4,0.2,0.7,0.2,1.1c0.1,0.6,0.3,1.2,0.4,1.9
				c0.1,0.4,0.2,0.8,0.2,1.1c0.1,0.5,0.2,1,0.3,1.5c0.1,0.5,0.2,0.9,0.3,1.4c0.1,0.6,0.2,1.1,0.3,1.7c0.1,0.5,0.2,0.9,0.3,1.4
				c0.1,0.6,0.3,1.2,0.4,1.9c0.2,0.7,0.3,1.5,0.4,2.2c0,0,0,0.1,0,0.1C225.7,199.3,224.5,199.3,223.2,199.3z"/>
		</g>
	</g>
</g>
</svg>
