<?xml version="1.0" encoding="utf-8"?>
<!-- Generator: Adobe Illustrator 24.2.0, SVG Export Plug-In . SVG Version: 6.00 Build 0)  -->
<svg version="1.1" id="Layer_1" xmlns="http://www.w3.org/2000/svg" xmlns:xlink="http://www.w3.org/1999/xlink" x="0px" y="0px"
	 viewBox="0 0 371.6 218.3" style="enable-background:new 0 0 371.6 218.3;" xml:space="preserve">
<path d="M134.3,218.2c-0.1,0-0.3,0.2-0.4,0.1c-0.1-0.1-0.2-0.2-0.3-0.4c0.1,0,0.3,0,0.4,0C134.2,218,134.2,218.1,134.3,218.2z"/>
<path d="M326.3,61c-0.1,0.1-0.3,0.2-0.4,0.3c-12.8,13-25.4,26.1-37.2,39.9c-10.4,12.2-19.2,25.6-26.1,40.1c-0.2,0.3-0.3,0.6-0.4,0.9
	c-0.5,1.2,0.1,2.5,1.2,3c0.2,0.1,0.5,0.2,0.8,0.2c1.2,0,2.3-0.2,3.4-0.7c1.7-0.7,3.3-1.8,4.9-2.6c8.2-3.9,15.9-8.7,23.2-14.1
	c17.6-13.6,33.7-29.1,49.6-44.6c0.6-0.6,1.1-1.2,1.6-1.8L326.3,61z M145.1,152.2c-0.3-1.2-0.6-2.1-0.8-3c-1.4-5.1-2.5-10.3-5.5-14.8
	c-4.1-6.1-12.2-6.4-16.6-0.4c-1.2,1.9-2.3,3.8-3.3,5.8c-2.9,5.1-5.8,10.3-8.9,15.3c-3,4.7-7.4,7.6-12.7,9.3l-5.8,1.8
	c0.4,3.7,0.8,7.1,1.2,10.6c5.6-0.3,17.7-4.2,23.7-11.5c4.3-5.2,8.1-10.9,11.1-17c0.8-1.5,1.7-2.9,2.5-4.3l0.7,0.1
	c0.4,0.8,0.8,1.7,1.2,2.6c0.8,2.8,1.4,5.6,2.2,8.3c1,3.6,2.2,7.2,3.6,10.7c1.5,3.5,5.2,4.5,8.4,2.6c1.5-1.1,2.9-2.3,4.1-3.7
	c1.1-1.1,2-2.4,3.1-3.8c1.1,2.4,1.9,4.5,3,6.5c3.7,6.7,7.8,7,12.6,1c0.7-0.9,1.6-1.6,2.7-2.7c0.3,1.1,0.5,1.6,0.6,2.1
	c1.4,4.2,5.9,5.9,9.5,3.3c3.3-2.4,6.3-5.2,9.6-7.6c3.8-3,7.8-5.7,12-8.2c4.9-2.7,6.1-2.1,8.6,2.8c2.9,5.6,4.8,6.7,10.9,5.5
	c8.5-1.6,16.9-3.5,25.4-5.2c1.6-0.3,2.1-1.1,1.8-2.7c-0.5-2.2-0.8-4.3-1.2-6.5c-0.4-1.8-1.1-2.6-3.2-2c-7,1.8-14.1,3.2-21.1,4.8
	c-1.7,0.4-3.3,0.7-3.4-1.8c-0.1-0.4-0.3-0.8-0.6-1.1c-5.1-6.1-9-7.6-15.7-6.1c-6.8,1.5-12.5,5.1-17.9,9.4c-1.8,1.4-3.6,3-5.5,4.5
	c-2.5-2.4-4.8-4.7-8.4-4.9s-6.3,1.5-8.9,3.7c-0.6-0.8-1.2-1.6-1.9-2.3c-2.1-1.9-4.4-3.5-6.8-5.1c-2.1-1.2-4.7-0.8-6.4,0.9
	C147.7,150,146.6,150.9,145.1,152.2z M149.1,52.8h-119v12.4h119V52.8z M149.1,82.5h-119v12.4h119V82.5z M349.7,79.2
	c3.1-3.5,6.4-6.8,9.3-10.3c3.4-4.3,6.8-8.7,9.8-13.3c2.1-3.3,3.6-7.2,2.7-11.1c-0.8-3.4-2.7-6.3-7-7.5c-4.5-1-8.7,0.1-12.7,2.7
	c-8.3,5.3-15.5,11.9-22.6,18.7c-0.1,0.1,0,0.2,0-0.2L349.7,79.2z M91.7,112.2H30.1v12.4h61.6V112.2z M330.3,101.9
	c0.6,0.8,1.2,1.6,2,2.3c0.7,0.3,1.5,0.2,2.1-0.1c1.3-0.8,2.5-1.8,3.5-2.9c6.6-6.5,13.2-12.9,19.7-19.5c4.4-4.4,8.6-9,12.9-13.6
	c0.5-0.5,0.8-1.3,0.8-2c-0.7-2.4-2.9-2.9-4.7-1.3c-0.4,0.4-0.9,0.8-1.2,1.1c-9.7,9.5-19.3,19.1-29,28.6c-1.7,1.7-3.3,3.6-4.9,5.4
	C331,100.5,330.6,101.2,330.3,101.9L330.3,101.9z"/>
<path d="M282.2,0c2,0,5.5,0.6,7,2c3.2,2.9,5.8,6.6,5.8,11.5c0.1,22,0,39.5,0,61.2c0,6.1,0.2,9.7-3.8,14s-7.1,7.5-7.8,8V31.7H12
	v161.1h271.1c0-0.8,0.1-1.6,0.1-2.4c0.1-11.1,0.2-22.1,0.3-33.2c-0.1-1.3,0.5-2.5,1.6-3c3.2-1.9,6.6-4.1,9.9-6.2
	c0.1,0.3,0.1,0.6,0.1,0.9c0.1,15.1,0.2,28.8,0.1,43.7c0,8.2-6.4,13.3-10.9,13.3c-0.5,0-121.3,0.2-182.5,0.2
	c-28.1,0-56.3-0.2-84.4-0.4c-2.8,0-5.6-0.2-8.4-0.4c-4.1-0.4-8.2-5.3-8.7-10C0,191.8,0,77.1,0,19.6C0.4,18.9-2.6,0,11.7,0
	C20.9,0,217.5,0,282.2,0z"/>
<path d="M169.2,51.9v62.7h66.3V51.9H169.2z M205.2,100.3v6h-6.3v-5.6c-3.8-0.1-7.5-1-10.9-2.5l1.9-6.9c3.3,1.7,7,2.5,10.7,2.6
	c3.7,0,6.2-1.3,6.2-3.6s-2.1-3.6-6.8-5.1c-6.9-2.1-11.5-5-11.5-10.7c0-5.2,4-9.2,10.9-10.5v-5.6h6.3v5.2c3.2,0.1,6.3,0.7,9.2,2
	l-1.9,6.6c-2.9-1.3-6.1-2-9.2-2c-4.2,0-5.5,1.6-5.5,3.3c0,1.9,2.3,3.2,7.7,5.1c7.6,2.5,10.7,5.7,10.7,11
	C216.6,94.8,212.6,99.1,205.2,100.3L205.2,100.3z"/>
</svg>
