<?xml version="1.0" encoding="utf-8"?>
<!-- Generator: Adobe Illustrator 24.1.3, SVG Export Plug-In . SVG Version: 6.00 Build 0)  -->
<svg version="1.1" id="Layer_1" xmlns="http://www.w3.org/2000/svg" xmlns:xlink="http://www.w3.org/1999/xlink" x="0px" y="0px"
	 viewBox="0 0 148.1 220.2" style="enable-background:new 0 0 148.1 220.2;" xml:space="preserve">
<path d="M74.1,48.3c-14.3,0-25.9,11.6-25.9,25.8c0,14.3,11.6,25.9,25.9,25.9c14.3,0,25.8-11.6,25.8-25.9
	C100,59.9,88.4,48.3,74.1,48.3 M74.1,48.3c-14.3,0-25.9,11.6-25.9,25.8c0,14.3,11.6,25.9,25.9,25.9c14.3,0,25.8-11.6,25.8-25.9
	C100,59.9,88.4,48.3,74.1,48.3 M74.1,48.3c-14.3,0-25.9,11.6-25.9,25.8c0,14.3,11.6,25.9,25.9,25.9c14.3,0,25.8-11.6,25.8-25.9
	C100,59.9,88.4,48.3,74.1,48.3 M74.1,48.3c-14.3,0-25.9,11.6-25.9,25.8c0,14.3,11.6,25.9,25.9,25.9c14.3,0,25.8-11.6,25.8-25.9
	C100,59.9,88.4,48.3,74.1,48.3 M74.1,1C33.7,1,1,33.7,1,74.1c0,14.6,4.3,28.1,11.6,39.5l61.5,103.9l1,1.7l60.5-105.6
	c3.7-5.7,6.6-11.9,8.6-18.6c2-6.6,3.1-13.7,3.1-21C147.3,33.7,114.6,1,74.1,1 M74.1,22.3c28.6,0,51.8,23.2,51.8,51.8
	c0,28.6-23.2,51.8-51.8,51.8c-28.6,0-51.8-23.2-51.8-51.8C22.3,45.5,45.5,22.3,74.1,22.3 M74.1,100c14.3,0,25.8-11.6,25.8-25.9
	c0-14.3-11.6-25.8-25.8-25.8c-14.3,0-25.9,11.6-25.9,25.8C48.3,88.4,59.9,100,74.1,100 M74.1,48.3c-14.3,0-25.9,11.6-25.9,25.8
	c0,14.3,11.6,25.9,25.9,25.9c14.3,0,25.8-11.6,25.8-25.9C100,59.9,88.4,48.3,74.1,48.3 M74.1,48.3c-14.3,0-25.9,11.6-25.9,25.8
	c0,14.3,11.6,25.9,25.9,25.9c14.3,0,25.8-11.6,25.8-25.9C100,59.9,88.4,48.3,74.1,48.3 M74.1,48.3c-14.3,0-25.9,11.6-25.9,25.8
	c0,14.3,11.6,25.9,25.9,25.9c14.3,0,25.8-11.6,25.8-25.9C100,59.9,88.4,48.3,74.1,48.3 M74.1,48.3c-14.3,0-25.9,11.6-25.9,25.8
	c0,14.3,11.6,25.9,25.9,25.9c14.3,0,25.8-11.6,25.8-25.9C100,59.9,88.4,48.3,74.1,48.3"/>
</svg>
